<?xml version="1.0" encoding="utf-8"?>
<!-- Svg Vector Icons : http://www.onlinewebfonts.com/icon -->
<!DOCTYPE svg PUBLIC "-//W3C//DTD SVG 1.1//EN" "http://www.w3.org/Graphics/SVG/1.1/DTD/svg11.dtd">
<svg version="1.1" xmlns="http://www.w3.org/2000/svg" xmlns:xlink="http://www.w3.org/1999/xlink" x="0px" y="0px" viewBox="0 0 256 256" enable-background="new 0 0 256 256" xml:space="preserve">
<metadata> Svg Vector Icons : http://www.onlinewebfonts.com/icon </metadata>
<g><g><g><path fill="#000000" d="M203.4,41.1c-5.5,1.9-8.6,3.3-13.5,6.2c-7.3,4.3-9.4,6.4-12.1,11.9c-1.7,3.4-1.8,4.1-2,8.8c-0.4,10.7,1.5,20.4,5.8,29.6c5.1,11,5.8,14.9,4.3,23.5c-1.8,10.2-4.1,16.7-9.9,28.4l-3.9,7.8l-10.3,0.1c-10.5,0.2-14.8,0.7-22.2,2.8c-6.7,1.8-10.6,4.5-15.3,10.5c-3.5,4.5-4.6,6.9-4.9,10.9c-0.2,4.2,0.5,7.1,2.4,9.3c0.8,0.9,1.3,1.8,1.1,2c-0.5,0.5-4.1,0.3-11.2-0.7c-12.9-1.9-18.4-3.6-18.4-5.9c0-0.5,0.6-2.2,1.3-3.5c3.3-6.5,0.1-15-6.8-18.3c-6.4-3-18-4.8-30.3-4.8c-18.3,0-33.1,2.5-39.8,6.5c-4.1,2.6-7.4,6.4-7.4,8.7c0,2.5,5.6,6.5,9.9,7.2c5.7,0.8,19.7-1.6,29.4-5.1l2.7-1h-3.2c-1.8,0-4.4,0.1-5.7,0.4c-6.7,1.3-16.7,2-20.3,1.5c-3.5-0.5-7.4-2.1-7.8-3.2c-0.5-1.5,9.2-5.3,16.9-6.8c5.3-1,20.2-2,24.7-1.6c4.7,0.4,12.3,2,17.6,3.6c4.2,1.3,8.5,4.3,8.5,6c0,0.4-0.8,1.4-1.7,2.3c-3.3,2.9-4.1,8.9-1.9,15.6c1,3.3,1.7,4.4,3.5,6.3c7.5,7.4,30.7,13.8,43.6,11.9c6-0.9,13.2-2.8,16.8-4.5c2.7-1.2,3.3-1.7,4.1-3.5c1.3-3,1.6-6.9,1-11.4c-0.6-4.5-1.9-7.2-4.2-9c-2.2-1.7-1.8-2.6,1.8-4.2c4.6-2.2,13.2-4.1,13.2-3c0,0.7-3.1,4.6-4.7,5.9c-3,2.3-3.9,4.9-3.9,11.6c0,6.6,0.7,8.4,4.7,12.3c4.5,4.4,12.6,7.9,24.1,10.4c4.8,1,6.3,1.1,20.9,1.1c24.2,0,27.6-0.7,36.4-7.8c8.3-6.6,11-12.7,8.8-20c-1-3.5-2.3-5.5-5.6-9c-3.2-3.4-9.2-6.6-22.6-12c-9.8-3.9-14.4-5.4-21.4-7c-2.7-0.6-5-1.2-5.1-1.2c-0.1-0.1,0.9-3.2,2.3-6.9c3.1-8.9,8.2-24.8,9.4-30.3c1.4-6,1.7-6.5,4.6-10.2c7.5-9.3,10.5-16.1,12.8-29.4c1.6-9,0.8-14.8-3-24.4c-1.6-3.8-1.7-4.5-1.1-5.4c3.6-5.6,3.9-6.4,3.9-9.2c0-2.2-0.2-3.1-1-3.8C215.8,37.9,212.4,38,203.4,41.1z M191.2,181c13.8,3.6,26.1,8.5,28.7,11.3l1.1,1.2l-1.6,1c-2.2,1.3-11.2,3-17.6,3.4c-7.3,0.4-18-0.6-23.6-2.1c-2.6-0.7-4.8-1.4-5.1-1.7c-0.8-0.8,9.8-14.8,11.1-14.8C184.6,179.3,187.7,180,191.2,181z"/></g></g></g>
</svg>