<?xml version="1.0" encoding="utf-8"?>
<!-- Svg Vector Icons : http://www.onlinewebfonts.com/icon -->
<!DOCTYPE svg PUBLIC "-//W3C//DTD SVG 1.1//EN" "http://www.w3.org/Graphics/SVG/1.1/DTD/svg11.dtd">
<svg version="1.1" xmlns="http://www.w3.org/2000/svg" xmlns:xlink="http://www.w3.org/1999/xlink" x="0px" y="0px" viewBox="0 0 256 256" enable-background="new 0 0 256 256" xml:space="preserve">
<metadata> Svg Vector Icons : http://www.onlinewebfonts.com/icon </metadata>
<g><g><g><path fill="#000000" d="M88.4,13.2C75,14.6,54.8,21.7,38.7,30.8C26,38,21.3,42.4,19.3,49.2c-0.5,1.7-1.2,2.6-4.2,5c-1.9,1.6-3.9,3.6-4.3,4.5c-1.6,3.1-0.9,6,1.9,7.8c1.5,1,2.1,1.1,8.6,1c5.5,0,7.2-0.2,7.7-0.8c1-1,0.9-2.3-0.5-4.6c-1.2-2-1.2-2.1-0.4-3.4c1.1-1.9,3.5-3.4,7.1-4.4l3-0.8l0.6,1.7c0.7,2.1,0.3,6.1-0.8,9.5c-0.7,2.2-0.9,2.5-1.8,2.2c-0.6-0.2-1.7-0.4-2.7-0.6c-1.4-0.2-1.8,0-2.2,0.8c-0.6,1,0.1,2.7,2.3,5.9c1.3,1.9,8.1,6.7,10.6,7.4c2.5,0.7,5.1,0.3,6.1-0.8c1.7-1.8,1.9-4.2,1.4-10.2c-0.6-6.1-0.2-10.5,1.2-14.8c3.3-9.8,8.2-11.7,13.9-5.5c6.5,7.1,10.2,20.3,9.8,34.4C76,97,73.3,105,64.6,118.1c-6.5,9.9-8,12.3-11,18.6c-2.8,6-5,12.4-6.2,18.6c-1.3,6.5-1.2,20,0.2,26.9c7.5,36.7,22.3,54.6,49.5,60.1c6.5,1.3,20.4,1.1,25.4-0.3c8.1-2.2,11.8-4.5,20.4-12.8c8.6-8.4,12.1-10,23.3-10.8c9.2-0.7,11.4,0,19.4,5.8c13.8,10,30.5,14.9,50.9,14.9h7l1.2-1.5c1.6-1.8,1.6-2.9-0.1-4.7c-0.9-1-1.8-1.5-3.2-1.7c-1-0.1-3.8-0.9-6-1.6c-10.2-3.4-20.6-9.7-30.3-18.4c-7.7-6.9-13.8-10.7-21-13c-3.5-1.1-5-1.4-11.5-1.6c-14.6-0.4-26,2.2-35.1,8.2c-1.5,1-5.5,4.5-9,7.8c-8.5,8.3-9.3,8.6-19,8.6c-8.8,0-12.8-0.8-18.6-3.6c-9.5-4.8-16.1-15.2-20.4-32.3c-2.3-8.9-2.8-13-2.5-19.7c0.7-16.8,8.4-30.1,31.7-55.5c10.3-11.2,15-16.5,18.2-20.5c14.4-18.2,18.8-33.9,13.9-49.2c-5-15.3-15.1-24.5-29.9-26.9C98.4,12.9,92.3,12.8,88.4,13.2z M103.7,18.3c5.2,1.1,11.3,4.3,15,8c10.1,10,13.5,26.1,8.4,39.8c-3.8,10.1-10.1,18.8-27.9,38.2c-19.3,21.1-27,31.5-31.7,43.6c-5.5,14.1-5.3,26.8,0.8,45.2c5.9,18,14.9,28,28.4,31.4c5,1.3,12.7,1.8,17.9,1.3c6.4-0.7,9-2.1,16-8.8c3.1-3.1,6.9-6.5,8.3-7.6c5.7-4.2,14.2-7.1,23.7-8.1c16-1.6,25.2,1,36.3,10.4c11.9,10,13.6,11.4,20.5,15.3c4.4,2.5,10.2,5.3,14.5,6.9l2.5,0.9l-4.7-0.2c-18.3-1-31.7-5.4-43.7-14.4c-7.8-5.8-11.1-6.9-20.1-6.5c-13.1,0.7-19.3,3.3-27.4,11.6c-10.2,10.5-16.9,13.4-30.5,13.4c-16.3,0-27.6-4-37.4-13.2c-10.1-9.5-16.6-23.7-20.7-45c-1.5-7.5-1.5-18,0-24.8c1.5-6.9,3.1-11.4,6.5-18.4c6-12.3,12.5-20.9,31.8-42c20.8-22.7,26.5-31.8,26.5-42.7c0-8.9-5.6-18.1-12.5-20.7c-9.3-3.4-22.6-1.3-42,6.7c-3.9,1.7-5.2,2.5-7.4,4.7c-3,3-5.5,7.6-6.8,12.7c-0.9,3.3-1.1,11.8-0.5,16.8c0.5,3.9,0.1,4.4-2.5,3.3c-1.1-0.5-2.8-1.5-3.8-2.3c-1.7-1.2-1.8-1.4-1.2-2.1c1.5-1.7,3.3-7.8,3.5-12.2c0.3-5.4-0.6-8-3.4-9.3c-1.6-0.8-2.1-0.8-4.3-0.3c-3.6,0.8-8.9,3.6-10.3,5.4c-0.6,0.9-1.7,3-2.5,4.8l-1.3,3.3l-2.3,0.1c-3.6,0.2-4.5-0.1-4.5-1.8c0-1.1,0.5-1.7,2.7-3.5c3.8-2.9,5.6-5.1,6.2-7.5c0.9-3.6,1.5-4.6,4.3-7.2C34.8,37,53,27.7,68.9,22.3C83.5,17.4,93.7,16.3,103.7,18.3z M101.3,35.6c2.4,0.7,3.7,1.5,5.3,3c1.2,1.2,2.1,2.2,2,2.3c-0.1,0.1-2.4,0-5.1-0.2c-10.8-1-23.6,1.1-31.7,5.3c-1.7,0.8-1.7,0.8-2.6-0.1c-0.5-0.5-1.7-1.6-2.7-2.3l-1.8-1.3l4.9-1.9C83.5,34.9,94.2,33.3,101.3,35.6z M109.8,45.8c1.3,0.4,1.5,0.7,2.1,3.6c0.4,1.7,0.6,3.3,0.4,3.4c-0.1,0.1-3.1,0-6.5-0.2c-10.3-0.7-19.5,0.4-26.3,3.1c-1.7,0.7-3,1.1-3.1,1c-0.3-0.3-3.1-6-3.1-6.3c0-0.8,8.3-3.7,13.9-4.8C90.8,44.9,107.3,45.1,109.8,45.8z M108.7,57.1c2.5,0.3,2.6,0.4,2.5,1.7c0,0.7-0.6,2.4-1.2,3.7l-1.1,2.5l-6.3-0.1c-7-0.1-13.8,0.7-19,2.3c-1.8,0.6-3.4,0.9-3.4,0.8c-0.1-0.1-0.6-1.7-1.1-3.5l-0.9-3.4l2.3-0.9c2.2-0.9,8.5-2.6,11.5-3C94.2,56.8,105.8,56.8,108.7,57.1z M105,69.5c0.8,0.3,0.6,0.8-1.8,3.9l-2.6,3.5l-4.1,0.3c-4.9,0.4-9.9,1.3-12.8,2.4c-1.1,0.4-2.2,0.7-2.4,0.5c-0.1-0.1-0.3-1.9-0.3-3.8v-3.6l3.2-1.1c2.8-0.9,6.6-1.7,11.5-2.3C98.3,69,104.2,69.1,105,69.5z M94.2,84.3c-11.6,12.7-16,17.3-16.1,17.2c-0.1,0,0.3-1.7,0.8-3.6c0.5-1.9,1.2-5.5,1.5-7.9c0.7-5.1,0.6-5.1,6.8-6.7c4.3-1.1,5.5-1.3,7.7-1.4l1.6,0L94.2,84.3z"/></g></g></g>
</svg>