<svg xmlns="http://www.w3.org/2000/svg" viewBox="0 0 64 80" x="0px" y="0px"><g data-name="computing-computer-book-document-online education"><path d="M49,7H35V29H49ZM47,25H37V23H47Zm0-4H37V19H47Zm0-4H37V15H47Zm0-4H37V11H47Z"/><path d="M32,31a1,1,0,0,0,1-1V9H31V30A1,1,0,0,0,32,31Z"/><path d="M4,44a3.009,3.009,0,0,0,3,3H57a3.009,3.009,0,0,0,3-3V41H4Zm50-1h2v2H54Zm-4,0h2v2H50Z"/><rect x="28" y="49" width="8" height="6"/><path d="M44,57H20a1,1,0,0,0-1,1v3H45V58A1,1,0,0,0,44,57Z"/><path d="M29,7H15V29H29ZM17,11h2v2H17ZM27,25H17V23H27Zm0-4H17V19H27Zm0-4H17V15H27Zm0-4H21V11h6Z"/><path d="M57,3H7A3.009,3.009,0,0,0,4,6V39H60V6A3.009,3.009,0,0,0,57,3ZM55,36a1,1,0,0,1-1,1H10a1,1,0,0,1-1-1V9a1,1,0,0,1,1-1h3V6a1,1,0,0,1,1-1H30a1,1,0,0,1,1,1V7h2V6a1,1,0,0,1,1-1H50a1,1,0,0,1,1,1V7h3a1,1,0,0,1,1,1Z"/><path d="M53,9V35H11V10h2V30a1,1,0,0,0,1,1H29.18a2.988,2.988,0,0,0,5.64,0H50a1,1,0,0,0,1-1V9Z"/></g><text x="0" y="79" fill="#000000" font-size="5px" font-weight="bold" font-family="'Helvetica Neue', Helvetica, Arial-Unicode, Arial, Sans-serif">Created by Cattaleeya Thongsriphong</text><text x="0" y="84" fill="#000000" font-size="5px" font-weight="bold" font-family="'Helvetica Neue', Helvetica, Arial-Unicode, Arial, Sans-serif">from the Noun Project</text></svg>