<svg id="svg" version="1.1" width="600" height="800" xmlns="http://www.w3.org/2000/svg"><path d="M308.826 0.750 C 336.506 0.898,381.506 0.898,408.826 0.750 C 436.147 0.602,413.500 0.481,358.500 0.481 C 303.500 0.481,281.147 0.602,308.826 0.750 M493.823 0.750 C 513.251 0.902,544.751 0.901,563.823 0.749 C 582.895 0.598,567.000 0.473,528.500 0.473 C 490.000 0.474,474.395 0.598,493.823 0.750 M599.000 399.500 L 599.000 799.000 489.500 799.000 C 429.275 799.000,380.000 798.818,380.000 798.595 C 380.000 797.313,384.700 789.671,385.732 789.274 C 386.637 788.926,386.685 788.279,385.912 786.836 C 384.736 784.638,386.214 782.000,388.622 782.000 C 390.467 782.000,390.362 780.985,388.367 779.527 C 386.946 778.487,386.898 777.828,387.998 774.417 C 388.692 772.262,389.765 769.872,390.380 769.104 C 392.440 766.536,394.798 760.638,394.293 759.320 C 394.018 758.603,394.514 757.740,395.396 757.401 C 396.278 757.063,397.000 756.145,397.000 755.362 C 397.000 754.578,397.675 753.678,398.500 753.362 C 400.411 752.628,400.465 750.000,398.570 750.000 C 397.783 750.000,396.995 751.008,396.820 752.240 C 396.644 753.472,395.669 754.638,394.653 754.832 C 393.135 755.121,392.934 754.768,393.522 752.842 C 393.915 751.554,394.968 749.668,395.863 748.651 C 396.836 747.545,397.570 744.733,397.690 741.651 C 397.800 738.818,397.915 736.073,397.945 735.550 C 397.975 735.028,398.524 735.124,399.165 735.765 C 400.052 736.652,400.642 736.521,401.633 735.215 C 403.381 732.915,403.326 731.938,401.489 732.643 C 400.399 733.061,400.153 732.765,400.607 731.582 C 401.003 730.550,401.904 730.152,403.034 730.511 C 405.553 731.310,406.512 729.223,404.598 727.108 C 402.421 724.703,402.545 724.354,406.000 723.150 C 407.936 722.475,409.000 721.419,409.000 720.174 C 409.000 719.113,409.613 717.736,410.362 717.115 C 411.110 716.493,411.980 713.815,412.294 711.164 C 412.608 708.512,413.851 704.672,415.057 702.629 C 416.603 700.008,417.091 697.945,416.713 695.622 C 416.420 693.810,416.537 691.749,416.975 691.041 C 417.971 689.428,416.576 684.093,413.344 677.159 C 411.412 673.013,411.003 670.943,411.515 667.909 C 411.989 665.106,411.824 664.000,410.933 664.000 C 410.093 664.000,410.226 663.408,411.345 662.171 C 412.255 661.165,413.000 659.420,413.000 658.293 C 413.000 657.166,413.960 655.607,415.133 654.827 C 416.839 653.695,417.263 652.418,417.246 648.455 C 417.235 645.730,416.966 641.925,416.648 640.000 C 416.329 638.075,415.921 632.126,415.740 626.781 C 415.419 617.309,415.458 617.105,417.297 618.769 C 418.707 620.045,419.046 621.330,418.636 623.853 C 418.114 627.070,418.175 627.152,419.914 625.578 C 421.645 624.011,421.825 624.172,423.415 628.713 C 424.337 631.346,425.340 635.750,425.644 638.500 C 426.235 643.838,426.594 644.739,427.694 643.639 C 428.941 642.392,425.914 630.755,422.731 624.557 C 420.111 619.455,412.651 609.355,403.946 599.122 C 401.410 596.140,402.023 595.464,406.006 596.852 C 409.297 598.000,409.347 597.816,407.256 592.250 C 406.997 591.563,407.522 591.000,408.421 591.000 C 410.539 591.000,432.396 600.950,432.833 602.113 C 433.017 602.601,433.874 603.000,434.739 603.000 C 435.604 603.000,437.929 604.236,439.906 605.747 C 441.883 607.257,443.894 608.363,444.375 608.205 C 444.856 608.046,446.094 608.680,447.125 609.613 C 448.156 610.546,449.000 610.979,449.000 610.573 C 449.000 610.168,450.516 610.774,452.368 611.918 C 454.220 613.063,456.640 614.000,457.746 614.000 C 458.851 614.000,460.344 614.710,461.065 615.578 C 462.916 617.809,479.000 625.841,479.000 624.535 C 479.000 624.409,478.100 623.268,477.000 622.000 C 475.900 620.732,475.000 620.263,475.000 620.958 C 475.000 621.653,474.115 621.159,473.033 619.861 C 471.952 618.562,471.052 617.863,471.033 618.307 C 470.998 619.167,466.057 616.643,462.115 613.750 C 460.803 612.788,458.888 612.000,457.859 612.000 C 456.829 612.000,455.053 610.927,453.913 609.615 C 452.678 608.195,451.118 607.418,450.057 607.695 C 449.051 607.958,448.025 607.507,447.699 606.658 C 447.312 605.650,446.361 605.352,444.811 605.751 C 442.748 606.283,442.647 606.167,443.872 604.673 C 444.627 603.753,444.852 602.969,444.372 602.931 C 439.532 602.549,437.291 601.715,435.283 599.549 C 433.983 598.147,432.031 597.000,430.946 597.000 C 428.816 597.000,424.953 595.117,423.765 593.500 C 423.361 592.950,423.024 592.863,423.015 593.307 C 423.007 593.750,422.000 593.413,420.777 592.557 C 419.555 591.701,418.009 591.000,417.343 591.000 C 416.676 591.000,414.927 590.543,413.456 589.983 C 411.154 589.108,410.966 588.746,412.102 587.377 C 413.816 585.312,415.411 582.547,418.087 577.000 C 419.281 574.525,420.644 571.825,421.114 571.000 C 421.585 570.175,422.629 568.038,423.434 566.250 C 424.239 564.462,425.315 563.000,425.824 563.000 C 426.333 563.000,426.750 561.848,426.750 560.440 C 426.750 558.153,427.775 555.129,431.304 547.000 C 431.901 545.625,432.503 543.825,432.643 543.000 C 432.782 542.175,433.387 539.700,433.987 537.500 C 434.588 535.300,435.198 532.951,435.344 532.279 C 435.490 531.607,435.922 530.745,436.304 530.362 C 436.687 529.980,437.000 528.418,437.000 526.892 C 437.000 525.366,437.450 523.840,438.000 523.500 C 438.550 523.160,439.000 521.135,439.000 519.000 C 439.000 516.865,439.450 514.840,440.000 514.500 C 440.550 514.160,441.014 512.671,441.032 511.191 C 441.049 509.711,441.726 507.624,442.536 506.552 C 443.347 505.481,443.751 503.792,443.436 502.798 C 443.080 501.677,443.459 500.761,444.431 500.388 C 445.294 500.057,446.000 498.736,446.000 497.452 C 446.000 496.168,446.365 494.893,446.810 494.617 C 447.256 494.342,447.731 491.972,447.867 489.351 C 448.138 484.115,452.241 476.503,455.238 475.674 C 456.194 475.410,457.420 474.025,457.963 472.597 C 458.506 471.169,459.339 470.000,459.815 470.000 C 460.774 470.000,463.457 464.955,463.161 463.709 C 463.058 463.275,463.453 462.022,464.040 460.926 C 464.626 459.830,465.267 454.786,465.462 449.716 C 465.658 444.647,466.280 439.311,466.844 437.857 C 467.408 436.404,467.634 434.317,467.347 433.220 C 467.060 432.123,467.315 430.923,467.913 430.554 C 468.511 430.184,469.000 428.614,469.000 427.063 C 469.000 425.513,469.675 423.685,470.500 423.000 C 471.325 422.315,472.000 421.135,472.000 420.378 C 472.000 419.620,472.900 419.000,474.000 419.000 C 475.180 419.000,476.062 418.283,476.152 417.250 C 476.436 413.989,476.552 413.502,477.340 412.243 C 477.825 411.469,477.512 410.750,476.526 410.372 C 475.646 410.034,474.215 408.382,473.346 406.701 C 471.870 403.848,471.888 403.555,473.624 402.285 C 475.237 401.106,474.699 401.018,469.575 401.620 C 464.654 402.198,463.758 402.074,464.218 400.875 C 464.522 400.083,463.857 398.324,462.740 396.967 C 461.412 395.353,460.558 394.932,460.272 395.750 C 459.445 398.108,457.924 397.000,458.212 394.250 C 458.450 391.973,458.070 391.445,456.000 391.179 C 452.894 390.781,451.049 388.527,451.722 385.954 C 452.266 383.874,449.486 383.042,448.807 385.080 C 448.560 385.819,447.664 385.854,445.973 385.191 C 435.832 381.217,407.545 375.517,387.000 373.307 C 382.875 372.863,368.086 372.788,354.135 373.141 C 330.226 373.745,328.618 373.904,326.135 375.918 C 320.625 380.387,317.075 381.337,311.023 379.963 C 307.985 379.273,301.550 378.720,296.723 378.733 L 287.946 378.757 283.223 374.531 C 278.086 369.933,273.709 367.593,267.500 366.123 C 265.300 365.603,262.150 364.699,260.500 364.116 C 257.719 363.133,244.504 360.997,229.000 359.024 C 218.942 357.745,216.040 356.895,214.575 354.803 C 213.830 353.740,213.433 352.062,213.691 351.073 C 213.996 349.908,213.506 349.104,212.300 348.789 C 211.012 348.452,209.703 346.021,208.050 340.901 C 203.646 327.250,201.938 323.866,199.625 324.199 C 197.969 324.438,197.368 325.525,196.709 329.470 C 196.193 332.563,196.266 335.289,196.902 336.685 C 197.526 338.054,197.561 339.153,196.992 339.505 C 195.703 340.302,195.154 337.060,194.735 326.175 C 194.521 320.600,193.915 316.565,193.227 316.141 C 192.309 315.573,192.078 307.923,192.891 305.000 C 193.385 303.225,194.972 308.226,194.985 311.597 C 194.997 314.849,195.464 315.918,197.250 316.780 C 198.488 317.376,198.938 317.895,198.250 317.932 C 195.306 318.092,198.372 323.000,201.415 323.000 C 202.544 323.000,200.668 313.428,199.210 311.750 C 198.084 310.453,198.022 310.000,198.970 310.000 C 199.862 310.000,200.066 309.080,199.642 306.962 C 199.228 304.889,199.461 303.760,200.377 303.409 C 201.419 303.009,201.733 299.281,201.785 286.722 C 201.828 276.137,202.222 270.426,202.925 270.192 C 203.516 269.995,204.000 269.388,204.000 268.844 C 204.000 267.153,215.194 244.670,217.661 241.406 C 218.948 239.704,220.000 237.621,220.000 236.778 C 220.000 235.935,220.670 234.689,221.489 234.009 C 222.308 233.329,222.737 232.384,222.443 231.907 C 221.765 230.811,223.858 226.756,225.646 225.700 C 226.391 225.260,227.000 224.396,227.000 223.779 C 227.000 223.162,227.714 221.869,228.586 220.905 C 230.045 219.293,230.025 219.176,228.336 219.459 C 227.326 219.628,226.612 220.268,226.750 220.883 C 226.887 221.497,226.325 222.000,225.500 222.000 C 224.675 222.000,224.000 222.451,224.000 223.003 C 224.000 224.004,213.211 237.602,205.872 245.852 C 202.563 249.572,200.915 253.000,202.437 253.000 C 202.677 253.000,204.453 251.326,206.384 249.280 C 211.199 244.176,211.928 245.740,207.737 252.182 C 204.667 256.902,203.418 259.126,199.773 266.372 C 199.255 267.401,198.248 270.101,197.536 272.372 C 196.823 274.642,195.885 277.360,195.452 278.411 C 194.793 280.006,195.008 280.231,196.757 279.774 C 199.006 279.186,198.942 279.928,196.310 285.000 C 195.596 286.375,195.010 288.261,195.006 289.190 C 195.003 290.120,193.867 294.021,192.483 297.859 C 190.392 303.655,190.069 305.910,190.574 311.169 C 190.909 314.651,191.288 319.750,191.418 322.500 C 191.548 325.250,192.140 329.750,192.735 332.500 C 193.330 335.250,193.639 338.850,193.423 340.500 C 193.006 343.685,195.238 349.944,198.191 353.868 C 199.171 355.170,199.789 356.532,199.565 356.895 C 199.341 357.257,194.735 357.479,189.329 357.386 C 183.923 357.294,178.781 357.598,177.903 358.062 C 176.931 358.576,175.855 358.455,175.153 357.753 C 174.282 356.882,174.000 357.108,174.000 358.675 C 174.000 360.169,173.181 360.914,171.073 361.335 C 169.417 361.667,166.238 363.911,163.753 366.504 C 159.719 370.714,159.138 371.003,156.618 370.045 C 154.764 369.340,153.975 368.403,154.187 367.154 C 154.359 366.138,153.887 364.569,153.138 363.666 C 151.375 361.542,152.372 359.000,154.969 359.000 C 156.119 359.000,157.000 358.341,157.000 357.480 C 157.000 356.392,156.267 356.094,154.413 356.430 C 150.947 357.059,149.000 358.808,149.000 361.294 C 149.000 362.421,148.253 364.168,147.341 365.176 C 146.428 366.184,145.367 368.920,144.983 371.255 C 144.599 373.590,144.108 376.175,143.892 377.000 C 143.672 377.841,144.159 378.500,145.000 378.500 C 145.874 378.500,146.377 377.769,146.206 376.750 C 146.045 375.788,146.382 375.000,146.956 375.000 C 147.530 375.000,148.000 373.875,148.000 372.500 C 148.000 369.691,149.559 369.351,152.441 371.532 C 153.509 372.339,155.231 373.000,156.268 373.000 C 157.787 373.000,158.099 373.633,157.872 376.264 C 157.717 378.060,157.931 380.080,158.347 380.753 C 158.763 381.426,158.823 384.882,158.480 388.432 C 157.304 400.604,161.649 430.823,165.097 434.450 C 165.594 434.972,166.000 436.122,166.000 437.004 C 166.000 439.247,171.728 444.317,176.500 446.299 C 192.690 453.024,231.674 456.841,248.500 453.349 C 256.801 451.626,261.195 449.905,264.338 447.145 C 266.119 445.580,266.121 445.626,264.401 448.624 C 263.424 450.326,261.239 452.668,259.546 453.828 C 257.852 454.989,254.695 457.752,252.531 459.968 C 247.104 465.526,248.930 466.960,255.678 462.437 C 261.197 458.738,266.181 452.615,270.278 444.500 C 272.649 439.804,276.559 435.182,278.255 435.072 C 280.288 434.940,286.000 431.974,286.000 431.051 C 286.000 429.261,282.406 429.894,280.479 432.024 C 276.824 436.062,276.730 432.350,280.271 423.847 C 284.635 413.368,286.499 407.922,288.024 401.196 C 289.710 393.754,288.696 393.770,286.109 401.226 C 282.680 411.107,279.991 418.069,277.398 423.777 C 276.079 426.680,275.000 429.293,275.000 429.585 C 275.000 430.619,265.651 443.535,263.312 445.732 C 260.449 448.421,257.017 450.350,256.325 449.659 C 256.049 449.382,257.683 447.475,259.957 445.420 C 267.716 438.410,277.331 420.359,282.020 404.000 C 283.202 399.875,284.564 395.745,285.047 394.823 C 285.567 393.831,285.485 390.643,284.847 387.022 C 284.254 383.654,284.053 380.614,284.401 380.266 C 285.730 378.937,287.148 381.937,287.627 387.093 C 287.901 390.044,288.307 392.640,288.529 392.862 C 288.751 393.084,290.498 391.892,292.411 390.212 C 294.759 388.151,296.558 387.333,297.946 387.696 C 299.620 388.134,300.119 387.653,300.627 385.117 C 301.059 382.955,301.826 382.000,303.129 382.000 C 304.634 382.000,304.957 382.646,304.754 385.249 C 304.540 387.986,304.870 388.551,306.843 388.831 C 308.164 389.018,309.910 390.435,310.843 392.075 C 311.755 393.676,312.884 394.861,313.353 394.709 C 313.823 394.556,314.948 392.197,315.853 389.466 C 317.159 385.528,318.224 384.148,321.000 382.798 C 322.925 381.862,324.864 381.074,325.309 381.048 C 326.927 380.952,324.740 383.148,322.291 384.080 C 320.460 384.775,319.915 385.569,320.288 386.994 C 320.570 388.071,320.386 390.650,319.880 392.726 C 317.524 402.383,318.336 417.875,321.617 425.872 C 322.377 427.727,323.000 429.994,323.000 430.911 C 323.000 431.827,323.900 434.342,325.000 436.500 C 326.100 438.658,327.000 440.946,327.000 441.585 C 327.000 443.532,331.790 451.454,334.515 454.014 C 335.925 455.339,339.199 457.467,341.790 458.743 C 345.522 460.581,345.877 460.944,343.500 460.490 C 341.850 460.175,338.475 458.906,336.000 457.671 C 332.346 455.847,330.859 454.219,328.093 449.018 C 324.314 441.912,321.238 434.324,319.979 429.000 C 319.524 427.075,318.497 422.800,317.696 419.500 C 315.697 411.259,314.813 401.233,316.020 400.488 C 317.763 399.410,317.058 397.000,315.000 397.000 C 313.251 397.000,313.000 397.667,313.000 402.307 C 313.000 409.375,316.328 427.175,318.929 434.012 C 320.077 437.031,322.925 443.258,325.258 447.850 C 329.990 457.164,332.724 459.398,343.681 462.898 C 362.495 468.908,403.269 472.092,415.620 468.515 C 424.196 466.031,428.669 460.962,435.047 446.500 C 437.930 439.963,444.081 417.185,445.541 407.641 C 446.299 402.687,449.904 399.315,454.958 398.833 C 458.840 398.462,458.843 398.464,459.482 402.731 C 460.188 407.433,462.191 408.380,464.057 404.893 C 465.165 402.823,465.243 402.843,468.596 406.093 C 472.299 409.682,472.362 411.756,468.885 415.564 C 467.849 416.699,466.514 420.299,465.920 423.564 C 465.325 426.829,464.425 429.928,463.919 430.450 C 463.414 430.973,463.000 432.830,463.000 434.578 C 463.000 436.325,462.394 438.258,461.653 438.873 C 460.726 439.642,460.116 443.818,459.697 452.246 L 459.089 464.500 455.544 467.763 C 453.595 469.558,451.982 471.808,451.959 472.763 C 451.903 475.160,446.417 481.376,445.084 480.552 C 444.376 480.114,444.000 481.235,444.000 483.784 C 444.000 487.801,440.714 498.686,438.977 500.423 C 438.440 500.960,438.000 503.245,438.000 505.500 C 438.000 507.755,437.561 510.039,437.024 510.576 C 436.488 511.112,435.315 515.140,434.419 519.526 C 433.523 523.912,432.216 528.175,431.514 529.000 C 430.813 529.825,429.928 533.087,429.548 536.250 C 429.167 539.413,428.438 542.000,427.928 542.000 C 427.418 542.000,427.000 543.168,427.000 544.596 C 427.000 546.023,426.398 548.386,425.662 549.846 C 421.511 558.082,419.995 561.696,419.997 563.346 C 419.999 564.361,419.212 566.388,418.250 567.850 C 414.941 572.878,413.993 574.506,412.935 576.980 C 412.352 578.343,411.566 579.693,411.187 579.980 C 410.809 580.266,408.514 583.425,406.086 587.000 C 403.658 590.575,400.395 594.545,398.836 595.822 C 395.832 598.283,395.180 600.000,397.250 600.000 C 398.562 600.000,404.000 606.259,404.000 607.770 C 404.000 608.252,405.993 611.763,408.428 615.573 L 412.856 622.500 412.556 634.500 C 412.228 647.582,411.221 656.000,409.984 656.000 C 408.563 656.000,407.000 662.188,407.000 667.811 C 407.000 671.870,407.652 674.436,409.470 677.539 C 411.460 680.934,412.031 683.527,412.406 690.858 C 412.670 696.011,412.465 700.213,411.933 700.542 C 411.416 700.861,411.285 702.287,411.642 703.710 C 412.100 705.533,411.951 706.088,411.139 705.586 C 410.500 705.191,409.720 705.567,409.388 706.431 C 409.059 707.288,408.405 707.750,407.933 707.459 C 407.462 707.168,407.509 705.791,408.038 704.399 C 409.704 700.019,408.922 699.320,406.992 703.464 C 405.977 705.644,405.396 707.832,405.701 708.326 C 406.007 708.820,405.668 709.587,404.948 710.032 C 404.229 710.476,403.540 711.439,403.417 712.170 C 403.294 712.902,402.875 714.293,402.485 715.261 C 401.925 716.656,402.164 716.899,403.639 716.428 C 405.356 715.879,405.345 715.979,403.500 717.718 C 401.311 719.783,398.000 725.521,398.000 727.252 C 398.000 727.852,397.418 729.053,396.707 729.921 C 394.956 732.059,393.660 736.209,389.988 751.440 C 388.272 758.557,386.223 765.925,385.434 767.812 C 384.645 769.700,384.000 772.111,384.000 773.170 C 384.000 774.230,383.143 776.871,382.095 779.039 C 381.047 781.208,379.880 785.236,379.501 787.990 C 379.123 790.744,378.405 793.250,377.906 793.558 C 377.408 793.866,377.000 795.216,377.000 796.559 L 377.000 799.000 307.109 799.000 L 237.217 799.000 235.609 791.877 C 234.724 787.960,233.980 784.022,233.956 783.127 C 233.932 782.232,233.225 779.700,232.385 777.500 C 231.545 775.300,230.203 770.350,229.403 766.500 C 227.472 757.207,226.373 752.328,225.124 747.500 C 224.555 745.300,223.129 738.325,221.955 732.000 C 218.345 712.551,212.990 692.557,210.311 688.527 C 209.590 687.443,209.000 685.557,209.000 684.337 C 209.000 683.116,208.523 681.823,207.941 681.464 C 207.358 681.104,206.975 679.839,207.090 678.654 C 207.204 677.470,207.005 675.712,206.649 674.750 C 205.059 670.460,204.747 669.322,204.388 666.500 C 204.178 664.850,203.563 662.375,203.022 661.000 C 202.481 659.625,201.832 656.925,201.579 655.000 C 201.327 653.075,200.614 649.700,199.994 647.500 C 199.375 645.300,198.736 642.375,198.574 641.000 C 198.412 639.625,197.904 635.800,197.446 632.500 C 196.987 629.200,196.719 625.938,196.850 625.250 C 197.228 623.262,195.176 623.802,194.000 626.000 C 193.257 627.388,193.246 628.591,193.965 629.934 C 195.600 632.990,195.180 635.833,192.914 637.046 C 191.767 637.660,191.054 638.387,191.329 638.662 C 191.604 638.937,192.767 638.660,193.914 638.046 C 195.711 637.084,196.000 637.212,196.000 638.965 C 196.000 640.357,195.345 641.000,193.929 641.000 C 192.045 641.000,192.000 641.143,193.429 642.571 C 195.247 644.390,195.421 645.622,193.984 646.510 C 192.505 647.424,193.803 649.000,196.034 649.000 C 197.612 649.000,197.848 649.508,197.374 651.879 C 197.058 653.462,197.225 655.021,197.746 655.343 C 198.310 655.692,198.375 657.866,197.906 660.714 C 196.776 667.585,196.804 667.803,198.898 668.468 C 200.841 669.084,201.578 672.035,202.315 682.162 C 202.502 684.726,203.503 688.101,204.540 689.662 C 205.577 691.223,206.456 692.950,206.494 693.500 C 206.532 694.050,207.414 696.300,208.454 698.500 C 209.495 700.700,210.424 704.525,210.520 707.000 C 210.784 713.869,212.057 718.918,213.866 720.274 C 215.919 721.814,216.120 727.141,214.179 728.589 C 212.916 729.532,212.940 729.763,214.360 730.308 C 215.262 730.654,216.000 732.039,216.000 733.385 C 216.000 734.732,216.485 735.995,217.077 736.192 C 218.181 736.560,222.098 755.334,222.090 760.217 C 222.088 761.712,222.516 763.201,223.043 763.526 C 223.569 763.852,224.000 765.393,224.000 766.952 C 224.000 768.630,224.654 770.037,225.604 770.402 C 226.803 770.862,227.112 772.024,226.829 775.000 C 226.620 777.191,226.774 779.099,227.171 779.241 C 227.568 779.384,228.001 781.640,228.133 784.255 C 228.266 786.870,229.415 791.062,230.687 793.572 C 231.959 796.081,233.000 798.327,233.000 798.563 C 233.000 798.799,180.463 799.108,116.250 799.250 C 52.037 799.392,134.613 799.619,299.750 799.754 L 600.000 800.000 600.000 400.000 C 600.000 180.000,599.775 0.000,599.500 0.000 C 599.225 0.000,599.000 179.775,599.000 399.500 M383.000 148.275 C 383.000 149.095,383.900 150.002,385.000 150.290 C 386.231 150.612,387.045 151.714,387.116 153.156 C 387.200 154.851,387.359 155.015,387.689 153.750 C 388.286 151.467,389.588 151.538,392.231 154.000 C 393.412 155.101,394.870 155.888,395.472 155.750 C 396.074 155.613,398.254 157.188,400.316 159.250 C 402.379 161.313,404.727 163.000,405.533 163.000 C 407.273 163.000,407.431 164.169,405.899 165.701 C 405.098 166.502,405.371 166.983,406.899 167.468 C 408.055 167.835,409.000 168.935,409.000 169.912 C 409.000 171.716,412.622 175.711,413.480 174.854 C 413.737 174.597,412.834 172.748,411.474 170.746 C 410.113 168.744,409.000 166.508,409.000 165.776 C 409.000 163.340,396.555 152.000,393.882 152.000 C 393.193 152.000,391.700 151.133,390.564 150.074 C 387.713 147.414,383.000 146.293,383.000 148.275 M272.779 153.713 C 271.283 153.941,267.997 155.224,265.476 156.564 C 262.956 157.904,259.793 159.000,258.447 159.000 C 257.101 159.000,256.000 159.473,256.000 160.051 C 256.000 160.629,254.425 161.760,252.500 162.564 C 250.575 163.369,249.000 164.418,249.000 164.897 C 249.000 165.375,248.213 166.051,247.250 166.399 C 242.546 168.100,237.796 171.861,238.636 173.220 C 239.009 173.824,238.455 173.962,237.226 173.572 C 235.770 173.110,234.641 173.642,233.207 175.465 C 232.110 176.859,230.377 178.018,229.356 178.041 C 228.335 178.063,225.942 179.413,224.038 181.041 C 222.134 182.668,220.091 184.000,219.498 184.000 C 218.550 184.000,212.495 188.936,207.916 193.442 C 207.045 194.299,205.865 195.000,205.293 195.000 C 204.722 195.000,202.388 197.025,200.107 199.500 C 197.825 201.975,195.566 204.000,195.086 204.000 C 194.607 204.000,193.972 204.631,193.676 205.402 C 193.380 206.173,189.169 209.620,184.319 213.063 C 174.574 219.978,170.675 223.800,165.003 232.000 C 162.911 235.025,160.254 238.494,159.099 239.708 C 157.945 240.923,157.000 242.541,157.000 243.305 C 157.000 245.852,153.930 250.888,152.004 251.499 C 150.862 251.861,150.324 252.681,150.658 253.551 C 150.993 254.424,150.611 255.000,149.696 255.000 C 147.802 255.000,143.274 260.294,141.168 264.971 C 140.294 266.912,139.038 269.175,138.377 270.000 C 137.717 270.825,135.602 275.325,133.677 280.000 C 130.319 288.159,130.174 289.031,130.057 301.731 C 129.950 313.349,130.126 314.889,131.499 314.362 C 132.820 313.855,132.960 314.399,132.403 317.881 C 132.001 320.397,132.133 322.000,132.743 322.000 C 133.293 322.000,134.048 324.303,134.421 327.117 C 135.346 334.087,136.152 332.666,136.414 323.605 C 136.566 318.368,136.255 315.928,135.394 315.598 C 134.686 315.326,134.390 314.225,134.703 313.028 C 135.004 311.877,134.607 310.162,133.821 309.217 C 132.291 307.380,132.306 303.442,133.888 291.500 C 135.048 282.746,137.994 274.909,141.723 270.662 C 143.302 268.864,145.613 265.744,146.858 263.730 C 149.579 259.328,153.216 254.904,158.188 249.950 C 160.853 247.295,161.573 245.973,160.784 245.184 C 159.672 244.072,162.015 240.324,167.566 234.335 C 168.904 232.890,170.000 231.172,170.000 230.517 C 170.000 228.440,184.089 214.883,187.037 214.123 C 187.842 213.915,189.063 213.728,189.750 213.706 C 190.438 213.684,191.000 213.292,191.000 212.833 C 191.000 212.375,191.675 212.000,192.500 212.000 C 193.325 212.000,194.000 211.325,194.000 210.500 C 194.000 209.675,194.675 209.000,195.500 209.000 C 196.325 209.000,197.000 208.347,197.000 207.550 C 197.000 206.752,197.787 205.659,198.750 205.120 C 199.713 204.581,200.393 203.772,200.263 203.320 C 200.132 202.869,201.032 202.472,202.263 202.437 C 203.493 202.403,204.392 201.854,204.260 201.217 C 204.128 200.581,204.915 199.580,206.010 198.995 C 207.104 198.409,208.045 198.283,208.100 198.715 C 208.155 199.147,208.492 198.461,208.850 197.191 C 209.207 195.921,209.772 195.021,210.104 195.191 C 210.437 195.361,211.939 194.037,213.443 192.250 C 214.947 190.463,216.797 189.000,217.554 189.000 C 218.310 189.000,219.411 188.100,220.000 187.000 C 220.589 185.900,221.874 185.000,222.855 185.000 C 223.837 185.000,226.533 183.380,228.846 181.399 C 232.112 178.604,233.356 178.051,234.410 178.925 C 235.443 179.782,235.906 179.687,236.352 178.526 C 236.674 177.686,237.404 177.000,237.974 177.000 C 238.544 177.000,241.215 174.748,243.911 171.995 C 247.033 168.806,249.358 167.200,250.318 167.569 C 251.233 167.920,251.958 167.501,252.163 166.503 C 252.357 165.558,255.476 163.596,259.500 161.888 C 263.350 160.254,267.306 158.470,268.291 157.924 C 269.276 157.379,270.466 157.170,270.936 157.460 C 271.406 157.751,272.037 157.347,272.338 156.563 C 272.718 155.572,273.970 155.271,276.442 155.578 C 278.399 155.820,280.000 155.613,280.000 155.117 C 280.000 154.205,277.404 152.873,276.168 153.150 C 275.801 153.232,274.276 153.486,272.779 153.713 M0.468 223.500 C 0.468 254.850,0.595 267.530,0.750 251.679 C 0.904 235.827,0.904 210.177,0.749 194.679 C 0.594 179.180,0.468 192.150,0.468 223.500 M416.104 175.914 C 414.380 177.006,415.379 180.000,417.469 180.000 C 419.269 180.000,419.499 181.573,417.849 182.594 C 416.542 183.401,419.473 186.000,421.691 186.000 C 424.634 186.000,430.949 195.936,431.031 200.695 C 431.048 201.688,432.171 204.300,433.526 206.500 C 434.881 208.700,436.017 211.400,436.049 212.500 C 436.082 213.600,437.772 217.807,439.805 221.849 L 443.500 229.199 448.250 229.569 C 452.649 229.911,454.369 228.964,452.003 227.502 C 450.791 226.753,446.307 217.117,445.384 213.277 C 444.625 210.120,441.214 203.000,440.461 203.000 C 440.186 203.000,440.232 204.238,440.562 205.750 C 441.531 210.189,443.175 214.000,444.121 214.000 C 444.605 214.000,445.000 214.505,445.000 215.122 C 445.000 215.898,444.536 215.860,443.500 215.000 C 442.350 214.045,441.671 214.028,440.589 214.926 C 439.506 215.825,439.000 215.809,438.412 214.858 C 437.983 214.164,438.165 213.445,438.823 213.226 C 440.425 212.692,440.251 209.916,438.468 207.559 C 437.661 206.491,437.000 204.804,437.000 203.809 C 437.000 202.814,436.586 202.000,436.079 202.000 C 435.573 202.000,434.863 200.653,434.501 199.006 C 434.140 197.359,433.173 195.636,432.353 195.177 C 431.533 194.719,430.735 193.189,430.580 191.778 C 430.186 188.188,421.236 177.989,419.127 178.726 C 417.804 179.188,417.734 179.043,418.750 177.947 C 421.174 175.334,419.298 173.892,416.104 175.914 M401.531 198.949 C 401.047 199.733,402.091 201.275,404.384 203.165 C 406.373 204.804,408.000 206.549,408.000 207.042 C 408.000 207.536,410.363 210.472,413.250 213.567 C 416.137 216.662,418.847 219.802,419.271 220.545 C 419.695 221.288,423.995 225.857,428.828 230.698 C 433.660 235.539,439.361 242.425,441.498 246.000 C 443.634 249.575,446.783 254.075,448.496 256.000 C 454.390 262.622,458.695 268.507,460.201 272.000 C 463.739 280.204,466.044 288.993,466.496 296.000 C 466.842 301.370,467.444 303.841,468.615 304.702 C 470.608 306.166,469.715 309.212,467.538 308.376 C 466.537 307.992,466.000 308.362,466.000 309.437 C 466.000 310.454,466.671 310.975,467.750 310.794 C 468.929 310.596,469.607 311.253,469.827 312.808 C 470.007 314.077,470.682 314.921,471.327 314.683 C 471.972 314.445,472.322 313.631,472.103 312.875 C 471.300 310.089,471.290 302.435,472.088 300.303 C 472.741 298.559,472.488 297.972,470.864 297.457 C 469.429 297.001,468.972 296.216,469.334 294.829 C 469.804 293.034,468.272 285.547,466.402 280.500 C 465.682 278.557,465.720 278.552,467.726 280.310 C 468.861 281.306,470.022 283.331,470.305 284.810 C 470.587 286.290,471.563 290.200,472.473 293.500 C 473.382 296.800,474.088 300.778,474.041 302.341 C 473.984 304.219,474.386 305.040,475.227 304.764 C 477.096 304.150,477.342 298.563,475.644 295.279 C 474.834 293.713,473.873 290.646,473.508 288.465 C 473.143 286.284,471.812 282.475,470.549 280.000 C 469.287 277.525,467.954 274.226,467.588 272.669 C 466.414 267.684,470.013 269.910,472.164 275.500 C 473.223 278.250,474.744 281.918,475.544 283.651 C 476.345 285.384,477.000 288.219,477.000 289.951 C 477.000 291.682,477.741 294.531,478.646 296.282 C 479.551 298.032,480.255 300.746,480.210 302.314 C 480.154 304.303,480.533 305.009,481.466 304.651 C 482.201 304.369,483.060 304.895,483.374 305.819 C 483.689 306.744,485.299 309.750,486.954 312.500 C 488.609 315.250,490.984 319.627,492.231 322.226 C 493.479 324.826,495.063 326.963,495.750 326.976 C 497.402 327.008,497.328 325.913,495.500 323.304 C 494.675 322.126,494.217 320.563,494.482 319.831 C 494.746 319.099,493.369 316.732,491.421 314.571 C 489.473 312.411,487.625 309.373,487.314 307.821 C 487.004 306.270,486.131 305.000,485.375 305.000 C 484.619 305.000,484.000 304.185,484.000 303.188 C 484.000 302.191,483.100 299.513,482.000 297.236 C 480.900 294.959,480.000 291.590,480.000 289.748 C 480.000 287.907,479.468 285.868,478.817 285.217 C 478.166 284.566,477.961 283.706,478.361 283.306 C 479.397 282.270,483.728 287.975,484.392 291.250 C 484.699 292.762,485.411 294.000,485.975 294.000 C 487.917 294.000,486.995 289.305,484.483 286.406 C 483.098 284.807,481.004 281.527,479.829 279.116 C 478.654 276.705,476.861 274.515,475.846 274.249 C 474.831 273.984,474.000 273.241,474.000 272.599 C 474.000 271.957,472.734 270.683,471.186 269.769 C 469.639 268.855,467.659 266.620,466.786 264.804 C 465.913 262.987,464.367 259.788,463.350 257.697 C 461.389 253.665,454.582 246.000,452.963 246.000 C 452.433 246.000,452.000 245.100,452.000 244.000 C 452.000 242.889,451.333 242.000,450.500 242.000 C 448.592 242.000,448.556 244.387,450.441 245.951 C 451.233 246.608,451.652 247.742,451.373 248.471 C 451.093 249.200,452.912 251.979,455.415 254.648 C 457.918 257.317,459.974 260.218,459.983 261.095 C 460.003 262.975,463.087 266.000,464.984 266.000 C 465.970 266.000,465.889 266.466,464.669 267.814 C 463.416 269.198,463.304 269.904,464.197 270.797 C 464.840 271.440,465.089 272.244,464.750 272.583 C 463.657 273.677,462.000 271.946,462.000 269.712 C 462.000 268.335,459.054 264.580,453.936 259.435 C 446.119 251.578,445.865 251.172,445.659 246.240 C 445.531 243.183,444.790 240.422,443.802 239.325 C 442.897 238.321,441.559 235.578,440.829 233.229 C 439.994 230.545,438.943 229.009,438.000 229.095 C 435.198 229.348,434.000 229.003,434.000 227.941 C 434.000 227.359,434.403 227.131,434.895 227.435 C 437.285 228.912,436.677 223.898,433.490 215.839 C 429.019 204.534,428.144 203.150,425.843 203.751 C 423.822 204.280,423.437 205.534,425.000 206.500 C 425.550 206.840,426.000 206.615,426.000 206.000 C 426.000 205.385,426.450 205.160,427.000 205.500 C 427.550 205.840,428.000 206.568,428.000 207.118 C 428.000 207.668,427.641 207.896,427.202 207.625 C 426.763 207.354,425.766 207.526,424.986 208.009 C 423.884 208.690,424.172 209.115,426.284 209.918 C 429.576 211.170,429.848 212.987,426.750 213.033 L 424.500 213.067 426.857 215.030 C 429.799 217.482,435.000 223.967,435.000 225.186 C 435.000 226.486,427.248 220.977,422.244 216.121 C 419.728 213.679,418.000 212.598,418.000 213.466 C 418.000 214.271,418.913 215.418,420.028 216.015 C 421.143 216.612,421.774 217.557,421.429 218.115 C 420.798 219.135,417.000 216.428,417.000 214.959 C 417.000 214.556,414.750 211.831,412.000 208.902 C 409.250 205.973,407.000 203.195,407.000 202.729 C 407.000 202.263,406.571 202.147,406.047 202.471 C 405.524 202.794,404.465 201.857,403.695 200.387 C 402.720 198.526,402.063 198.089,401.531 198.949 M413.167 222.820 C 415.904 223.936,418.813 228.372,420.063 233.337 C 420.709 235.902,421.634 238.000,422.119 238.000 C 422.603 238.000,423.010 238.563,423.022 239.250 C 423.054 241.030,426.735 245.598,427.512 244.822 C 428.185 244.148,425.293 239.022,423.552 237.804 C 423.005 237.422,422.897 236.770,423.311 236.355 C 423.725 235.941,426.091 237.717,428.567 240.301 C 431.957 243.839,432.629 245.010,431.285 245.039 C 430.216 245.063,430.803 245.645,432.750 246.491 C 434.899 247.425,436.000 248.597,436.000 249.952 C 436.000 251.106,436.655 252.000,437.500 252.000 C 438.372 252.000,439.000 252.907,439.000 254.167 C 439.000 255.358,439.279 256.055,439.619 255.714 C 440.593 254.740,443.090 257.740,443.384 260.238 C 443.743 263.296,445.813 268.136,447.611 270.123 C 448.421 271.018,449.011 272.144,448.923 272.625 C 448.835 273.106,448.816 274.543,448.882 275.817 C 448.976 277.662,449.409 278.005,451.005 277.498 C 452.423 277.048,453.182 277.394,453.599 278.681 C 455.141 283.445,456.288 285.732,458.506 288.461 C 461.697 292.389,462.808 291.034,460.124 286.486 C 458.956 284.506,458.000 281.993,458.000 280.902 C 458.000 277.442,453.998 266.375,451.953 264.180 C 450.871 263.019,449.355 262.310,448.583 262.606 C 447.175 263.147,445.264 259.403,446.379 258.288 C 446.986 257.680,444.838 254.442,440.338 249.183 C 438.777 247.358,435.700 243.737,433.500 241.136 C 431.300 238.534,427.833 235.077,425.796 233.453 C 423.759 231.829,422.072 229.903,422.046 229.173 C 421.967 226.903,416.289 221.996,413.827 222.070 C 412.011 222.125,411.866 222.290,413.167 222.820 M211.000 224.099 C 211.000 225.995,201.709 234.997,199.750 234.999 C 198.441 235.000,198.000 235.823,198.000 238.268 C 198.000 240.106,196.906 243.146,195.500 245.215 C 194.125 247.238,193.000 249.818,193.000 250.947 C 193.000 252.076,192.550 253.000,192.000 253.000 C 191.450 253.000,191.000 254.139,191.000 255.531 C 191.000 256.924,190.325 258.322,189.500 258.638 C 188.640 258.968,188.000 260.461,188.000 262.139 C 188.000 263.748,187.325 266.680,186.500 268.654 C 185.675 270.629,185.000 273.369,185.000 274.745 C 185.000 276.871,185.228 277.056,186.524 275.980 C 188.359 274.457,189.279 275.109,188.428 277.328 C 188.080 278.234,186.873 278.845,185.675 278.721 C 184.064 278.554,183.508 279.084,183.401 280.888 C 183.324 282.201,182.540 283.678,181.660 284.171 C 180.779 284.663,179.561 286.964,178.952 289.283 C 177.813 293.620,174.753 296.939,171.857 296.978 C 170.953 296.990,169.941 297.712,169.607 298.582 C 168.682 300.993,168.876 301.524,170.200 300.200 C 174.236 296.164,173.870 302.729,169.569 311.500 C 167.682 315.350,165.486 320.075,164.690 322.000 C 163.894 323.925,162.964 326.175,162.623 327.000 C 162.282 327.825,162.271 326.250,162.600 323.500 C 162.929 320.750,163.611 317.727,164.116 316.783 C 164.621 315.839,165.880 312.352,166.913 309.033 C 168.769 303.067,168.768 303.000,166.828 303.000 C 165.277 303.000,164.994 302.528,165.480 300.750 C 166.027 298.752,165.969 298.702,164.964 300.310 C 164.342 301.306,163.836 304.231,163.839 306.810 C 163.841 309.390,163.252 312.850,162.529 314.500 C 160.020 320.224,159.769 321.547,159.440 330.750 C 159.111 339.997,159.766 341.984,161.748 337.750 C 162.543 336.050,162.672 337.456,162.275 343.500 C 161.845 350.045,161.986 351.277,163.051 350.274 C 164.296 349.101,164.608 346.725,165.460 331.931 C 165.762 326.699,166.577 324.019,169.465 318.766 C 171.459 315.138,173.745 311.627,174.545 310.963 C 175.764 309.951,176.000 310.251,176.000 312.819 C 176.000 314.503,175.549 316.160,174.999 316.501 C 174.386 316.879,174.241 319.749,174.626 323.887 C 175.035 328.282,174.848 331.416,174.092 332.827 C 173.170 334.551,173.204 335.000,174.259 335.000 C 175.892 335.000,178.478 345.751,178.288 351.750 C 178.154 355.953,179.248 357.403,180.362 354.500 C 180.678 353.675,181.642 353.000,182.504 353.000 C 183.758 353.000,183.858 352.603,183.005 351.010 C 181.926 348.993,182.184 340.483,183.360 339.307 C 184.603 338.064,183.976 337.000,182.000 337.000 C 180.822 337.000,180.000 337.667,180.000 338.622 C 180.000 339.924,179.714 340.008,178.555 339.045 C 177.013 337.766,177.033 332.459,178.647 313.775 C 179.088 308.674,179.460 304.050,179.475 303.500 C 179.489 302.950,178.713 302.632,177.750 302.794 C 175.601 303.155,175.440 300.710,177.500 299.000 C 178.325 298.315,179.000 297.392,179.000 296.947 C 179.000 295.096,185.165 283.000,186.108 283.000 C 186.673 283.000,186.906 283.788,186.627 284.750 C 184.793 291.070,183.889 295.952,182.510 307.000 C 181.651 313.875,180.583 322.106,180.136 325.291 C 179.054 333.004,180.300 333.453,181.857 325.912 C 183.389 318.495,184.981 319.103,184.869 327.062 C 184.822 330.347,185.299 333.655,185.927 334.412 C 186.556 335.170,187.001 336.174,186.917 336.645 C 186.319 339.977,187.162 346.113,188.171 345.776 C 189.753 345.249,190.004 341.445,188.816 336.000 C 187.810 331.392,186.229 319.950,185.513 312.099 C 185.292 309.679,185.949 303.613,186.973 298.620 C 187.997 293.627,188.655 289.251,188.435 288.895 C 187.882 288.000,192.232 275.443,195.356 268.916 C 196.942 265.601,197.575 263.175,197.003 262.603 C 196.431 262.031,195.656 262.602,194.985 264.087 C 192.813 268.900,190.807 272.141,190.309 271.643 C 189.750 271.083,191.816 264.092,193.012 262.500 C 193.425 261.950,193.622 260.262,193.450 258.750 C 193.277 257.238,193.556 256.000,194.068 256.000 C 194.581 256.000,195.000 257.125,195.000 258.500 C 195.000 261.893,197.366 261.699,199.932 258.096 C 202.300 254.769,202.538 253.654,200.750 254.250 C 200.063 254.479,199.500 255.267,199.500 256.000 C 199.500 256.733,198.938 257.521,198.250 257.750 C 197.563 257.979,197.000 257.620,197.000 256.951 C 197.000 254.545,208.140 237.394,214.105 230.618 C 217.692 226.543,218.943 224.000,217.360 224.000 C 216.623 224.000,216.393 224.274,208.876 234.128 C 205.783 238.183,202.311 243.300,201.160 245.500 C 200.010 247.700,198.181 250.622,197.096 251.993 C 195.307 254.255,195.060 254.320,194.436 252.693 C 193.994 251.542,194.468 250.110,195.757 248.699 C 196.862 247.490,198.448 245.150,199.282 243.500 C 200.116 241.850,201.856 239.294,203.149 237.820 C 205.524 235.113,211.140 227.497,212.367 225.319 C 212.733 224.670,212.575 223.856,212.016 223.510 C 211.457 223.165,211.000 223.430,211.000 224.099 M399.000 229.621 C 399.000 229.928,400.100 231.377,401.445 232.840 C 402.790 234.303,404.800 236.625,405.912 238.000 L 407.933 240.500 407.967 238.250 C 407.987 236.902,407.399 236.000,406.500 236.000 C 405.667 236.000,405.000 235.111,405.000 234.000 C 405.000 232.900,405.450 232.000,406.000 232.000 C 406.550 232.000,407.000 232.400,407.000 232.888 C 407.000 233.967,412.858 242.559,418.419 249.638 C 425.159 258.215,426.317 260.151,428.570 266.597 C 429.756 269.994,431.464 273.824,432.364 275.109 L 434.000 277.445 434.000 275.157 C 434.000 272.685,432.463 269.320,430.385 267.242 C 429.670 266.527,429.323 265.322,429.614 264.564 C 430.140 263.194,426.012 255.743,424.058 254.536 C 423.495 254.188,421.070 250.887,418.669 247.202 C 416.268 243.516,413.335 239.643,412.152 238.595 C 410.001 236.691,409.242 234.000,410.856 234.000 C 411.849 234.000,427.707 254.686,431.012 260.293 C 432.242 262.379,433.394 263.939,433.573 263.760 C 434.563 262.771,431.426 254.171,429.391 252.298 C 428.076 251.087,427.000 249.806,427.000 249.451 C 427.000 249.097,425.295 246.870,423.210 244.502 C 421.126 242.134,418.539 238.465,417.460 236.348 C 414.946 231.413,414.217 230.944,411.198 232.319 C 409.046 233.300,408.514 233.153,407.234 231.226 C 405.532 228.663,404.000 228.319,404.000 230.500 C 404.000 231.325,403.550 232.000,403.000 232.000 C 402.450 232.000,402.000 231.598,402.000 231.107 C 402.000 230.616,401.325 229.955,400.500 229.638 C 399.675 229.322,399.000 229.314,399.000 229.621 M189.400 234.143 C 186.901 238.134,185.305 242.071,186.011 242.507 C 187.031 243.137,186.061 247.000,184.883 247.000 C 184.398 247.000,183.948 248.912,183.884 251.250 C 183.820 253.588,183.562 254.713,183.311 253.750 C 182.767 251.670,181.000 251.398,181.000 253.394 C 181.000 254.161,179.706 256.174,178.123 257.868 C 176.541 259.562,174.315 262.872,173.176 265.224 L 171.105 269.500 173.429 271.596 C 175.185 273.179,175.519 274.108,174.797 275.398 C 174.156 276.543,174.232 277.574,175.026 278.531 C 176.456 280.255,174.610 289.508,172.308 292.151 C 170.417 294.321,172.319 295.538,174.380 293.477 C 175.228 292.629,176.199 290.263,176.539 288.218 C 176.878 286.173,177.796 282.507,178.578 280.072 C 180.415 274.352,180.370 273.000,178.345 273.000 C 176.835 273.000,176.828 272.847,178.267 271.250 C 179.134 270.288,180.148 268.281,180.520 266.791 C 180.892 265.301,181.800 263.581,182.539 262.968 C 183.277 262.355,183.652 261.257,183.372 260.528 C 183.093 259.799,183.344 258.905,183.932 258.542 C 184.519 258.179,185.000 257.009,185.000 255.941 C 185.000 254.873,185.450 254.000,186.000 254.000 C 186.550 254.000,187.000 253.325,187.000 252.500 C 187.000 251.675,186.550 251.000,186.000 251.000 C 184.530 251.000,184.782 249.361,186.518 247.625 C 187.353 246.790,187.942 245.746,187.827 245.304 C 187.386 243.603,189.327 237.480,190.613 236.514 C 191.458 235.879,191.642 234.993,191.106 234.143 C 190.385 233.001,190.116 233.001,189.400 234.143 M224.781 238.760 C 222.785 241.378,220.198 244.619,219.033 245.962 C 216.923 248.395,213.000 256.373,213.000 258.231 C 213.000 258.768,214.591 257.811,216.535 256.104 C 218.479 254.397,220.650 253.000,221.360 253.000 C 222.678 253.000,227.000 248.927,227.000 247.686 C 227.000 246.285,223.676 247.061,222.442 248.748 C 221.739 249.710,220.821 250.155,220.403 249.736 C 219.984 249.318,220.623 247.649,221.821 246.028 C 223.019 244.407,224.000 242.613,224.000 242.040 C 224.000 241.468,225.125 241.000,226.500 241.000 C 228.286 241.000,229.000 240.460,229.000 239.107 C 229.000 238.066,229.675 236.955,230.500 236.638 C 232.586 235.838,232.381 234.000,230.205 234.000 C 229.219 234.000,226.778 236.142,224.781 238.760 M257.000 235.635 C 245.994 238.542,230.403 247.684,226.631 253.441 C 225.708 254.848,224.269 256.000,223.433 256.000 C 221.213 256.000,209.000 263.229,209.000 264.544 C 209.000 265.158,207.877 267.875,206.504 270.581 C 203.297 276.903,203.358 277.492,207.000 275.341 C 208.986 274.168,210.000 272.771,210.000 271.207 C 210.000 269.909,211.350 267.496,213.000 265.846 C 214.650 264.196,216.000 262.486,216.000 262.046 C 216.000 260.699,218.851 258.790,219.896 259.436 C 221.483 260.417,219.099 265.834,216.754 266.578 C 214.929 267.157,214.873 267.349,216.298 268.147 C 217.534 268.839,218.761 268.153,221.434 265.278 C 223.366 263.200,224.958 260.993,224.973 260.372 C 225.011 258.769,228.000 256.364,228.000 257.937 C 228.000 258.586,228.451 258.839,229.003 258.498 C 229.668 258.087,229.653 257.220,228.956 255.919 C 227.736 253.639,228.456 252.000,230.677 252.000 C 231.534 252.000,233.725 250.762,235.546 249.250 C 239.976 245.569,245.835 242.000,247.447 242.000 C 248.166 242.000,249.329 241.308,250.031 240.463 C 250.732 239.618,252.033 239.049,252.921 239.200 C 253.809 239.350,256.407 238.856,258.694 238.101 C 262.970 236.690,267.743 237.305,265.115 238.929 C 264.185 239.504,264.119 239.955,264.893 240.434 C 265.502 240.810,266.000 241.568,266.000 242.118 C 266.000 242.668,265.641 242.896,265.202 242.625 C 264.763 242.354,263.755 242.534,262.961 243.024 C 261.838 243.718,261.784 244.184,262.716 245.116 C 263.558 245.958,264.301 246.005,265.208 245.275 C 266.640 244.121,273.000 244.752,273.000 246.047 C 273.000 246.498,271.829 246.655,270.398 246.396 C 268.967 246.136,267.280 246.309,266.648 246.781 C 266.017 247.252,264.327 247.709,262.893 247.796 C 260.639 247.932,260.349 247.623,260.753 245.513 C 261.152 243.427,260.894 243.135,258.974 243.505 C 256.402 244.000,255.042 245.000,256.940 245.000 C 257.710 245.000,257.965 245.649,257.584 246.641 C 257.238 247.543,257.237 249.171,257.582 250.258 C 258.145 252.032,258.800 252.168,263.969 251.583 C 268.099 251.116,271.078 251.390,274.502 252.552 C 277.127 253.443,279.551 253.796,279.888 253.336 C 280.903 251.950,286.697 249.000,288.404 249.000 C 289.282 249.000,290.793 248.207,291.762 247.238 C 292.731 246.269,294.695 245.379,296.125 245.260 C 298.618 245.054,298.750 245.305,299.290 251.259 C 299.627 254.981,299.433 257.979,298.804 258.736 C 298.072 259.619,298.073 260.000,298.809 260.000 C 299.389 260.000,300.836 258.634,302.025 256.965 C 303.793 254.482,303.959 253.655,302.936 252.422 C 302.012 251.310,301.978 250.622,302.805 249.795 C 303.632 248.968,304.191 249.371,304.938 251.337 C 305.495 252.802,306.412 254.000,306.975 254.000 C 308.474 254.000,308.226 252.432,306.500 251.000 C 304.971 249.731,304.494 246.839,305.627 245.707 C 305.972 245.362,307.527 245.739,309.084 246.544 C 310.641 247.349,313.259 248.155,314.901 248.334 C 318.979 248.781,320.598 250.354,322.617 255.829 C 323.564 258.398,324.897 261.175,325.578 262.000 C 326.639 263.284,333.659 278.578,340.841 295.250 C 342.753 299.688,345.886 302.126,344.696 298.250 C 343.317 293.758,335.873 276.942,328.402 261.443 C 325.057 254.504,324.088 250.000,325.941 250.000 C 326.459 250.000,327.160 250.450,327.500 251.000 C 328.370 252.407,331.052 252.250,330.750 250.809 C 330.302 248.677,333.767 248.834,335.822 251.039 C 337.172 252.489,338.479 252.983,339.829 252.554 C 340.930 252.205,342.121 252.387,342.475 252.959 C 342.829 253.532,342.641 254.000,342.059 254.000 C 340.934 254.000,340.587 257.253,341.603 258.269 C 341.934 258.601,343.284 258.462,344.603 257.961 C 346.117 257.385,347.000 257.409,347.000 258.025 C 347.000 258.561,347.889 259.000,348.975 259.000 C 353.779 259.000,358.846 279.102,357.181 291.560 C 356.344 297.821,355.640 299.602,352.478 303.461 C 350.433 305.958,348.363 308.000,347.880 308.000 C 346.392 308.000,346.890 310.397,349.500 315.808 C 350.875 318.658,352.000 321.394,352.000 321.888 C 352.000 322.382,352.675 323.045,353.500 323.362 C 355.484 324.123,355.448 321.614,353.432 318.536 C 351.975 316.313,352.002 316.070,353.808 315.103 C 357.026 313.381,361.895 304.749,363.642 297.668 C 365.019 292.086,365.106 289.754,364.177 283.254 C 362.337 270.384,361.798 267.545,360.997 266.500 C 360.576 265.950,359.924 264.065,359.549 262.311 C 359.069 260.063,358.223 259.030,356.684 258.811 C 353.947 258.421,353.802 255.595,356.500 255.229 C 357.816 255.051,359.265 256.076,360.738 258.229 C 363.223 261.860,375.892 275.087,386.216 284.831 C 390.230 288.619,393.614 291.028,394.641 290.831 C 396.664 290.441,397.584 291.462,383.598 278.579 C 378.271 273.673,371.867 266.937,369.366 263.610 C 366.866 260.284,363.848 256.894,362.660 256.077 C 361.472 255.260,360.050 254.037,359.500 253.358 C 358.950 252.680,357.150 251.984,355.500 251.812 C 352.914 251.543,352.526 251.121,352.688 248.750 C 352.792 247.238,352.454 246.000,351.938 246.000 C 351.422 246.000,351.000 244.923,351.000 243.607 C 351.000 242.291,350.275 240.936,349.389 240.596 C 348.088 240.096,347.898 240.456,348.401 242.462 C 349.278 245.955,346.864 244.850,345.148 240.971 C 344.418 239.323,343.036 237.555,342.077 237.041 C 340.607 236.255,340.333 236.558,340.333 238.974 C 340.333 240.842,341.059 242.243,342.417 242.996 C 345.037 244.450,349.000 250.514,349.000 253.069 C 349.000 255.843,347.121 255.448,345.974 252.433 C 345.254 250.537,344.507 250.022,343.118 250.463 C 341.931 250.839,341.020 250.495,340.650 249.530 C 340.245 248.476,340.675 248.000,342.031 248.000 C 343.114 248.000,344.000 247.550,344.000 247.000 C 344.000 246.450,342.875 246.000,341.500 246.000 C 340.125 246.000,339.000 246.466,339.000 247.035 C 339.000 247.711,338.393 247.745,337.250 247.134 C 336.288 246.619,333.357 245.876,330.737 245.483 C 326.595 244.862,326.055 244.980,326.594 246.385 C 327.667 249.180,324.028 248.242,320.929 244.924 C 318.835 242.682,317.505 242.022,316.028 242.491 C 313.961 243.147,313.177 241.627,315.000 240.500 C 316.369 239.654,316.264 235.281,314.854 234.410 C 314.048 233.911,313.905 234.486,314.373 236.351 C 314.874 238.346,314.663 239.000,313.519 239.000 C 312.684 239.000,312.000 239.675,312.000 240.500 C 312.000 241.944,310.884 242.415,308.261 242.077 C 307.580 241.989,306.150 242.384,305.084 242.955 C 303.524 243.790,302.503 243.455,299.867 241.246 C 298.064 239.736,296.935 239.066,297.358 239.757 C 298.744 242.023,295.156 242.268,292.395 240.096 C 289.021 237.442,285.401 237.359,284.731 239.920 C 284.360 241.341,284.875 242.003,286.710 242.463 C 288.075 242.806,289.752 242.621,290.438 242.052 C 291.793 240.927,293.000 241.626,293.000 243.535 C 293.000 244.781,286.907 246.215,281.250 246.301 C 279.462 246.328,278.000 246.721,278.000 247.175 C 278.000 247.629,277.100 248.000,276.000 248.000 C 273.536 248.000,273.451 247.126,275.750 245.428 C 277.152 244.392,277.252 243.883,276.250 242.867 C 275.353 241.958,274.694 241.906,273.918 242.682 C 272.786 243.814,267.000 241.648,267.000 240.093 C 267.000 238.557,268.352 238.047,269.624 239.103 C 270.344 239.700,271.504 239.999,272.203 239.766 C 272.901 239.533,271.079 238.140,268.154 236.671 C 265.229 235.202,262.760 234.041,262.668 234.091 C 262.576 234.141,260.025 234.836,257.000 235.635 M392.164 236.236 C 390.461 237.939,390.725 238.707,393.250 239.403 C 395.341 239.979,400.000 245.961,400.000 248.069 C 400.000 248.581,400.337 249.001,400.750 249.002 C 401.163 249.003,401.559 251.496,401.631 254.542 C 401.715 258.087,402.345 260.724,403.381 261.869 C 405.291 263.980,405.545 267.346,403.750 266.756 C 403.063 266.530,402.363 265.198,402.195 263.796 C 401.895 261.282,397.000 255.601,397.000 257.767 C 397.000 258.380,397.450 259.160,398.001 259.500 C 398.551 259.840,399.504 262.117,400.119 264.559 C 400.734 267.002,401.634 269.000,402.119 269.000 C 402.603 269.000,403.000 269.873,403.000 270.941 C 403.000 272.009,403.450 273.160,404.000 273.500 C 404.550 273.840,405.000 274.991,405.000 276.059 C 405.000 277.127,405.626 278.000,406.392 278.000 C 407.157 278.000,408.090 279.238,408.466 280.750 C 408.841 282.262,410.092 284.511,411.245 285.746 C 412.398 286.981,413.003 288.331,412.589 288.744 C 412.175 289.158,411.261 288.710,410.558 287.748 C 409.855 286.787,408.992 286.000,408.640 286.000 C 407.566 286.000,407.928 289.838,409.068 290.542 C 409.656 290.905,409.916 291.777,409.646 292.479 C 409.377 293.182,409.547 294.149,410.025 294.628 C 410.955 295.563,411.232 301.598,410.568 306.500 C 410.345 308.150,410.126 309.837,410.081 310.250 C 410.037 310.663,409.550 311.000,409.000 311.000 C 408.450 311.000,408.000 309.186,408.000 306.969 C 408.000 304.308,407.490 302.742,406.500 302.362 C 405.640 302.032,405.000 300.539,405.000 298.862 C 405.000 297.253,404.395 295.705,403.656 295.421 C 402.695 295.053,402.281 292.584,402.206 286.775 C 402.098 278.504,400.877 274.802,393.966 261.802 C 392.885 259.768,392.000 257.405,392.000 256.552 C 392.000 255.698,391.487 255.000,390.860 255.000 C 389.360 255.000,387.072 251.931,387.032 249.863 C 387.011 248.795,385.872 248.055,383.750 247.732 C 381.962 247.460,380.356 247.365,380.181 247.521 C 379.480 248.145,382.565 252.000,383.765 252.000 C 384.472 252.000,385.461 253.081,385.963 254.403 C 386.466 255.724,387.358 257.103,387.945 257.466 C 388.533 257.830,389.714 259.481,390.570 261.135 C 391.831 263.575,391.887 264.431,390.865 265.662 C 389.747 267.009,389.458 266.980,388.303 265.399 C 387.586 264.419,386.992 262.916,386.983 262.059 C 386.973 261.201,385.848 259.440,384.483 258.145 C 383.117 256.850,381.997 255.275,381.992 254.645 C 381.981 253.015,374.416 248.903,372.665 249.575 C 371.861 249.884,370.904 249.654,370.540 249.065 C 370.176 248.475,368.784 248.267,367.448 248.602 C 365.739 249.031,364.836 248.736,364.402 247.606 C 363.778 245.978,359.609 245.446,356.582 246.607 C 353.743 247.696,354.916 249.000,358.750 249.015 C 362.986 249.033,365.571 250.267,364.614 251.816 C 363.939 252.907,367.744 254.590,368.707 253.626 C 369.013 253.321,370.172 253.557,371.283 254.152 C 372.996 255.068,373.204 254.974,372.651 253.533 C 372.292 252.598,372.336 252.007,372.749 252.219 C 373.162 252.432,375.225 253.391,377.333 254.351 C 380.555 255.818,380.968 256.334,379.925 257.590 C 379.065 258.627,378.366 258.766,377.642 258.042 C 376.563 256.963,369.000 256.556,369.000 257.577 C 369.000 257.894,370.246 259.400,371.770 260.924 C 374.041 263.195,374.874 263.496,376.398 262.597 C 377.793 261.774,378.371 261.812,378.712 262.750 C 378.962 263.438,379.810 264.000,380.597 264.000 C 382.359 264.000,385.517 265.813,388.653 268.625 C 390.987 270.719,390.995 270.785,389.153 273.059 C 387.377 275.253,387.309 279.000,389.045 279.000 C 389.492 279.000,390.536 279.678,391.365 280.508 C 392.253 281.396,393.119 281.616,393.473 281.044 C 393.803 280.510,393.146 279.146,392.014 278.014 C 390.357 276.357,390.165 275.560,391.032 273.939 C 391.626 272.831,391.831 271.041,391.488 269.962 C 391.145 268.883,391.297 268.000,391.826 268.000 C 392.889 268.000,394.315 270.675,394.490 273.000 C 394.855 277.850,396.365 284.000,397.190 284.000 C 397.720 284.000,398.075 285.688,397.980 287.750 C 397.572 296.565,397.933 298.783,399.750 298.639 C 401.218 298.522,401.548 299.516,401.799 304.800 C 402.007 309.173,402.542 311.271,403.549 311.657 C 405.429 312.379,405.427 314.000,403.545 314.000 C 402.679 314.000,401.829 315.394,401.444 317.446 C 400.622 321.827,401.515 324.510,402.460 320.500 C 403.653 315.439,403.950 314.851,404.993 315.496 C 407.120 316.810,405.408 326.518,402.436 330.000 C 401.732 330.825,400.847 332.738,400.470 334.250 C 399.810 336.891,398.000 338.131,398.000 335.941 C 398.000 335.359,397.550 335.160,397.000 335.500 C 396.450 335.840,396.000 337.006,396.000 338.092 C 396.000 339.178,394.771 342.414,393.269 345.283 C 390.683 350.224,390.520 350.351,390.197 347.690 C 390.009 346.144,390.422 344.197,391.113 343.363 C 392.133 342.135,392.101 341.680,390.944 340.965 C 388.688 339.571,387.904 341.237,387.381 348.544 C 387.035 353.381,386.401 355.718,385.197 356.601 C 383.767 357.650,383.377 357.517,382.720 355.753 C 382.124 354.156,381.662 353.938,380.770 354.830 C 380.126 355.474,378.453 356.006,377.050 356.014 C 373.475 356.033,370.000 357.069,370.000 358.117 C 370.000 358.602,372.448 359.000,375.441 359.000 C 378.434 359.000,381.160 359.450,381.500 360.000 C 382.659 361.875,385.829 361.006,387.885 358.250 C 389.013 356.738,389.951 356.081,389.968 356.792 C 390.004 358.231,389.717 358.624,384.013 364.956 C 379.342 370.142,379.120 371.000,382.449 371.000 C 385.440 371.000,390.989 365.389,390.995 362.358 C 390.999 360.610,391.873 360.035,395.750 359.226 C 398.953 358.559,399.627 358.198,397.820 358.118 C 395.860 358.032,395.042 357.395,394.778 355.750 C 394.333 352.972,403.962 334.001,405.817 334.000 C 406.700 334.000,406.931 334.742,406.516 336.250 C 405.914 338.437,405.940 338.445,407.448 336.559 C 409.416 334.097,409.440 332.000,407.500 332.000 C 406.675 332.000,406.000 331.731,406.000 331.401 C 406.000 330.036,409.290 324.000,410.034 324.000 C 411.511 324.000,412.239 317.993,410.950 316.440 C 409.968 315.257,410.040 314.614,411.308 313.212 C 413.169 311.155,414.058 304.408,414.330 290.260 C 414.497 281.607,414.293 280.058,413.014 280.260 C 411.917 280.434,411.558 279.700,411.710 277.593 C 411.851 275.637,410.916 273.419,408.851 270.812 C 406.908 268.359,405.971 266.220,406.295 264.981 C 406.578 263.897,405.978 261.971,404.951 260.664 C 403.495 258.814,403.354 258.029,404.297 257.028 C 405.235 256.031,405.225 255.649,404.250 255.292 C 402.815 254.765,402.536 252.000,403.918 252.000 C 404.424 252.000,405.779 253.463,406.930 255.250 C 408.081 257.038,410.184 259.400,411.602 260.500 C 413.021 261.600,415.718 264.035,417.597 265.910 C 419.476 267.786,421.310 269.023,421.673 268.660 C 422.036 268.297,421.881 268.000,421.327 268.000 C 420.774 268.000,419.842 266.948,419.256 265.662 C 418.670 264.376,414.998 259.881,411.095 255.672 C 407.193 251.463,404.000 247.606,404.000 247.100 C 404.000 246.594,401.599 243.681,398.664 240.626 C 394.606 236.403,393.049 235.351,392.164 236.236 M396.551 236.271 C 396.819 236.970,398.022 237.983,399.225 238.521 C 400.427 239.060,403.857 242.425,406.846 246.000 C 409.835 249.575,414.047 254.525,416.207 257.000 C 418.366 259.475,421.086 263.188,422.250 265.250 C 423.415 267.313,424.766 269.000,425.252 269.000 C 425.737 269.000,425.877 269.811,425.563 270.802 C 425.248 271.794,425.653 273.481,426.464 274.552 C 427.274 275.624,427.951 275.964,427.968 275.309 C 427.986 274.654,427.565 273.849,427.033 273.520 C 426.501 273.191,426.331 271.597,426.655 269.977 C 427.078 267.858,426.814 266.866,425.712 266.443 C 424.870 266.120,423.893 264.709,423.541 263.308 C 422.849 260.551,412.532 246.008,410.341 244.700 C 409.603 244.260,409.000 243.221,409.000 242.391 C 409.000 241.561,408.546 241.163,407.991 241.506 C 406.216 242.603,403.485 241.091,401.660 238.001 C 399.948 235.103,395.528 233.607,396.551 236.271 M175.272 247.035 C 168.280 259.421,163.959 268.451,164.433 269.687 C 165.075 271.359,168.000 271.411,168.001 269.750 C 168.002 269.063,170.244 264.057,172.984 258.628 C 175.725 253.198,177.711 248.341,177.397 247.834 C 177.084 247.327,177.359 246.272,178.008 245.490 C 178.658 244.707,179.002 243.505,178.773 242.819 C 178.544 242.132,176.969 244.030,175.272 247.035 M161.906 249.915 C 159.379 252.437,156.722 255.625,156.000 257.000 C 155.279 258.375,153.255 261.300,151.501 263.500 C 149.748 265.700,147.274 269.698,146.003 272.384 C 144.732 275.070,142.940 277.464,142.021 277.705 C 139.823 278.279,138.238 282.935,137.399 291.278 C 137.025 295.006,136.331 298.295,135.859 298.587 C 135.387 298.879,135.032 301.004,135.071 303.309 L 135.141 307.500 137.074 303.146 C 138.137 300.751,139.874 295.404,140.935 291.264 C 142.256 286.105,143.781 282.755,145.779 280.618 C 147.383 278.903,150.190 274.463,152.018 270.751 C 153.845 267.039,156.164 263.257,157.170 262.346 C 158.177 261.435,159.000 260.130,159.000 259.445 C 159.000 258.761,160.800 255.805,163.000 252.877 C 165.200 249.949,167.000 246.979,167.000 246.277 C 167.000 244.713,167.418 244.414,161.906 249.915 M249.804 245.529 C 248.718 246.615,251.027 251.773,252.813 252.251 C 253.741 252.499,256.642 256.481,259.259 261.101 C 267.568 275.764,288.212 304.023,296.175 311.633 C 301.580 316.799,314.871 327.000,316.196 327.000 C 316.740 327.000,318.329 327.900,319.727 329.000 C 321.126 330.100,322.997 330.990,323.885 330.978 C 325.079 330.961,324.849 330.446,323.000 329.000 C 321.625 327.924,320.145 327.034,319.710 327.022 C 317.194 326.951,295.386 308.024,289.985 301.223 C 286.611 296.975,283.148 292.636,282.290 291.580 C 276.534 284.501,257.738 255.072,255.923 250.296 C 255.442 249.033,254.525 248.000,253.885 248.000 C 253.245 248.000,252.209 247.300,251.583 246.444 C 250.957 245.588,250.157 245.177,249.804 245.529 M240.734 251.092 C 241.052 252.305,242.816 255.583,244.656 258.376 C 246.495 261.169,248.000 264.279,248.000 265.286 C 248.000 267.752,246.350 266.579,244.342 262.687 C 241.604 257.377,236.556 251.315,235.240 251.753 C 233.626 252.291,233.634 253.990,235.250 254.033 C 236.493 254.066,245.473 267.156,247.629 272.078 C 248.250 273.495,250.163 276.255,251.879 278.210 C 253.596 280.165,255.000 282.022,255.000 282.338 C 255.000 282.654,256.426 285.294,258.168 288.206 C 259.911 291.118,262.164 295.172,263.175 297.216 C 264.264 299.417,265.541 300.730,266.306 300.436 C 267.063 300.146,268.529 301.596,269.846 303.939 C 271.082 306.139,273.872 310.189,276.047 312.940 C 279.787 317.672,281.077 320.572,279.113 319.833 C 278.083 319.446,271.771 311.745,269.241 307.787 C 268.287 306.295,266.614 304.945,265.524 304.787 C 263.733 304.528,257.738 297.116,253.238 289.597 C 252.282 288.000,249.574 284.278,247.221 281.325 C 242.594 275.521,239.000 269.613,239.000 267.814 C 239.000 267.195,237.819 265.140,236.375 263.247 C 234.931 261.354,233.750 258.724,233.750 257.403 C 233.750 256.081,233.409 255.000,232.992 255.000 C 231.652 255.000,231.137 260.451,232.339 261.916 C 233.310 263.100,233.031 263.215,230.629 262.617 C 227.905 261.938,227.847 261.990,229.493 263.636 C 231.140 265.283,231.126 265.409,229.216 266.116 C 227.651 266.695,226.904 268.484,225.852 274.180 C 224.203 283.107,224.053 306.748,225.624 310.101 C 226.814 312.639,231.039 326.026,231.014 327.178 C 230.990 328.302,238.161 339.966,240.923 343.296 C 246.969 350.587,256.833 359.221,258.171 358.395 C 258.669 358.086,254.954 353.521,249.915 348.249 C 242.468 340.460,239.931 336.963,236.372 329.582 C 228.540 313.342,226.028 300.197,228.043 286.000 C 228.707 281.325,229.531 275.333,229.875 272.685 L 230.500 267.870 233.651 271.185 C 235.383 273.008,237.858 276.079,239.151 278.009 C 249.071 292.827,277.917 324.661,281.000 324.194 C 281.825 324.069,283.818 325.212,285.428 326.733 C 287.039 328.255,290.462 331.075,293.035 333.000 C 295.609 334.925,300.141 338.378,303.107 340.673 C 309.754 345.816,318.629 350.356,320.574 349.610 C 321.800 349.140,321.755 348.737,320.291 347.026 C 319.336 345.912,317.868 344.998,317.028 344.996 C 315.346 344.991,307.655 341.273,303.927 338.662 C 300.953 336.578,303.103 336.485,307.050 338.526 C 308.672 339.365,310.000 339.627,310.000 339.107 C 310.000 337.991,303.797 334.000,302.062 334.000 C 298.855 334.000,284.000 321.769,284.000 319.128 C 284.000 318.227,282.225 315.604,280.055 313.301 C 277.885 310.997,275.355 307.624,274.434 305.806 C 273.513 303.988,272.183 301.825,271.478 301.000 C 269.040 298.144,255.000 269.493,255.000 267.374 C 255.000 266.203,254.325 264.685,253.500 264.000 C 252.675 263.315,252.000 261.965,252.000 261.000 C 252.000 260.035,251.325 258.685,250.500 258.000 C 249.675 257.315,249.000 255.515,249.000 254.000 C 249.000 250.391,246.600 248.257,244.500 250.000 C 243.344 250.959,242.674 250.974,241.579 250.065 C 240.406 249.092,240.258 249.271,240.734 251.092 M161.580 263.413 C 160.711 264.836,159.214 267.238,158.254 268.750 C 157.293 270.262,155.952 272.625,155.272 274.000 C 154.593 275.375,153.627 277.175,153.126 278.000 C 152.624 278.825,151.725 280.738,151.128 282.250 C 149.913 285.330,148.014 285.932,147.973 283.250 C 147.926 280.212,142.029 295.227,140.805 301.500 C 140.161 304.800,139.357 307.837,139.018 308.249 C 138.194 309.250,139.017 316.000,139.963 316.000 C 140.372 316.000,140.990 312.738,141.336 308.750 C 141.964 301.524,144.544 293.056,146.808 290.792 C 148.494 289.106,148.408 293.262,146.683 296.800 C 145.959 298.285,145.260 301.300,145.129 303.500 C 144.999 305.700,144.436 308.948,143.879 310.719 C 143.222 312.806,143.205 314.544,143.832 315.664 C 144.637 317.102,144.981 316.732,145.893 313.445 C 146.496 311.275,146.991 308.559,146.994 307.410 C 147.005 303.631,151.006 289.565,152.495 288.077 C 155.093 285.479,155.410 287.898,153.179 293.282 C 150.468 299.823,150.445 301.229,153.101 298.000 L 155.158 295.500 154.394 298.500 C 153.974 300.150,153.646 302.698,153.667 304.162 C 153.691 305.918,153.270 306.657,152.429 306.334 C 151.029 305.797,149.000 308.888,149.000 311.557 C 149.000 312.998,149.237 313.048,150.615 311.904 C 152.014 310.744,152.182 310.819,151.865 312.461 C 151.664 313.504,151.156 314.165,150.736 313.929 C 149.748 313.374,146.817 318.996,147.353 320.417 C 147.578 321.013,148.314 320.150,148.989 318.500 C 150.216 315.503,150.218 315.503,151.277 317.785 C 152.090 319.537,151.948 320.887,150.668 323.569 C 148.676 327.747,148.568 329.086,150.250 328.750 C 151.057 328.589,151.609 330.005,151.807 332.750 C 152.039 335.956,152.531 336.999,153.807 336.997 C 155.292 336.995,155.490 335.738,155.421 326.747 C 155.371 320.392,155.799 315.740,156.546 314.500 C 157.208 313.400,158.290 310.256,158.949 307.513 C 159.608 304.771,160.503 302.071,160.936 301.513 C 161.370 300.956,162.034 299.150,162.412 297.500 C 163.480 292.843,167.408 283.000,168.200 283.000 C 168.590 283.000,169.181 281.313,169.512 279.250 C 169.844 277.188,170.323 274.488,170.577 273.250 C 171.275 269.847,169.418 270.556,167.957 274.250 C 167.249 276.038,166.087 278.191,165.373 279.037 C 164.660 279.882,163.392 283.257,162.556 286.537 C 158.730 301.545,157.665 305.000,156.862 305.000 C 155.425 305.000,155.867 295.355,157.360 294.116 C 158.108 293.495,158.518 291.927,158.270 290.631 C 158.022 289.335,158.760 286.431,159.910 284.177 C 162.149 279.788,162.590 277.000,161.045 277.000 C 160.520 277.000,159.788 278.611,159.419 280.580 C 158.822 283.762,156.695 286.029,155.463 284.796 C 155.215 284.549,157.046 279.254,159.531 273.031 C 163.949 261.971,164.745 258.231,161.580 263.413 M439.060 265.888 C 440.127 268.097,441.000 270.799,441.000 271.893 C 441.000 272.987,441.438 274.153,441.973 274.483 C 442.508 274.814,443.428 276.877,444.018 279.068 C 445.275 283.736,443.669 286.514,440.681 284.841 C 438.761 283.767,438.423 285.023,440.164 286.764 C 440.803 287.403,441.249 289.990,441.154 292.511 C 441.058 295.032,441.451 297.973,442.025 299.047 C 442.758 300.416,442.746 301.607,441.985 303.028 C 440.655 305.513,438.990 304.755,439.712 301.994 C 440.000 300.891,439.728 299.377,439.107 298.629 C 438.486 297.881,437.752 295.071,437.477 292.384 C 437.201 289.698,436.834 286.503,436.663 285.285 C 436.491 284.066,434.818 281.732,432.946 280.097 C 429.005 276.656,427.592 276.872,430.913 280.407 C 433.180 282.821,434.768 287.515,435.510 294.000 C 435.730 295.925,436.203 299.300,436.562 301.500 C 436.920 303.700,437.440 312.430,437.717 320.901 C 438.270 337.818,437.233 344.000,433.840 344.000 C 432.828 344.000,432.000 344.450,432.000 345.000 C 432.000 345.550,432.675 346.000,433.500 346.000 C 435.521 346.000,435.401 347.676,433.296 348.854 C 431.857 349.660,431.775 350.212,432.774 352.404 C 434.046 355.195,436.350 356.077,435.314 353.376 C 434.942 352.408,435.342 351.388,436.304 350.850 C 437.203 350.347,437.660 349.278,437.337 348.436 C 437.018 347.605,437.417 346.155,438.223 345.213 C 440.411 342.655,445.000 332.874,445.000 330.768 C 445.000 329.757,445.634 327.933,446.410 326.715 C 447.372 325.203,447.928 320.534,448.160 312.000 C 448.458 301.027,448.306 299.531,446.913 299.756 C 445.032 300.060,443.267 296.516,443.548 293.000 C 443.815 289.659,445.515 285.500,446.615 285.500 C 447.644 285.500,447.614 285.155,446.019 278.500 C 444.577 272.480,439.964 262.752,438.310 262.241 C 437.582 262.016,437.873 263.431,439.060 265.888 M218.705 275.564 C 216.399 280.965,215.798 284.148,215.265 293.803 C 214.601 305.816,214.625 311.518,215.366 318.500 C 215.600 320.700,215.838 323.288,215.896 324.250 C 215.953 325.212,216.661 326.000,217.469 326.000 C 218.302 326.000,218.710 326.593,218.411 327.371 C 218.122 328.125,218.586 329.011,219.443 329.340 C 220.299 329.668,221.000 330.607,221.000 331.425 C 221.000 332.243,222.350 335.202,224.000 338.000 C 225.650 340.798,227.000 343.703,227.000 344.454 C 227.000 346.840,234.655 355.610,238.143 357.220 C 241.705 358.865,251.000 360.531,251.000 359.526 C 251.000 358.670,242.164 355.000,240.105 355.000 C 239.154 355.000,237.484 353.762,236.394 352.250 C 233.972 348.892,226.716 333.864,225.089 328.838 C 224.437 326.825,223.250 324.926,222.452 324.620 C 221.653 324.313,221.000 323.374,221.000 322.531 C 221.000 320.701,222.156 320.556,223.783 322.183 C 224.434 322.834,225.255 323.079,225.607 322.726 C 226.735 321.598,225.125 318.998,222.735 318.089 C 220.304 317.165,217.125 314.000,218.628 314.000 C 219.107 314.000,219.571 306.848,219.658 298.107 C 219.744 289.366,220.249 281.378,220.780 280.357 C 222.117 277.783,223.303 268.998,222.311 269.011 C 221.865 269.017,220.242 271.966,218.705 275.564 M207.065 277.378 C 206.073 279.232,205.898 283.726,206.334 296.158 C 206.650 305.146,207.215 314.034,207.591 315.910 C 208.171 318.808,208.028 319.225,206.637 318.691 C 204.419 317.840,204.579 319.194,207.069 322.360 C 208.368 324.012,208.906 325.722,208.513 326.958 C 207.838 329.086,209.179 332.202,212.135 335.376 C 214.402 337.808,214.787 335.584,212.638 332.473 C 211.889 331.388,210.980 328.475,210.618 326.000 C 209.464 318.107,208.971 304.136,209.827 303.607 C 210.282 303.326,210.362 300.824,210.006 298.047 C 209.595 294.844,209.836 291.628,210.664 289.249 C 212.472 284.059,212.404 280.908,210.500 281.638 C 208.699 282.330,208.524 280.876,210.207 279.193 C 211.150 278.250,211.081 277.652,209.892 276.463 C 208.529 275.100,208.233 275.196,207.065 277.378 M417.765 286.622 C 417.483 287.105,417.635 290.597,418.103 294.382 C 418.571 298.168,418.725 301.635,418.445 302.088 C 418.165 302.541,419.076 303.659,420.468 304.571 C 423.016 306.240,423.755 308.416,422.118 309.427 C 421.632 309.727,420.057 309.046,418.618 307.914 C 415.495 305.457,415.175 306.782,417.530 312.418 C 419.002 315.941,421.000 316.496,421.000 313.382 C 421.000 312.557,421.359 312.104,421.798 312.375 C 422.237 312.646,422.711 316.930,422.853 321.895 C 423.113 331.040,422.051 336.174,417.947 345.615 C 416.416 349.135,416.359 349.931,417.553 351.125 C 418.747 352.319,418.734 353.232,417.465 357.451 C 416.621 360.255,416.357 362.757,416.853 363.253 C 417.564 363.964,418.675 361.154,419.390 356.833 C 419.754 354.634,421.144 355.114,422.065 357.758 C 422.656 359.453,423.783 361.087,424.570 361.388 C 426.196 362.012,426.516 366.563,425.000 367.500 C 424.450 367.840,424.000 369.216,424.000 370.559 C 424.000 372.988,424.987 373.679,426.417 372.250 C 426.829 371.837,427.579 371.500,428.083 371.500 C 429.127 371.500,429.202 370.689,428.361 368.498 C 428.039 367.660,428.292 366.353,428.922 365.594 C 429.887 364.431,430.682 364.511,433.974 366.101 C 437.277 367.697,438.008 368.634,438.706 372.166 C 439.610 376.734,442.004 378.676,441.994 374.833 C 441.983 370.229,439.891 365.086,437.058 362.703 C 435.473 361.368,434.023 359.202,433.838 357.888 C 433.422 354.949,431.688 355.087,430.972 358.117 C 430.682 359.346,429.826 360.558,429.071 360.810 C 428.013 361.162,427.845 360.526,428.340 358.052 C 428.693 356.283,428.517 353.966,427.948 352.903 C 427.173 351.455,427.256 350.839,428.280 350.446 C 429.145 350.114,429.733 348.016,429.883 344.723 C 430.014 341.864,430.712 338.844,431.434 338.012 C 432.156 337.180,433.207 334.925,433.769 333.000 C 434.851 329.295,434.730 308.396,433.620 307.287 C 431.925 305.592,430.623 309.651,430.432 317.230 C 430.317 321.778,429.498 328.875,428.612 333.000 C 427.727 337.125,427.001 341.867,427.001 343.538 C 427.000 345.456,425.910 347.851,424.041 350.038 C 420.961 353.640,420.318 352.888,421.933 347.571 C 424.985 337.518,427.544 307.307,425.608 304.175 C 425.266 303.621,425.428 302.005,425.968 300.584 C 426.753 298.519,426.650 298.000,425.454 298.000 C 424.631 298.000,423.439 296.862,422.805 295.472 C 422.002 293.708,421.422 293.318,420.887 294.182 C 420.437 294.912,420.157 294.173,420.208 292.385 C 420.300 289.138,418.615 285.163,417.765 286.622 M0.484 410.000 C 0.484 475.725,0.604 502.612,0.750 469.750 C 0.896 436.887,0.896 383.112,0.750 350.250 C 0.604 317.387,0.484 344.275,0.484 410.000 M455.000 299.378 C 455.000 300.135,454.325 301.315,453.500 302.000 C 452.378 302.931,452.001 305.421,452.003 311.872 C 452.008 324.978,447.066 341.374,441.644 346.244 C 439.425 348.238,438.889 349.289,439.687 350.087 C 440.872 351.272,445.000 349.713,445.000 348.081 C 445.000 347.615,445.958 346.983,447.130 346.676 C 448.641 346.281,449.070 345.624,448.606 344.415 C 447.890 342.551,450.703 338.698,452.134 339.583 C 452.610 339.877,453.000 341.216,453.000 342.559 C 453.000 343.902,453.450 345.000,454.000 345.000 C 454.550 345.000,455.000 343.425,455.000 341.500 C 455.000 339.575,454.534 338.000,453.965 338.000 C 453.251 338.000,453.251 337.399,453.965 336.066 C 454.551 334.971,455.000 327.402,455.000 318.625 C 455.000 309.366,455.403 302.869,456.000 302.500 C 456.550 302.160,457.000 302.359,457.000 302.941 C 457.000 303.523,457.520 304.000,458.155 304.000 C 458.822 304.000,458.570 303.182,457.557 302.063 C 456.593 300.998,456.100 299.648,456.461 299.063 C 456.822 298.478,456.641 298.000,456.059 298.000 C 455.477 298.000,455.000 298.620,455.000 299.378 M395.000 302.917 C 395.000 303.421,395.563 304.062,396.250 304.341 C 397.193 304.723,397.213 305.053,396.329 305.684 C 394.341 307.104,393.639 311.956,395.041 314.577 C 396.011 316.390,396.063 317.567,395.248 319.250 C 394.648 320.488,393.910 323.750,393.606 326.500 C 393.303 329.250,392.759 333.188,392.397 335.250 C 391.993 337.551,392.130 339.000,392.753 339.000 C 393.783 339.000,395.356 335.271,395.046 333.564 C 394.637 331.312,396.173 328.000,397.626 328.000 C 398.663 328.000,399.003 327.451,398.607 326.418 C 398.273 325.548,398.000 319.698,398.000 313.418 C 398.000 303.935,397.746 302.000,396.500 302.000 C 395.675 302.000,395.000 302.413,395.000 302.917 M475.464 308.750 C 476.819 312.247,477.264 320.144,476.227 322.295 C 474.348 326.196,473.000 331.218,473.000 334.320 C 473.000 335.983,472.383 338.053,471.629 338.921 C 470.177 340.594,468.675 353.000,469.925 353.000 C 470.547 353.000,472.397 346.290,474.612 336.000 C 474.908 334.625,475.555 332.600,476.049 331.500 C 476.543 330.400,477.182 327.475,477.470 325.000 C 479.292 309.317,479.305 308.807,477.898 307.916 C 475.691 306.519,474.727 306.849,475.464 308.750 M484.771 314.600 C 484.478 315.095,484.385 317.360,484.564 319.633 C 484.743 321.907,484.503 325.057,484.031 326.633 L 483.172 329.500 483.086 326.250 C 482.990 322.620,481.044 321.720,480.923 325.250 C 480.831 327.967,480.818 328.026,477.582 340.263 C 474.496 351.932,474.446 352.487,476.896 347.984 C 477.945 346.055,479.507 344.562,480.396 344.639 C 482.253 344.800,482.573 343.358,480.810 342.770 C 479.925 342.475,479.861 340.849,480.560 336.437 C 481.808 328.555,483.490 329.699,483.538 338.462 C 483.576 345.408,481.964 349.155,479.319 348.273 C 478.113 347.871,478.775 352.743,480.032 353.520 C 481.368 354.346,487.000 346.374,487.000 343.656 C 487.000 342.250,487.635 340.740,488.412 340.300 C 489.624 339.613,489.626 338.935,488.427 335.500 C 486.768 330.750,486.637 327.086,487.996 323.511 C 488.766 321.484,488.574 320.077,487.147 317.296 C 486.133 315.319,485.064 314.106,484.771 314.600 M418.253 320.878 C 417.242 323.637,416.753 324.040,415.592 323.077 C 414.394 322.082,414.074 322.969,413.561 328.698 C 412.818 337.003,411.622 344.421,409.645 352.990 C 408.821 356.560,408.328 359.662,408.550 359.883 C 409.654 360.987,411.914 357.403,412.452 353.692 C 412.787 351.387,413.691 347.250,414.461 344.500 C 415.231 341.750,416.375 337.025,417.004 334.000 C 417.632 330.975,418.598 327.311,419.150 325.857 C 419.702 324.404,420.005 321.929,419.823 320.357 L 419.492 317.500 418.253 320.878 M231.517 363.430 C 233.176 363.574,236.101 364.174,238.017 364.765 C 239.933 365.355,243.620 366.125,246.212 366.475 C 252.480 367.321,268.619 372.602,272.758 375.159 C 276.946 377.748,281.212 386.118,281.341 392.000 C 281.707 408.689,265.088 441.676,254.000 446.269 C 242.450 451.054,208.829 450.917,189.500 446.007 C 179.516 443.471,170.138 437.350,170.032 433.300 C 170.014 432.640,169.342 431.731,168.537 431.281 C 164.386 428.958,161.686 411.819,162.175 390.903 C 162.496 377.237,162.778 375.120,164.679 372.132 C 167.361 367.916,173.686 364.080,179.808 362.956 C 183.747 362.233,221.692 362.581,231.517 363.430 M173.984 368.250 C 169.270 371.453,167.061 378.625,166.307 393.181 C 165.750 403.930,166.162 407.938,168.652 415.972 C 169.043 417.236,169.232 417.243,169.988 416.020 C 170.472 415.236,170.588 414.143,170.246 413.589 C 169.904 413.036,169.579 406.839,169.525 399.817 C 169.445 389.599,169.710 386.941,170.855 386.502 C 172.846 385.738,173.508 386.682,172.139 388.333 C 170.914 389.808,171.663 396.000,173.066 396.000 C 174.654 396.000,175.155 393.892,173.922 392.406 C 172.882 391.152,173.035 390.804,174.836 390.333 C 176.026 390.021,177.079 388.919,177.175 387.883 C 177.750 381.699,177.993 380.116,178.923 376.500 C 180.403 370.748,180.279 366.000,178.648 366.000 C 177.904 366.000,175.805 367.012,173.984 368.250 M339.454 377.926 C 339.806 378.495,341.275 378.495,343.257 377.926 C 347.630 376.672,374.493 376.766,385.000 378.072 C 389.675 378.653,396.425 379.497,400.000 379.948 C 407.039 380.836,422.664 384.388,427.500 386.199 C 432.618 388.117,438.797 392.392,439.924 394.797 C 440.516 396.060,441.000 399.503,441.000 402.448 C 441.000 408.923,437.600 428.956,435.560 434.500 C 434.750 436.700,434.068 439.061,434.044 439.747 C 433.948 442.480,426.484 456.203,424.556 457.191 C 423.425 457.770,421.375 459.259,420.000 460.499 C 414.906 465.094,408.224 466.306,391.107 465.738 C 372.645 465.125,363.985 463.839,350.556 459.717 C 342.172 457.143,339.947 456.000,336.376 452.428 C 331.637 447.690,328.997 442.804,325.608 432.500 C 318.092 409.650,318.386 394.837,326.532 386.000 C 328.306 384.075,329.952 381.856,330.189 381.069 C 330.427 380.282,332.169 379.079,334.060 378.395 C 338.398 376.828,338.756 376.796,339.454 377.926 M143.365 382.250 C 142.880 382.938,141.715 385.075,140.775 387.000 C 138.463 391.737,137.733 408.206,139.629 412.872 C 141.257 416.876,141.404 420.000,139.965 420.000 C 139.264 420.000,139.252 420.603,139.930 421.869 C 140.480 422.896,140.622 424.045,140.245 424.421 C 139.869 424.798,140.413 424.779,141.454 424.379 C 142.923 423.816,143.210 424.009,142.737 425.244 C 142.380 426.174,142.738 427.069,143.601 427.400 C 146.061 428.344,146.382 425.193,144.648 417.121 C 143.741 412.904,143.000 405.147,143.000 399.882 C 143.000 388.645,144.007 387.000,150.888 387.000 C 153.629 387.000,154.886 386.625,154.459 385.933 C 154.096 385.347,153.570 385.096,153.290 385.377 C 153.010 385.657,151.039 384.787,148.910 383.443 C 144.408 380.601,144.510 380.623,143.365 382.250 M199.985 387.408 C 191.148 389.014,190.673 389.403,191.254 394.561 C 191.521 396.926,191.272 399.328,190.702 399.898 C 189.987 400.613,190.164 401.126,191.276 401.552 C 192.554 402.043,192.686 402.696,191.915 404.724 C 190.640 408.078,191.345 408.656,193.205 405.781 C 194.083 404.425,194.595 401.581,194.468 398.766 C 194.331 395.712,194.751 393.622,195.652 392.874 C 196.420 392.237,200.861 390.728,205.521 389.522 C 218.103 386.265,214.290 384.809,199.985 387.408 M216.000 387.193 C 216.000 387.967,216.501 389.101,217.113 389.713 C 218.660 391.260,217.228 393.434,215.569 392.057 C 213.757 390.554,213.000 391.794,213.000 396.262 C 213.000 401.491,216.062 405.639,221.018 407.124 C 224.177 408.070,225.255 408.033,226.580 406.933 C 227.484 406.183,229.712 405.698,231.532 405.854 C 234.442 406.105,235.039 405.721,236.490 402.662 C 237.398 400.749,237.996 397.683,237.820 395.849 C 237.444 391.926,235.238 390.592,225.759 388.554 C 222.316 387.814,218.713 386.888,217.750 386.497 C 216.576 386.020,216.000 386.249,216.000 387.193 M151.527 393.750 C 152.531 398.775,152.136 412.877,150.928 415.134 C 149.778 417.283,149.956 427.000,151.145 427.000 C 152.812 427.000,155.006 419.576,155.807 411.223 C 156.607 402.891,155.974 397.193,153.698 392.250 C 152.040 388.650,150.694 389.580,151.527 393.750 M364.802 395.679 C 362.578 396.265,361.760 402.619,362.894 410.500 C 363.561 415.141,363.924 415.990,364.495 414.250 C 365.349 411.646,366.069 411.572,371.500 413.529 C 377.493 415.688,379.331 415.352,383.458 411.344 C 387.061 407.845,387.203 407.458,386.775 402.302 C 386.268 396.192,387.062 395.062,389.880 397.880 C 390.954 398.954,392.032 399.635,392.275 399.392 C 393.021 398.645,402.367 403.010,404.699 405.194 C 405.933 406.350,407.579 406.992,408.449 406.658 C 410.524 405.862,410.403 405.016,407.740 401.688 C 404.203 397.269,394.405 395.038,379.000 395.145 C 372.125 395.193,365.736 395.433,364.802 395.679 M452.105 403.373 C 451.478 404.129,451.245 405.475,451.587 406.365 C 451.956 407.326,451.608 408.213,450.729 408.550 C 448.897 409.254,448.483 422.890,450.153 427.531 C 451.060 430.053,450.866 431.441,448.999 435.781 C 447.764 438.652,446.359 441.000,445.877 441.000 C 444.535 441.000,444.823 449.774,446.180 450.227 C 446.943 450.481,447.069 451.305,446.537 452.560 C 445.646 454.660,444.937 463.982,444.998 472.805 C 445.024 476.647,446.723 474.330,447.455 469.454 C 447.832 466.940,448.737 464.654,449.467 464.374 C 450.486 463.983,450.690 461.638,450.348 454.258 C 450.102 448.974,449.665 444.268,449.377 443.800 C 449.088 443.333,449.447 443.074,450.176 443.225 C 451.075 443.412,451.500 442.376,451.500 440.000 C 451.500 438.075,451.913 435.858,452.418 435.074 C 452.923 434.289,453.386 428.261,453.447 421.677 C 453.554 410.274,453.664 409.668,455.779 408.886 C 458.412 407.912,458.516 407.182,456.443 404.223 C 454.641 401.649,453.690 401.463,452.105 403.373 M143.685 429.701 C 143.409 430.147,143.282 432.448,143.403 434.814 C 143.524 437.180,143.332 439.295,142.977 439.514 C 141.384 440.499,143.137 455.073,145.647 461.707 C 146.555 464.107,146.965 467.005,146.600 468.457 C 146.212 470.003,146.384 471.000,147.040 471.000 C 147.633 471.000,147.896 471.359,147.625 471.798 C 147.354 472.237,147.545 473.249,148.051 474.048 C 148.745 475.145,148.973 474.853,148.985 472.857 C 148.993 471.403,149.675 469.955,150.500 469.638 C 152.705 468.792,152.461 462.441,150.162 460.807 C 147.938 459.226,146.556 454.393,148.061 453.462 C 148.765 453.027,148.550 452.161,147.433 450.926 C 145.616 448.918,145.224 439.447,146.824 436.191 C 148.191 433.406,147.652 429.565,145.843 429.213 C 144.932 429.035,143.961 429.254,143.685 429.701 M147.721 478.250 C 148.015 479.488,148.807 480.952,149.482 481.504 C 151.652 483.280,152.177 486.680,150.534 488.323 C 148.576 490.282,148.566 491.381,150.514 490.633 C 151.635 490.203,152.033 490.759,152.049 492.776 C 152.061 494.274,152.092 498.988,152.118 503.250 C 152.152 508.978,152.509 511.000,153.484 511.000 C 154.887 511.000,156.698 522.062,155.589 523.856 C 155.261 524.386,155.874 526.874,156.951 529.386 C 158.782 533.656,158.798 534.018,157.204 534.975 C 155.652 535.907,155.642 536.110,157.094 537.249 C 157.970 537.937,159.023 540.300,159.433 542.500 C 159.843 544.700,160.622 547.036,161.162 547.690 C 161.703 548.345,162.024 549.695,161.875 550.690 C 161.726 551.686,162.183 554.205,162.892 556.289 C 164.306 560.445,163.257 562.994,160.128 563.007 C 158.374 563.014,151.838 566.968,153.500 567.016 C 154.929 567.058,143.756 576.950,142.250 576.977 C 141.563 576.990,141.000 577.450,141.000 578.000 C 141.000 578.550,140.373 579.000,139.607 579.000 C 138.841 579.000,137.963 579.654,137.657 580.453 C 137.112 581.872,129.670 585.978,127.562 586.022 C 126.978 586.034,125.375 586.960,124.000 588.080 L 121.500 590.115 125.000 589.483 C 128.745 588.807,132.117 587.326,138.500 583.558 C 140.700 582.259,142.747 581.348,143.050 581.533 C 143.352 581.719,145.553 580.325,147.940 578.435 C 150.328 576.546,152.841 575.000,153.524 575.000 C 154.208 575.000,156.295 573.313,158.163 571.250 C 162.461 566.504,166.483 563.865,168.335 564.575 C 171.044 565.615,172.111 577.000,169.500 577.000 C 168.675 577.000,167.995 577.563,167.989 578.250 C 167.978 579.352,165.128 580.969,158.500 583.630 C 156.933 584.260,157.409 584.507,160.698 584.772 C 163.866 585.027,164.759 585.464,164.341 586.555 C 164.036 587.350,164.284 588.000,164.893 588.000 C 165.502 588.000,166.004 586.987,166.008 585.750 C 166.013 584.317,166.944 583.069,168.573 582.313 C 171.058 581.160,171.113 581.210,170.486 584.063 C 169.748 587.424,171.845 588.307,172.710 585.000 C 172.998 583.900,173.631 583.000,174.117 583.000 C 174.602 583.000,175.000 582.270,175.000 581.378 C 175.000 580.029,175.260 579.971,176.542 581.035 C 179.312 583.334,179.965 580.725,177.803 576.000 C 176.670 573.525,175.351 571.350,174.872 571.167 C 174.392 570.983,174.000 570.238,174.000 569.511 C 174.000 568.252,173.291 566.617,168.071 555.835 C 166.028 551.616,165.077 547.655,164.929 542.750 C 164.900 541.788,164.454 541.000,163.938 541.000 C 163.422 541.000,162.995 539.763,162.989 538.250 C 162.983 536.737,162.352 533.436,161.586 530.914 C 160.821 528.391,159.870 523.216,159.474 519.414 C 159.077 515.611,158.337 511.701,157.828 510.725 C 157.319 509.749,156.684 504.799,156.415 499.725 C 156.147 494.651,155.797 489.262,155.639 487.750 C 155.480 486.238,155.271 484.152,155.175 483.117 C 155.079 482.081,154.100 480.998,153.000 480.710 C 151.803 480.397,151.000 479.346,151.000 478.094 C 151.000 476.701,150.362 476.000,149.094 476.000 C 147.625 476.000,147.310 476.517,147.721 478.250 M0.000 585.000 C 0.000 615.433,0.236 640.097,0.525 639.808 C 1.190 639.143,1.158 530.825,0.493 530.159 C 0.222 529.888,0.000 554.567,0.000 585.000 M135.043 562.613 C 135.977 565.071,135.887 565.188,133.518 564.594 C 132.133 564.246,131.000 564.359,131.000 564.844 C 131.000 565.329,128.071 565.961,124.490 566.249 C 120.910 566.536,117.299 567.337,116.466 568.028 C 115.633 568.719,114.662 568.995,114.307 568.640 C 113.952 568.286,112.848 568.732,111.853 569.633 C 110.858 570.533,108.888 571.397,107.474 571.552 C 106.061 571.707,104.251 572.377,103.452 573.040 C 102.654 573.703,101.993 573.852,101.985 573.372 C 101.976 572.893,101.639 573.018,101.235 573.650 C 100.067 575.478,96.447 575.763,96.800 574.000 C 96.964 573.175,96.012 573.737,94.683 575.250 C 93.354 576.763,91.293 578.000,90.102 578.000 C 88.911 578.000,87.678 578.675,87.362 579.500 C 87.045 580.325,86.239 581.000,85.570 581.000 C 84.902 581.000,81.575 582.347,78.177 583.992 C 74.109 585.963,71.995 587.585,71.985 588.742 C 71.972 590.246,71.827 590.283,70.985 589.000 C 70.340 588.017,69.741 587.860,69.250 588.544 C 68.326 589.831,56.051 598.000,55.042 598.000 C 54.640 598.000,53.004 599.156,51.406 600.569 C 49.807 601.981,45.688 604.489,42.250 606.141 C 38.813 607.793,36.000 609.548,36.000 610.041 C 36.000 611.576,46.760 607.120,50.880 603.879 C 52.194 602.846,54.039 602.000,54.980 602.000 C 55.920 602.000,57.505 601.100,58.500 600.000 C 59.495 598.900,61.365 598.000,62.655 598.000 C 64.014 598.000,65.000 597.403,65.000 596.579 C 65.000 595.798,66.371 594.858,68.048 594.490 C 69.724 594.121,71.632 592.961,72.288 591.910 C 72.944 590.860,73.870 590.000,74.346 590.000 C 74.821 590.000,77.210 588.650,79.655 587.000 C 82.100 585.350,84.923 584.000,85.928 584.000 C 86.933 584.000,88.291 583.354,88.947 582.564 C 89.602 581.775,91.426 580.846,93.000 580.500 C 94.574 580.154,96.406 579.215,97.072 578.413 C 97.738 577.611,99.071 577.205,100.036 577.511 C 101.007 577.820,102.551 577.306,103.498 576.359 C 104.438 575.419,105.948 574.567,106.853 574.464 C 107.759 574.362,109.175 574.023,110.000 573.711 C 116.361 571.308,123.966 568.986,124.712 569.218 C 126.083 569.647,139.000 565.607,139.000 564.750 C 139.000 564.337,138.580 564.000,138.067 564.000 C 137.554 564.000,136.849 563.100,136.500 562.000 C 136.151 560.900,135.457 560.000,134.957 560.000 C 134.435 560.000,134.472 561.111,135.043 562.613 M141.500 569.884 C 139.850 570.225,136.152 571.741,133.283 573.252 C 130.414 574.763,126.953 576.000,125.592 576.000 C 124.231 576.000,122.840 576.450,122.500 577.000 C 122.160 577.550,120.994 578.000,119.910 578.000 C 118.825 578.000,117.675 578.683,117.355 579.518 C 117.035 580.352,116.261 580.922,115.636 580.783 C 114.031 580.427,108.000 583.064,108.000 584.121 C 108.000 584.605,107.529 585.000,106.952 585.000 C 106.376 585.000,104.862 586.125,103.588 587.500 C 102.313 588.875,100.590 590.000,99.758 590.000 C 97.957 590.000,95.738 592.405,96.675 593.342 C 97.037 593.704,96.808 594.000,96.167 594.000 C 94.500 594.000,94.381 594.025,90.768 595.119 C 86.719 596.346,84.222 597.016,81.000 597.737 C 79.625 598.045,77.375 599.193,76.000 600.288 L 73.500 602.278 76.500 601.592 C 78.150 601.214,80.356 600.649,81.401 600.337 C 82.838 599.908,83.154 600.156,82.695 601.353 C 82.361 602.223,82.477 603.177,82.953 603.471 C 84.382 604.354,86.911 602.931,86.379 601.544 C 86.041 600.664,87.983 599.685,92.493 598.464 C 96.410 597.404,99.489 595.954,100.051 594.905 C 100.572 593.932,101.898 592.850,102.999 592.500 C 104.100 592.151,105.000 591.221,105.000 590.433 C 105.000 589.645,105.675 589.000,106.500 589.000 C 107.325 589.000,108.000 588.561,108.000 588.025 C 108.000 587.489,110.025 586.127,112.500 585.000 C 114.975 583.873,117.000 582.511,117.000 581.975 C 117.000 581.439,118.125 581.000,119.500 581.000 C 120.875 581.000,122.000 580.425,122.000 579.722 C 122.000 578.860,123.300 578.516,125.984 578.666 C 128.390 578.800,130.541 578.316,131.413 577.444 C 132.207 576.650,133.452 575.997,134.179 575.993 C 134.905 575.990,136.822 575.115,138.438 574.050 C 140.053 572.985,141.694 572.311,142.083 572.551 C 142.472 572.792,143.060 572.285,143.390 571.425 C 143.803 570.350,144.655 570.073,146.120 570.538 C 147.554 570.993,148.027 570.853,147.566 570.107 C 146.838 568.929,146.225 568.907,141.500 569.884 M179.500 584.000 C 179.160 584.550,179.178 585.478,179.539 586.063 C 179.900 586.648,179.440 587.962,178.515 588.983 C 176.933 590.731,176.953 590.905,178.851 591.920 C 181.521 593.349,182.000 593.285,182.000 591.500 C 182.000 589.436,183.635 589.609,184.356 591.750 C 185.209 594.284,188.557 599.853,190.552 602.058 C 191.498 603.102,192.323 604.979,192.386 606.228 C 192.464 607.788,193.633 609.054,196.114 610.267 C 199.672 612.007,199.738 612.150,200.409 619.552 C 201.126 627.475,201.740 630.000,202.948 630.000 C 203.352 630.000,203.377 627.985,203.003 625.522 C 202.630 623.059,202.500 619.072,202.716 616.663 C 203.036 613.081,202.641 611.727,200.554 609.246 C 199.149 607.577,198.000 605.741,198.000 605.166 C 198.000 604.592,196.200 602.042,194.000 599.500 C 191.800 596.958,190.000 594.217,190.000 593.408 C 190.000 592.599,189.362 591.693,188.583 591.394 C 187.804 591.095,185.998 589.084,184.569 586.925 C 181.937 582.948,180.620 582.188,179.500 584.000 M135.000 589.289 C 133.625 589.991,130.475 591.200,128.000 591.977 C 125.525 592.753,122.427 594.201,121.115 595.194 C 119.803 596.187,117.427 597.000,115.833 597.000 C 114.240 597.000,111.444 597.623,109.621 598.385 C 107.797 599.147,103.987 600.089,101.153 600.479 C 96.999 601.050,96.000 601.557,96.000 603.094 C 96.000 605.022,97.087 605.579,98.362 604.304 C 99.097 603.569,100.614 603.153,105.500 602.347 C 107.150 602.074,109.175 601.586,110.000 601.262 C 111.823 600.546,111.497 600.648,116.971 599.082 C 119.430 598.379,122.343 597.173,123.443 596.402 C 124.544 595.631,126.190 595.000,127.100 595.000 C 128.010 595.000,129.320 594.319,130.011 593.487 C 130.702 592.655,131.769 592.051,132.383 592.145 C 132.998 592.239,134.287 592.019,135.250 591.658 C 136.213 591.296,137.675 590.789,138.500 590.531 C 140.312 589.965,140.507 587.998,138.750 588.006 C 138.063 588.010,136.375 588.587,135.000 589.289 M51.531 590.950 C 51.251 591.403,49.487 592.061,47.612 592.413 C 45.736 592.765,43.651 593.716,42.978 594.526 C 42.305 595.337,41.116 596.000,40.335 596.000 C 39.554 596.000,36.797 598.022,34.207 600.494 C 31.618 602.966,27.949 605.819,26.053 606.834 C 21.249 609.408,20.738 611.431,25.132 610.486 C 28.511 609.759,29.490 609.086,35.340 603.463 C 37.078 601.792,40.293 599.542,42.485 598.463 C 44.676 597.383,47.053 595.955,47.767 595.289 C 48.480 594.623,50.630 593.785,52.543 593.426 C 54.457 593.067,56.257 592.394,56.543 591.930 C 56.830 591.467,57.725 591.341,58.532 591.651 C 59.339 591.960,60.000 591.769,60.000 591.225 C 60.000 590.031,52.254 589.780,51.531 590.950 M373.681 617.633 C 369.457 621.281,366.000 624.625,366.000 625.065 C 366.000 625.505,365.212 626.119,364.250 626.429 C 363.288 626.739,359.326 630.032,355.448 633.747 C 342.704 645.950,335.681 652.000,334.258 652.000 C 333.488 652.000,332.182 652.675,331.357 653.500 C 330.532 654.325,329.085 655.000,328.140 655.000 C 327.196 655.000,323.965 655.914,320.962 657.031 L 315.500 659.062 321.000 658.414 C 324.025 658.059,326.650 657.370,326.833 656.884 C 327.017 656.398,328.148 656.000,329.348 656.000 C 331.798 656.000,338.461 652.667,341.500 649.921 C 342.600 648.928,345.525 646.358,348.000 644.211 C 371.774 623.585,384.786 611.000,382.336 611.000 C 381.801 611.000,377.906 613.985,373.681 617.633 M554.411 724.500 C 554.066 725.875,553.418 727.000,552.971 727.000 C 552.524 727.000,551.842 728.462,551.454 730.250 C 551.066 732.038,550.285 733.795,549.719 734.155 C 549.153 734.515,548.563 736.002,548.407 737.459 C 548.252 738.916,546.101 744.246,543.627 749.304 C 539.115 758.531,536.725 764.164,537.015 764.888 C 537.101 765.102,536.770 765.552,536.280 765.888 C 535.207 766.624,531.782 773.968,529.930 779.500 C 529.194 781.700,528.234 783.927,527.796 784.450 C 527.358 784.972,527.000 786.435,527.000 787.700 C 527.000 788.965,526.622 790.000,526.161 790.000 C 525.289 790.000,523.000 794.379,523.000 796.047 C 523.000 796.571,523.675 797.000,524.500 797.000 C 525.325 797.000,526.000 796.487,526.000 795.860 C 526.000 795.232,526.867 792.870,527.928 790.610 C 528.988 788.349,531.123 783.800,532.673 780.500 C 534.223 777.200,535.532 774.275,535.582 774.000 C 535.802 772.791,537.223 769.373,538.077 768.000 C 539.005 766.509,541.788 760.780,543.908 756.000 C 544.517 754.625,545.903 752.038,546.988 750.250 C 548.072 748.462,548.659 747.000,548.293 747.000 C 547.926 747.000,548.879 745.692,550.410 744.094 C 552.423 741.993,553.010 740.606,552.528 739.089 C 552.065 737.629,552.364 736.797,553.512 736.357 C 554.516 735.972,554.972 735.001,554.677 733.874 C 554.411 732.856,555.006 730.991,555.999 729.728 C 557.163 728.248,557.621 726.467,557.286 724.716 C 556.636 721.317,555.236 721.212,554.411 724.500 " stroke="none" fill="#000000" fill-rule="evenodd"/></svg>