<svg id="svg" version="1.1" width="600" height="800" xmlns="http://www.w3.org/2000/svg"><path d="M361.000 119.692 C 356.396 120.512,344.058 127.077,340.761 130.462 C 335.656 135.704,331.989 140.656,332.692 141.358 C 334.146 142.812,335.753 141.784,337.845 138.062 C 340.166 133.933,349.255 126.000,351.666 126.000 C 352.438 126.000,354.146 125.296,355.460 124.434 C 357.087 123.368,361.396 122.682,368.972 122.282 C 376.534 121.883,379.769 121.369,379.075 120.675 C 378.010 119.610,365.334 118.921,361.000 119.692 M357.199 141.986 C 355.384 142.416,353.677 142.989,353.407 143.259 C 353.137 143.529,358.223 143.949,364.708 144.193 C 373.127 144.508,377.415 145.116,379.700 146.317 C 381.461 147.243,384.048 148.000,385.450 148.000 C 386.853 148.000,388.000 148.429,388.000 148.953 C 388.000 149.477,389.933 150.762,392.297 151.807 C 396.955 153.868,407.033 161.220,410.924 165.398 C 412.258 166.829,413.892 168.000,414.556 168.000 C 415.219 168.000,416.986 169.605,418.482 171.566 C 419.978 173.527,421.434 174.899,421.718 174.615 C 422.634 173.699,411.680 161.375,405.496 156.365 C 398.145 150.410,397.189 149.869,387.178 146.009 C 375.395 141.464,365.186 140.095,357.199 141.986 M347.000 144.137 C 345.625 144.692,340.225 145.306,335.000 145.500 C 323.812 145.917,315.534 148.548,312.500 152.652 C 311.400 154.140,308.813 157.131,306.750 159.299 C 304.688 161.467,303.000 163.600,303.000 164.039 C 303.000 164.477,302.691 165.661,302.313 166.668 C 301.701 168.298,301.817 168.344,303.357 167.091 C 304.880 165.851,305.271 165.941,306.601 167.841 C 308.560 170.638,310.451 170.712,308.964 167.933 C 308.106 166.329,308.209 165.330,309.425 163.473 C 312.214 159.218,319.379 152.892,324.217 150.415 C 328.762 148.088,333.999 147.197,334.000 148.750 C 334.001 149.162,338.163 149.561,343.250 149.634 C 352.549 149.770,360.000 151.770,360.000 154.130 C 360.000 154.768,360.911 154.995,362.162 154.668 C 363.351 154.357,365.212 154.578,366.298 155.159 C 367.384 155.741,370.003 156.383,372.118 156.587 C 374.409 156.807,378.975 158.785,383.412 161.479 C 387.508 163.965,391.476 166.000,392.228 166.000 C 392.981 166.000,396.155 168.363,399.282 171.250 C 407.404 178.750,410.576 181.043,414.258 182.072 C 416.266 182.634,418.159 184.143,419.231 186.037 C 420.183 187.720,421.533 188.983,422.231 188.844 C 423.685 188.555,430.000 194.263,430.000 195.866 C 430.000 196.451,430.864 197.392,431.920 197.957 C 432.976 198.522,434.361 200.563,434.997 202.492 C 435.634 204.422,436.518 206.000,436.963 206.000 C 438.181 206.000,441.257 211.076,440.498 211.835 C 440.134 212.199,439.203 211.630,438.429 210.571 C 437.654 209.512,436.708 208.959,436.326 209.341 C 435.349 210.318,442.125 224.000,443.586 224.000 C 445.127 224.000,446.365 227.156,445.125 227.923 C 443.988 228.626,444.865 234.000,446.117 234.000 C 446.602 234.000,447.014 232.988,447.030 231.750 C 447.060 229.563,447.092 229.556,448.190 231.500 C 448.812 232.600,450.386 234.788,451.690 236.362 C 453.452 238.490,453.783 239.557,452.981 240.523 C 452.355 241.277,452.286 242.059,452.817 242.387 C 453.319 242.697,453.979 244.806,454.283 247.074 C 454.587 249.341,455.768 252.189,456.907 253.401 C 458.046 254.613,460.821 259.182,463.074 263.553 C 465.327 267.924,467.965 272.400,468.936 273.500 C 469.907 274.600,471.046 276.400,471.467 277.500 C 471.916 278.671,472.418 279.007,472.679 278.311 C 472.925 277.657,472.495 276.082,471.723 274.811 C 470.951 273.540,469.235 269.634,467.910 266.130 C 466.584 262.627,463.866 257.894,461.869 255.612 C 459.263 252.635,458.077 250.198,457.665 246.982 C 456.480 237.707,455.733 234.456,454.450 232.992 C 453.723 232.163,451.792 227.888,450.159 223.492 C 445.637 211.319,443.444 206.734,440.860 204.046 C 439.562 202.696,436.700 198.828,434.500 195.449 C 432.300 192.071,429.964 189.492,429.309 189.717 C 428.653 189.943,425.278 187.251,421.809 183.734 C 412.674 174.477,392.043 159.031,388.785 159.011 C 387.841 159.005,385.591 157.715,383.785 156.145 C 379.379 152.316,372.027 150.045,359.537 148.655 C 353.832 148.020,348.823 147.158,348.405 146.740 C 347.988 146.321,348.513 145.323,349.573 144.521 C 351.790 142.844,350.629 142.670,347.000 144.137 M270.888 160.356 C 266.118 162.091,249.588 171.019,249.182 172.080 C 248.579 173.652,239.491 179.635,233.637 182.311 C 228.030 184.876,216.441 192.992,209.000 199.566 C 207.075 201.267,202.952 204.328,199.838 206.368 C 189.783 212.956,176.752 226.233,166.577 240.257 C 161.292 247.540,155.395 255.525,153.472 258.000 C 151.549 260.475,147.267 267.958,143.958 274.628 C 138.783 285.058,137.806 287.928,136.978 295.128 C 135.519 307.815,135.690 314.000,137.500 314.000 C 138.613 314.000,139.000 315.172,139.000 318.548 C 139.000 321.050,139.900 324.959,141.000 327.236 C 142.100 329.513,143.000 332.135,143.000 333.062 C 143.000 336.375,146.126 343.527,148.434 345.496 C 149.726 346.598,152.380 350.476,154.333 354.113 C 159.355 363.466,158.034 367.500,148.959 370.514 C 144.235 372.083,141.139 374.472,142.311 375.644 C 143.417 376.750,148.155 374.936,150.632 372.459 C 153.906 369.185,154.345 369.347,153.558 373.544 C 152.614 378.575,153.614 380.763,157.846 382.922 C 161.061 384.562,161.950 384.640,164.616 383.519 L 167.685 382.229 167.211 392.056 C 166.450 407.868,169.232 427.159,173.639 436.623 C 177.656 445.249,183.898 448.542,203.000 452.116 C 213.115 454.008,218.934 454.458,233.500 454.477 C 249.976 454.498,252.135 454.291,259.000 452.034 C 265.748 449.815,267.273 448.791,274.212 441.819 C 278.454 437.557,282.861 432.232,284.007 429.986 C 285.153 427.740,286.745 425.651,287.545 425.344 C 288.345 425.037,289.000 424.029,289.000 423.104 C 289.000 422.180,289.915 419.640,291.034 417.461 C 292.529 414.550,292.901 412.495,292.439 409.710 C 292.027 407.226,292.332 404.812,293.322 402.710 C 294.154 400.944,295.160 397.700,295.558 395.500 L 296.283 391.500 294.141 393.405 C 292.964 394.453,292.000 396.090,292.000 397.044 C 292.000 397.998,291.115 399.841,290.033 401.139 C 288.134 403.420,288.065 403.429,288.033 401.428 C 287.978 397.974,291.030 390.202,292.693 389.564 C 293.551 389.235,294.843 389.454,295.563 390.052 C 296.496 390.827,297.446 390.832,298.870 390.069 C 301.406 388.712,306.421 388.711,311.302 390.067 C 317.094 391.675,318.699 395.173,319.468 407.870 C 319.822 413.716,320.504 420.516,320.984 422.980 L 321.856 427.460 319.905 424.980 C 318.832 423.616,317.216 421.301,316.312 419.835 C 315.409 418.370,313.506 416.598,312.085 415.899 L 309.500 414.627 312.921 414.064 C 317.563 413.299,317.859 411.439,313.564 410.021 C 309.136 408.560,300.020 410.216,297.566 412.927 C 295.987 414.672,296.121 414.791,300.372 415.429 C 302.828 415.797,305.378 416.751,306.041 417.549 C 306.703 418.347,307.781 419.000,308.435 419.000 C 310.488 419.000,314.508 424.161,319.925 433.750 C 323.255 439.646,325.758 443.001,326.825 443.003 C 327.833 443.006,329.695 445.236,331.500 448.605 C 335.728 456.493,339.485 459.417,349.198 462.377 C 359.053 465.381,366.873 466.608,384.875 467.973 C 403.709 469.402,418.174 467.736,425.241 463.323 C 431.193 459.605,436.827 447.808,442.055 428.114 C 443.717 421.851,445.735 415.789,446.539 414.641 C 447.342 413.494,448.000 410.445,448.000 407.866 C 448.000 403.858,448.447 402.802,451.077 400.589 C 453.037 398.940,455.360 398.000,457.479 398.000 C 460.275 398.000,460.971 398.478,461.850 401.000 C 463.127 404.661,464.569 404.855,465.416 401.479 C 466.221 398.273,464.296 394.304,462.707 395.893 C 460.863 397.737,460.000 397.153,460.000 394.059 C 460.000 390.660,458.825 389.672,454.914 389.783 C 449.971 389.924,452.729 387.294,458.300 386.555 C 465.528 385.596,469.504 382.866,471.577 377.438 C 472.518 374.973,472.997 372.664,472.641 372.308 C 472.285 371.951,472.687 370.600,473.536 369.305 C 474.925 367.185,474.925 366.731,473.539 364.753 C 471.437 361.751,471.608 358.780,474.000 356.732 C 475.974 355.042,476.596 351.034,476.079 343.350 C 475.962 341.618,476.347 339.904,476.933 339.541 C 477.520 339.179,477.990 337.896,477.978 336.691 C 477.956 334.527,477.933 334.530,476.071 336.952 C 472.943 341.022,469.979 354.290,469.470 366.500 C 469.136 374.526,467.724 379.000,465.525 379.000 C 464.686 379.000,463.996 379.337,463.992 379.750 C 463.982 380.750,458.917 383.066,457.991 382.494 C 457.590 382.247,456.971 380.217,456.613 377.984 C 456.256 375.751,455.297 373.668,454.482 373.355 C 453.667 373.042,453.000 372.178,453.000 371.436 C 453.000 369.720,446.733 364.665,443.757 363.980 C 442.389 363.665,440.668 361.821,439.386 359.294 C 437.977 356.517,436.939 355.461,436.272 356.128 C 434.699 357.701,428.653 355.717,428.032 353.424 C 427.257 350.563,424.781 347.473,422.613 346.663 C 420.980 346.053,420.809 345.262,421.339 340.789 C 421.905 336.006,421.829 335.742,420.316 337.255 C 419.417 338.155,418.567 339.961,418.428 341.269 C 418.288 342.577,417.435 345.415,416.532 347.574 C 414.893 351.492,414.886 351.495,413.195 349.356 C 412.263 348.178,410.488 346.910,409.250 346.539 C 405.803 345.507,406.367 348.733,409.994 350.797 C 411.908 351.886,412.990 353.303,412.994 354.729 C 412.999 356.727,413.252 356.842,415.437 355.847 C 417.484 354.914,418.599 355.161,422.403 357.390 C 424.894 358.850,428.126 361.610,429.585 363.522 C 432.413 367.230,434.000 367.941,434.000 365.500 C 434.000 364.675,434.240 364.000,434.533 364.000 C 435.546 364.000,442.000 370.937,442.000 372.026 C 442.000 372.626,442.468 372.829,443.041 372.475 C 443.613 372.121,443.791 370.916,443.436 369.798 C 442.124 365.663,445.503 368.595,448.250 373.974 C 451.618 380.569,451.785 383.774,448.817 384.872 C 446.729 385.644,438.832 384.378,431.000 382.015 C 406.723 374.689,364.923 371.651,341.813 375.531 C 333.902 376.860,330.822 377.872,327.446 380.251 C 322.669 383.618,320.458 383.878,311.000 382.181 C 307.425 381.540,302.108 381.012,299.184 381.008 C 292.987 380.999,290.935 380.104,285.500 375.039 C 282.481 372.226,280.029 371.000,275.500 370.041 C 272.200 369.342,268.150 368.388,266.500 367.920 C 251.556 363.685,228.760 360.075,216.683 360.032 C 208.485 360.002,207.908 359.867,208.468 358.102 C 209.100 356.110,204.958 349.082,201.087 345.578 C 197.748 342.557,198.485 345.762,202.500 351.724 C 207.207 358.713,207.090 360.000,201.750 360.000 C 197.016 360.000,183.789 362.347,179.970 363.863 C 176.380 365.289,172.203 369.578,170.550 373.536 C 169.614 375.776,167.844 377.583,165.488 378.707 C 162.254 380.249,161.585 380.277,159.254 378.967 C 156.670 377.515,154.440 372.464,155.966 371.521 C 156.879 370.957,162.678 373.670,163.539 375.063 C 163.858 375.578,164.654 375.986,165.309 375.968 C 165.967 375.951,165.716 375.341,164.750 374.608 C 163.788 373.877,163.000 372.632,163.000 371.840 C 163.000 371.048,162.472 369.872,161.827 369.227 C 160.930 368.330,160.930 367.449,161.827 365.480 C 163.136 362.608,163.410 356.349,162.250 355.833 C 160.879 355.224,156.136 347.540,155.486 344.875 C 155.134 343.432,153.780 341.765,152.477 341.171 C 150.898 340.452,149.717 338.659,148.937 335.796 C 148.293 333.433,146.703 328.707,145.404 325.293 C 144.105 321.879,142.921 316.601,142.771 313.564 C 142.563 309.317,142.154 308.094,141.000 308.271 C 139.182 308.549,138.347 304.253,139.915 302.685 C 140.512 302.088,141.000 299.735,141.000 297.457 C 141.000 287.801,151.889 266.220,163.627 252.613 C 165.578 250.351,168.008 246.925,169.027 245.000 C 170.045 243.075,171.918 240.313,173.189 238.862 C 174.460 237.411,176.601 234.486,177.946 232.362 C 180.977 227.576,196.475 213.375,202.360 209.992 C 204.760 208.612,208.587 205.799,210.864 203.742 C 213.142 201.684,215.383 200.000,215.843 200.000 C 216.304 200.000,220.621 196.400,225.438 192.000 C 233.350 184.774,236.000 182.908,236.000 184.566 C 236.000 185.520,233.738 189.441,232.576 190.500 C 231.973 191.050,230.359 192.774,228.990 194.331 L 226.500 197.163 229.250 196.473 C 232.275 195.714,232.911 196.999,230.500 199.000 C 228.841 200.377,228.398 204.490,230.016 203.490 C 230.575 203.144,230.772 202.440,230.453 201.924 C 230.134 201.408,230.577 200.716,231.437 200.386 C 232.296 200.056,233.000 199.005,233.000 198.051 C 233.000 196.914,234.291 195.928,236.750 195.189 C 238.813 194.569,242.075 192.591,244.000 190.793 C 245.925 188.996,248.249 187.069,249.164 186.512 C 250.080 185.956,253.379 183.984,256.495 182.131 C 260.364 179.830,261.836 178.436,261.136 177.736 C 258.920 175.520,245.755 183.087,239.970 189.903 C 235.455 195.221,234.394 195.102,237.231 189.596 C 240.519 183.214,247.831 177.574,254.804 176.042 C 264.586 173.892,270.979 171.775,270.420 170.870 C 269.457 169.312,266.021 169.944,258.840 173.000 C 251.205 176.249,250.000 176.523,250.000 175.009 C 250.000 173.917,267.442 164.935,273.000 163.164 C 274.925 162.551,278.412 161.926,280.748 161.775 C 283.085 161.624,284.850 161.050,284.670 160.500 C 284.170 158.972,274.956 158.876,270.888 160.356 M283.500 164.023 C 277.704 164.723,272.000 166.422,272.000 167.448 C 272.000 167.722,276.169 167.673,281.265 167.338 C 289.115 166.822,290.738 166.979,291.888 168.365 C 292.634 169.264,293.693 170.000,294.240 170.000 C 294.788 170.000,296.785 171.360,298.678 173.022 C 303.105 176.909,305.372 175.789,301.121 171.815 C 299.404 170.211,298.000 168.523,298.000 168.064 C 298.000 166.998,294.103 164.437,291.500 163.793 C 290.400 163.521,286.800 163.624,283.500 164.023 M279.193 174.205 C 276.887 175.978,275.000 178.085,275.000 178.888 C 275.000 179.963,275.611 179.775,277.314 178.174 C 279.091 176.506,280.863 176.000,284.937 176.000 C 289.542 176.000,290.080 176.199,289.000 177.500 C 288.315 178.325,286.550 179.000,285.078 179.000 C 283.605 179.000,281.858 179.542,281.196 180.204 C 280.016 181.384,276.286 182.588,264.731 185.521 C 261.558 186.327,256.833 188.072,254.231 189.399 C 248.478 192.333,241.215 198.509,242.260 199.577 C 242.679 200.005,244.254 199.174,245.760 197.731 C 250.699 193.003,265.673 186.484,263.493 190.012 C 263.149 190.568,260.535 192.526,257.684 194.363 C 254.833 196.201,249.529 200.490,245.897 203.895 C 240.494 208.961,239.379 210.533,239.764 212.543 C 240.022 213.894,240.409 215.000,240.623 215.000 C 241.494 215.000,256.000 203.610,256.000 202.926 C 256.000 201.789,252.210 203.042,250.910 204.608 C 250.275 205.374,249.080 206.000,248.256 206.000 C 245.914 206.000,248.800 202.222,253.122 199.630 C 255.075 198.458,258.434 196.335,260.586 194.912 C 267.100 190.603,282.119 183.179,290.510 180.120 C 297.996 177.391,301.234 175.000,297.444 175.000 C 296.496 175.000,295.221 174.377,294.610 173.615 C 294.000 172.853,291.224 171.949,288.443 171.606 C 283.813 171.035,283.033 171.254,279.193 174.205 M277.988 192.352 C 276.070 193.646,271.307 196.580,267.404 198.874 C 260.026 203.209,255.171 207.504,256.333 208.667 C 256.704 209.038,258.019 208.437,259.254 207.332 C 262.619 204.323,268.011 201.340,272.500 200.004 C 279.039 198.059,290.120 196.219,292.129 196.744 C 295.915 197.734,293.435 201.984,289.050 202.022 C 287.647 202.034,284.538 202.934,282.141 204.022 C 279.743 205.110,276.812 206.000,275.627 206.000 C 274.441 206.000,271.003 206.938,267.986 208.084 C 264.969 209.231,261.600 210.413,260.500 210.712 C 259.400 211.011,258.050 211.788,257.500 212.440 C 255.880 214.358,252.732 215.185,251.938 213.900 C 251.435 213.086,250.124 213.566,247.608 215.485 C 243.521 218.603,242.855 220.588,246.250 219.536 C 251.650 217.862,253.000 217.782,253.040 219.133 C 253.062 219.885,253.751 219.262,254.572 217.750 C 255.899 215.304,257.682 214.433,260.366 214.920 C 260.843 215.007,262.193 214.472,263.366 213.732 C 266.382 211.830,272.712 210.172,278.098 209.872 C 283.242 209.586,287.192 211.879,288.465 215.889 C 288.914 217.303,289.557 217.843,290.122 217.278 C 291.516 215.884,288.381 209.256,285.964 208.489 C 284.311 207.964,284.131 207.547,285.070 206.416 C 285.716 205.637,286.813 205.000,287.508 205.000 C 289.714 205.000,293.906 202.390,296.024 199.696 L 298.072 197.093 295.666 195.517 C 292.941 193.732,288.411 193.268,285.626 194.488 C 283.820 195.279,283.815 195.212,285.491 192.655 L 287.230 190.000 284.353 190.000 C 282.771 190.000,279.907 191.058,277.988 192.352 M436.059 248.585 C 436.026 249.731,437.350 251.872,439.000 253.342 C 440.650 254.813,442.000 256.911,442.000 258.005 C 442.000 259.100,443.575 262.188,445.500 264.867 C 447.425 267.547,449.000 270.418,449.000 271.247 C 449.000 272.965,451.794 280.000,452.476 280.000 C 452.723 280.000,452.659 276.962,452.334 273.250 C 451.880 268.057,451.197 265.911,449.372 263.945 C 447.923 262.385,447.000 260.170,447.000 258.254 C 447.000 254.972,445.830 253.690,442.618 253.453 C 440.800 253.320,440.108 252.652,437.309 248.337 C 436.180 246.596,436.115 246.609,436.059 248.585 M395.000 260.500 C 395.000 261.325,395.675 262.000,396.500 262.000 C 397.526 262.000,398.000 263.029,398.000 265.258 C 398.000 267.050,399.125 270.629,400.500 273.212 C 401.875 275.795,403.000 278.604,403.000 279.454 C 403.000 280.304,403.386 281.000,403.858 281.000 C 404.331 281.000,404.756 283.736,404.803 287.081 C 404.887 292.977,406.301 296.550,408.110 295.432 C 409.701 294.448,408.331 278.795,406.146 273.000 C 405.005 269.975,404.056 268.288,404.036 269.250 C 403.970 272.438,402.336 271.065,401.060 266.750 C 399.297 260.789,395.000 256.357,395.000 260.500 M409.250 267.662 C 406.859 268.627,408.023 269.980,411.759 270.578 C 414.028 270.940,417.250 272.655,419.886 274.903 C 423.523 278.004,424.302 279.301,424.541 282.654 C 424.699 284.869,425.541 289.084,426.414 292.022 C 428.445 298.860,428.412 300.967,426.250 302.608 C 424.629 303.838,424.666 303.939,426.750 303.968 C 428.197 303.989,429.016 304.625,429.044 305.750 C 429.068 306.712,429.693 305.803,430.434 303.728 C 431.418 300.969,431.516 298.955,430.800 296.228 C 430.261 294.178,429.462 289.800,429.025 286.500 C 427.974 278.563,426.715 275.640,423.319 273.254 C 421.012 271.633,411.065 266.795,410.623 267.079 C 410.555 267.122,409.938 267.385,409.250 267.662 M461.000 268.399 C 461.000 269.334,461.713 271.479,462.585 273.165 C 463.640 275.204,463.836 276.564,463.172 277.228 C 461.656 278.744,460.030 277.237,457.953 272.390 C 456.178 268.251,454.721 267.024,453.645 268.766 C 453.384 269.187,453.869 271.999,454.721 275.016 C 455.573 278.032,457.192 284.040,458.320 288.367 C 459.974 294.714,460.525 295.812,461.176 294.053 C 462.539 290.369,463.999 292.816,464.015 298.809 C 464.037 306.941,468.651 319.952,470.999 318.501 C 472.270 317.715,471.096 314.811,468.735 312.905 C 467.131 311.610,466.708 309.866,466.486 303.619 C 466.222 296.179,464.616 290.000,462.946 290.000 C 461.424 290.000,460.936 286.235,462.121 283.634 C 462.771 282.207,464.135 280.774,465.152 280.452 C 467.839 279.599,467.409 276.157,463.982 271.100 C 462.234 268.520,461.000 267.403,461.000 268.399 M332.417 275.038 C 332.685 277.534,334.079 281.679,335.516 284.250 C 336.953 286.820,338.255 289.953,338.409 291.212 C 338.971 295.784,341.382 302.548,343.170 304.564 C 344.176 305.700,345.000 307.782,345.000 309.192 C 345.000 310.602,345.646 312.291,346.436 312.947 C 347.225 313.602,348.160 315.452,348.513 317.058 C 349.331 320.785,351.000 321.875,351.000 318.681 C 351.000 317.341,351.675 315.685,352.500 315.000 C 353.325 314.315,354.000 313.360,354.000 312.878 C 354.000 311.524,351.224 311.840,350.720 313.250 C 349.886 315.586,348.375 312.183,348.074 307.290 C 348.033 306.625,346.929 305.050,345.621 303.790 C 343.328 301.583,342.824 300.211,341.102 291.500 C 340.667 289.300,338.426 283.675,336.121 279.000 C 331.973 270.586,331.936 270.546,332.417 275.038 M259.977 283.617 C 261.651 286.753,263.561 289.971,264.221 290.766 C 265.583 292.407,266.535 293.970,269.795 299.913 C 271.917 303.782,274.430 305.904,275.555 304.778 C 276.335 303.998,271.861 294.714,269.905 293.051 C 268.901 292.198,266.912 289.137,265.486 286.248 C 263.863 282.961,261.778 280.419,259.913 279.455 L 256.934 277.915 259.977 283.617 M478.605 284.500 C 479.024 286.700,479.425 289.400,479.497 290.500 C 479.569 291.600,480.402 295.030,481.348 298.123 C 482.294 301.215,483.078 305.940,483.089 308.623 C 483.118 315.073,483.946 319.152,485.084 318.448 C 485.590 318.135,485.721 316.106,485.374 313.940 C 485.028 311.773,485.034 310.000,485.388 310.000 C 486.085 310.000,490.123 314.272,492.478 317.500 C 493.616 319.061,493.943 319.158,493.968 317.944 C 493.986 317.089,492.899 314.896,491.552 313.071 C 490.206 311.246,488.818 308.447,488.467 306.850 C 488.116 305.253,486.761 302.036,485.456 299.700 C 484.151 297.365,482.414 292.586,481.596 289.082 C 479.893 281.781,477.346 277.879,478.605 284.500 M599.468 353.000 C 599.468 384.625,599.595 397.562,599.749 381.750 C 599.904 365.937,599.904 340.062,599.749 324.250 C 599.595 308.437,599.468 321.375,599.468 353.000 M292.079 305.342 C 292.034 306.398,295.521 310.613,300.250 315.219 C 309.422 324.152,315.871 329.268,323.827 333.922 C 328.143 336.448,329.091 336.712,328.822 335.316 C 328.640 334.369,325.700 331.998,322.289 330.047 C 318.877 328.096,311.602 322.380,306.121 317.343 C 300.641 312.307,295.512 307.807,294.725 307.343 C 293.937 306.880,293.038 305.825,292.726 305.000 C 292.290 303.849,292.140 303.929,292.079 305.342 M278.000 309.802 C 278.000 310.282,279.800 313.188,282.000 316.260 C 286.196 322.120,287.548 326.523,284.337 323.872 C 282.912 322.696,282.745 322.714,283.166 324.000 C 283.437 324.825,284.540 325.950,285.618 326.500 C 286.697 327.050,289.586 329.106,292.039 331.068 C 301.960 339.004,322.292 351.041,323.588 349.746 C 324.695 348.638,323.069 347.211,316.535 343.557 C 312.989 341.574,309.828 339.531,309.510 339.017 C 309.193 338.502,305.155 335.594,300.538 332.553 C 295.920 329.513,291.856 326.121,291.505 325.017 C 291.155 323.912,288.873 320.671,286.434 317.814 C 283.995 314.957,282.000 312.271,282.000 311.845 C 282.000 311.419,281.100 310.589,280.000 310.000 C 278.900 309.411,278.000 309.322,278.000 309.802 M407.444 321.366 C 407.118 322.667,406.969 324.354,407.114 325.116 C 407.795 328.698,403.406 339.006,399.924 342.000 C 399.604 342.275,398.049 344.900,396.467 347.833 C 394.886 350.766,392.237 354.306,390.581 355.699 C 388.925 357.093,387.421 359.345,387.239 360.704 C 386.876 363.415,387.822 363.211,391.679 359.744 C 396.216 355.665,395.740 358.732,391.017 364.000 C 388.305 367.025,386.067 369.837,386.043 370.250 C 386.019 370.663,387.111 371.000,388.468 371.000 C 392.696 371.000,401.371 357.809,403.924 347.500 C 404.605 344.750,405.975 340.475,406.970 338.000 C 407.964 335.525,409.268 332.262,409.867 330.750 C 411.132 327.559,412.522 327.309,415.421 329.750 C 417.498 331.498,417.498 331.498,415.595 329.250 C 414.547 328.012,412.678 327.000,411.440 327.000 C 409.393 327.000,409.239 326.640,409.727 323.000 C 410.317 318.597,408.471 317.275,407.444 321.366 M487.750 320.689 C 486.425 321.036,486.000 322.193,486.000 325.457 C 486.000 328.806,485.589 329.874,484.154 330.250 C 482.755 330.615,482.158 332.039,481.690 336.116 C 481.351 339.077,480.779 342.512,480.420 343.750 C 480.012 345.157,480.197 346.000,480.916 346.000 C 481.547 346.000,482.471 344.988,482.969 343.750 C 483.705 341.917,483.885 341.838,483.937 343.323 C 484.050 346.579,487.358 344.770,488.195 340.994 C 489.091 336.949,488.386 332.643,486.971 333.518 C 485.410 334.483,485.855 332.365,487.500 331.000 C 488.325 330.315,489.000 328.431,489.000 326.812 C 489.000 325.193,489.466 322.998,490.035 321.934 C 491.084 319.975,490.888 319.869,487.750 320.689 M360.765 326.656 C 355.486 329.066,355.082 329.480,355.684 331.877 C 356.043 333.309,356.936 335.079,357.669 335.812 C 358.401 336.544,359.000 337.932,359.000 338.897 C 359.000 339.862,360.125 341.708,361.500 343.000 C 363.468 344.849,364.000 345.010,364.000 343.758 C 364.000 342.883,363.663 342.017,363.250 341.833 C 362.136 341.338,357.823 331.844,358.435 331.232 C 359.488 330.178,369.568 327.064,372.027 327.033 C 373.418 327.015,375.584 327.721,376.842 328.602 C 380.056 330.853,380.805 329.486,377.996 326.496 C 374.798 323.091,368.446 323.150,360.765 326.656 M234.000 328.941 C 234.000 329.459,234.422 330.143,234.939 330.462 C 235.455 330.781,237.333 333.620,239.112 336.771 C 244.752 346.759,251.112 353.786,260.195 360.064 C 263.327 362.229,266.137 364.000,266.438 364.000 C 266.740 364.000,262.129 359.163,256.191 353.250 C 249.678 346.763,243.632 339.628,240.948 335.259 C 237.028 328.877,234.000 326.124,234.000 328.941 M384.000 350.500 C 383.315 351.325,382.023 352.014,381.128 352.032 C 379.203 352.069,375.368 354.778,375.803 355.793 C 376.440 357.280,372.789 357.092,370.381 355.514 C 368.020 353.967,367.696 353.978,365.290 355.681 C 360.288 359.221,355.897 361.228,352.817 361.383 C 350.868 361.481,350.449 362.122,350.180 365.415 L 349.860 369.330 353.465 366.165 C 357.280 362.816,358.498 362.379,359.500 364.000 C 360.616 365.806,366.072 365.046,369.317 362.631 C 371.068 361.329,373.725 359.973,375.221 359.619 C 376.718 359.266,378.421 358.082,379.006 356.988 C 379.592 355.895,380.969 355.000,382.067 355.000 C 383.164 355.000,384.358 354.212,384.719 353.250 C 385.081 352.288,386.079 350.952,386.938 350.282 C 388.347 349.183,388.340 349.060,386.872 349.032 C 385.977 349.014,384.685 349.675,384.000 350.500 M231.500 364.944 C 247.525 366.879,270.845 372.253,276.504 375.315 C 284.506 379.645,287.337 384.563,287.178 393.858 C 287.118 397.380,286.570 401.773,285.960 403.622 C 285.349 405.471,285.033 407.775,285.255 408.742 C 285.582 410.160,285.917 409.969,286.991 407.750 C 288.464 404.704,291.710 403.780,290.503 406.750 C 290.112 407.712,289.448 409.625,289.029 411.000 C 287.807 415.002,282.381 426.317,280.637 428.500 C 279.412 430.032,278.841 430.202,278.195 429.226 C 277.177 427.687,275.151 429.704,272.539 434.858 C 269.665 440.528,262.810 446.562,256.910 448.617 C 248.524 451.536,217.482 451.266,203.000 448.148 C 184.958 444.263,178.471 440.116,175.419 430.518 C 173.150 423.381,171.327 400.061,172.124 388.360 C 173.395 369.699,176.423 366.622,195.178 364.934 C 201.405 364.374,206.950 363.745,207.500 363.537 C 209.674 362.713,216.187 363.095,231.500 364.944 M401.000 380.011 C 412.359 381.358,431.581 386.297,434.793 388.695 C 439.907 392.513,440.957 394.971,441.153 403.576 C 441.326 411.208,440.820 414.235,436.234 433.000 C 435.360 436.575,432.667 443.453,430.249 448.284 C 426.729 455.319,425.022 457.594,421.677 459.715 C 413.121 465.138,401.696 466.100,376.402 463.526 C 361.365 461.996,351.534 459.704,343.572 455.872 C 339.184 453.760,336.584 450.978,334.348 446.000 C 333.978 445.175,332.943 443.375,332.049 442.000 C 327.680 435.282,323.496 414.761,324.214 403.571 C 324.561 398.161,325.380 395.073,327.499 391.178 C 333.677 379.828,340.756 377.817,372.000 378.533 C 383.275 378.792,396.325 379.457,401.000 380.011 M152.578 387.914 C 148.987 391.882,149.494 404.614,154.115 426.500 C 154.866 430.054,154.857 432.314,154.086 434.315 C 152.686 437.943,152.690 445.552,154.092 448.172 C 154.692 449.294,155.374 453.202,155.607 456.856 C 156.542 471.543,157.412 475.282,162.388 486.000 C 164.241 489.990,164.518 490.223,164.834 488.054 C 165.183 485.658,164.111 481.195,161.408 473.798 C 160.664 471.762,159.757 466.362,159.393 461.798 C 159.028 457.234,158.397 453.050,157.991 452.500 C 156.594 450.611,156.254 444.491,157.174 437.783 C 157.778 433.375,157.738 429.740,157.056 427.209 C 156.266 424.272,156.373 421.986,157.509 417.627 C 159.270 410.868,159.325 410.000,158.000 410.000 C 157.450 410.000,157.000 410.900,157.000 412.000 C 157.000 413.100,156.612 414.000,156.138 414.000 C 155.346 414.000,154.486 408.323,153.337 395.500 C 152.931 390.963,153.149 390.292,155.695 388.255 C 158.262 386.201,158.322 386.010,156.405 386.005 C 155.253 386.002,153.531 386.861,152.578 387.914 M220.089 389.786 C 219.410 391.423,219.001 394.279,219.178 396.131 C 219.463 399.118,219.888 399.557,222.921 400.000 C 227.269 400.636,227.697 401.997,224.494 405.006 L 221.949 407.397 216.355 405.495 C 212.654 404.237,209.885 402.496,208.171 400.348 C 206.229 397.914,205.261 397.368,204.299 398.167 C 203.594 398.752,201.775 399.333,200.258 399.458 C 196.191 399.793,193.000 400.991,193.000 402.184 C 193.000 402.822,193.882 402.947,195.250 402.503 C 201.535 400.464,204.454 400.758,207.070 403.695 C 208.471 405.267,211.557 407.194,213.928 407.976 C 217.742 409.235,218.757 409.212,222.753 407.775 C 225.625 406.742,228.046 406.447,229.404 406.963 C 232.050 407.969,238.974 404.630,241.770 401.000 C 244.369 397.625,245.297 393.487,243.740 392.216 C 241.941 390.748,233.069 388.277,226.766 387.490 C 221.418 386.822,221.300 386.862,220.089 389.786 M226.797 392.994 C 228.731 396.394,230.496 397.003,229.710 394.000 C 229.102 391.675,230.541 391.467,236.250 393.053 C 239.199 393.871,240.000 394.587,240.000 396.401 C 240.000 399.832,235.674 404.000,232.114 404.000 C 229.614 404.000,229.082 403.561,228.816 401.282 C 228.603 399.445,227.527 398.066,225.500 397.032 C 223.850 396.189,222.333 395.408,222.130 395.297 C 221.327 394.855,223.102 390.000,224.066 390.000 C 224.631 390.000,225.860 391.347,226.797 392.994 M374.150 393.123 C 366.301 394.428,365.510 395.091,365.869 400.066 C 366.037 402.399,366.553 405.026,367.015 405.904 C 367.476 406.782,368.100 408.294,368.401 409.265 C 369.741 413.584,381.296 413.949,385.701 409.811 C 386.974 408.615,388.780 405.904,389.715 403.785 C 391.875 398.889,394.783 398.040,398.921 401.100 C 401.339 402.888,402.000 404.127,402.000 406.875 L 402.000 410.374 404.946 407.552 C 407.681 404.932,408.183 404.803,411.946 405.758 C 416.889 407.013,417.350 405.624,413.250 401.830 C 404.388 393.630,390.161 390.462,374.150 393.123 M382.700 398.660 C 382.983 399.397,383.841 400.000,384.607 400.000 C 386.468 400.000,386.361 400.896,384.044 404.696 C 381.847 408.298,376.550 409.928,372.098 408.371 C 369.865 407.590,369.457 406.797,369.195 402.731 C 369.012 399.887,369.311 398.000,369.945 398.000 C 370.525 398.000,371.029 398.788,371.063 399.750 C 371.114 401.139,371.307 401.054,371.998 399.339 C 372.723 397.542,373.654 397.191,377.527 397.249 C 380.444 397.293,382.378 397.820,382.700 398.660 M469.000 397.599 C 469.000 397.928,470.408 399.513,472.129 401.120 C 474.861 403.673,475.192 404.533,474.738 407.914 C 474.453 410.043,473.245 413.102,472.054 414.713 C 470.863 416.324,469.198 420.977,468.355 425.054 C 467.511 429.131,466.401 433.251,465.888 434.210 C 465.375 435.169,464.758 440.944,464.517 447.044 C 464.059 458.652,463.069 461.611,457.504 468.000 C 451.915 474.419,447.906 484.454,442.923 504.500 C 438.082 523.979,438.040 524.122,432.988 538.500 C 428.488 551.307,420.320 568.217,413.298 579.260 C 410.934 582.978,409.000 586.485,409.000 587.053 C 409.000 587.621,410.913 590.599,413.250 593.670 C 415.587 596.742,418.157 600.210,418.961 601.378 C 419.764 602.545,421.572 604.859,422.978 606.519 C 427.061 611.343,432.798 623.901,434.401 631.523 C 435.213 635.386,436.312 639.690,436.843 641.088 C 438.707 645.989,439.235 654.949,438.063 661.744 C 436.566 670.415,431.799 687.000,430.803 687.000 C 429.571 687.000,428.596 681.969,428.546 675.358 C 428.512 670.833,428.967 668.699,430.274 667.252 C 431.330 666.084,431.782 664.596,431.391 663.577 C 431.030 662.636,431.216 660.883,431.805 659.683 C 433.957 655.297,433.766 649.534,431.129 639.251 C 429.683 633.614,428.171 629.001,427.769 629.001 C 426.158 628.999,425.813 634.581,426.901 643.063 C 427.892 650.796,427.833 652.423,426.461 655.075 C 425.262 657.394,425.151 658.477,426.007 659.508 C 426.841 660.513,426.846 661.419,426.027 662.950 C 424.951 664.959,424.833 664.970,422.489 663.264 C 421.154 662.294,420.049 661.163,420.031 660.750 C 419.970 659.294,418.000 660.021,418.000 661.500 C 418.000 662.325,418.398 663.000,418.885 663.000 C 420.064 663.000,423.166 672.478,423.631 677.500 C 424.494 686.809,424.051 713.914,422.953 719.000 C 422.300 722.025,421.645 725.644,421.497 727.042 C 420.875 732.925,418.736 741.775,417.027 745.533 C 415.974 747.851,415.416 750.723,415.715 752.288 C 416.014 753.852,415.653 755.713,414.868 756.659 C 414.115 757.566,413.449 759.476,413.387 760.904 C 413.325 762.332,412.762 764.962,412.137 766.750 C 409.480 774.346,408.759 776.739,407.847 781.000 C 407.317 783.475,406.492 786.400,406.014 787.500 C 405.535 788.600,404.846 791.300,404.482 793.500 C 404.119 795.700,403.356 798.063,402.788 798.750 C 402.007 799.695,402.395 800.000,404.378 800.000 C 406.578 800.000,407.000 799.553,407.000 797.223 C 407.000 795.695,407.739 793.389,408.643 792.099 C 409.547 790.809,410.441 787.930,410.630 785.702 C 410.973 781.658,419.994 753.032,422.616 747.669 C 423.377 746.112,424.000 743.326,424.000 741.478 C 424.000 739.630,424.389 737.877,424.865 737.583 C 425.341 737.289,426.059 735.350,426.460 733.274 C 428.638 722.015,429.181 718.973,429.993 713.500 C 432.758 694.863,436.873 677.166,439.748 671.550 C 442.699 665.786,440.079 640.532,434.606 622.000 C 432.505 614.884,428.624 608.302,421.043 599.000 C 411.486 587.272,410.094 582.209,415.874 580.194 C 417.653 579.574,419.147 578.001,419.992 575.860 C 420.721 574.012,423.463 567.941,426.086 562.369 C 433.411 546.808,437.530 536.226,439.464 528.000 C 441.058 521.223,443.175 514.023,444.757 510.000 C 445.082 509.175,446.117 504.900,447.059 500.500 C 449.926 487.099,451.538 482.338,454.328 479.022 C 455.798 477.276,457.000 475.222,457.000 474.458 C 457.000 473.694,458.350 471.532,460.000 469.653 C 461.650 467.774,463.000 465.881,463.000 465.447 C 463.000 465.013,463.680 463.906,464.512 462.987 C 465.514 461.879,466.371 457.470,467.053 449.908 C 467.619 443.634,468.717 436.475,469.494 434.000 C 470.271 431.525,471.194 427.429,471.545 424.897 C 471.915 422.226,473.185 419.129,474.571 417.516 C 478.805 412.589,478.998 402.998,474.944 398.944 C 473.152 397.152,469.000 396.212,469.000 397.599 M434.500 408.227 C 431.921 409.046,424.592 411.828,410.000 417.527 C 408.075 418.279,402.675 420.039,398.000 421.438 C 388.360 424.324,387.747 424.649,386.120 427.740 C 385.471 428.971,383.604 430.671,381.970 431.515 C 377.723 433.712,378.148 435.372,382.750 434.566 L 386.500 433.910 383.250 436.528 C 381.462 437.967,380.000 439.571,380.000 440.093 C 380.000 441.109,384.173 439.001,393.000 433.526 C 396.025 431.650,401.200 429.114,404.500 427.891 C 412.352 424.981,420.652 420.796,424.944 417.580 C 426.839 416.161,429.539 414.993,430.944 414.985 C 434.104 414.966,435.118 414.248,436.920 410.752 C 438.661 407.373,438.318 407.014,434.500 408.227 M599.477 495.500 C 599.477 540.050,599.599 558.421,599.750 536.325 C 599.900 514.228,599.900 477.778,599.750 455.325 C 599.600 432.871,599.477 450.950,599.477 495.500 M345.044 468.250 C 345.215 477.007,346.944 485.311,349.066 487.571 C 350.322 488.907,351.972 490.000,352.733 490.000 C 353.495 490.000,353.843 490.445,353.507 490.988 C 352.863 492.031,357.917 499.000,359.317 499.000 C 359.767 499.000,359.829 497.988,359.455 496.750 C 358.900 494.914,359.017 494.730,360.088 495.750 C 362.199 497.761,366.780 497.280,368.046 494.914 C 369.563 492.079,368.720 491.547,366.535 493.962 C 365.152 495.489,364.322 495.707,362.863 494.927 C 361.826 494.372,360.197 494.049,359.243 494.209 C 358.121 494.397,356.922 493.329,355.847 491.181 C 354.933 489.355,353.410 487.006,352.463 485.960 C 350.513 483.805,348.882 476.528,350.075 475.306 C 351.024 474.334,347.348 466.000,345.971 466.000 C 345.437 466.000,345.020 467.012,345.044 468.250 M248.573 474.570 C 245.313 477.830,245.256 487.292,248.458 493.646 C 251.052 498.795,259.410 501.459,265.500 499.077 C 266.993 498.494,266.077 498.117,261.883 497.592 C 252.809 496.457,249.000 491.494,249.000 480.809 C 249.000 478.642,249.466 475.998,250.035 474.934 C 251.288 472.594,250.697 472.446,248.573 474.570 M314.892 479.331 C 313.457 479.974,310.440 482.168,308.187 484.207 C 302.348 489.489,296.809 492.112,293.070 491.364 C 288.967 490.543,284.231 492.652,282.453 496.091 C 281.654 497.636,281.000 499.148,281.000 499.450 C 281.000 500.582,283.169 499.935,285.790 498.023 C 287.281 496.936,290.075 495.794,292.000 495.485 C 311.225 492.404,309.443 492.416,316.507 495.317 C 323.871 498.342,326.768 498.573,332.465 496.590 C 339.079 494.288,337.985 493.024,329.914 493.643 C 324.016 494.096,321.848 493.827,318.096 492.177 C 315.568 491.066,312.679 489.898,311.676 489.581 C 309.135 488.780,309.954 485.883,313.245 484.036 C 315.550 482.742,316.307 482.711,318.107 483.835 C 319.280 484.567,321.986 485.291,324.120 485.443 C 327.630 485.693,328.000 485.490,328.000 483.309 C 328.000 481.503,327.130 480.534,324.532 479.449 C 320.477 477.755,318.465 477.730,314.892 479.331 M277.458 504.500 C 277.299 505.050,276.908 507.691,276.588 510.369 C 275.879 516.294,278.347 521.327,283.635 524.738 C 285.543 525.969,286.829 526.532,286.493 525.988 C 286.157 525.445,286.782 525.000,287.882 525.000 C 290.582 525.000,290.909 525.763,291.131 532.576 C 291.264 536.627,291.846 538.914,293.014 539.970 C 293.944 540.812,295.330 543.525,296.095 546.000 L 297.486 550.500 297.802 545.644 C 298.035 542.061,297.650 540.271,296.334 538.817 C 295.217 537.583,294.518 535.163,294.465 532.349 C 294.414 529.610,293.818 527.491,292.940 526.927 C 291.723 526.143,291.714 525.862,292.882 525.109 C 294.421 524.118,292.509 522.570,285.928 519.478 C 279.920 516.655,279.196 513.470,282.566 504.687 C 282.847 503.956,282.009 503.500,280.384 503.500 C 278.933 503.500,277.616 503.950,277.458 504.500 M330.000 537.606 C 330.000 537.939,331.125 539.548,332.500 541.182 C 333.875 542.816,335.000 544.877,335.000 545.762 C 335.000 546.647,336.001 548.436,337.224 549.738 C 339.108 551.744,339.223 552.246,337.974 553.030 C 337.163 553.538,335.825 553.776,335.000 553.557 C 320.212 549.643,319.079 549.505,315.743 551.215 C 313.959 552.130,309.662 553.177,306.194 553.543 C 301.109 554.080,299.540 553.894,298.088 552.579 C 296.478 551.123,296.152 551.112,295.021 552.475 C 292.188 555.889,274.000 553.148,274.000 549.308 C 274.000 547.197,271.757 547.775,265.635 551.461 C 262.288 553.477,257.303 555.410,253.694 556.091 C 246.940 557.366,243.422 559.457,246.222 560.532 C 247.090 560.865,250.155 560.438,253.033 559.583 C 255.911 558.728,259.331 558.296,260.633 558.623 C 261.935 558.949,263.000 558.790,263.000 558.269 C 263.000 556.936,267.929 554.838,269.207 555.628 C 271.027 556.753,289.221 558.640,295.403 558.345 C 298.649 558.191,304.724 557.503,308.903 556.818 C 321.088 554.820,326.383 555.325,335.970 559.400 C 346.813 564.009,356.219 564.274,350.250 559.802 C 348.268 558.318,345.072 553.942,342.724 549.500 C 339.594 543.576,330.000 534.608,330.000 537.606 M166.500 555.668 C 159.989 556.467,147.951 559.328,137.000 562.681 C 130.675 564.617,123.925 566.660,122.000 567.222 C 120.075 567.783,114.675 569.823,110.000 571.756 C 105.325 573.689,94.750 577.466,86.500 580.150 C 78.250 582.834,70.600 585.443,69.500 585.947 C 61.862 589.445,49.082 594.864,47.000 595.486 C 40.303 597.487,8.881 612.109,4.852 615.100 C 1.110 617.877,0.264 619.083,0.235 621.680 C 0.194 625.362,1.987 625.246,5.702 621.325 C 6.913 620.046,8.527 619.000,9.287 619.000 C 10.047 619.000,11.832 617.695,13.253 616.100 C 15.043 614.091,17.458 612.853,21.115 612.069 C 24.019 611.446,27.768 609.914,29.447 608.664 C 33.821 605.408,43.310 601.000,45.946 601.000 C 48.034 601.000,58.893 596.374,67.000 592.030 C 71.899 589.405,88.495 584.000,91.655 584.000 C 93.975 584.000,100.727 581.407,105.000 578.874 C 105.825 578.385,107.625 577.494,109.000 576.892 C 110.375 576.291,113.329 574.991,115.564 574.003 C 117.800 573.015,120.752 572.421,122.125 572.684 C 123.666 572.978,125.124 572.556,125.933 571.580 C 126.655 570.711,128.478 570.000,129.984 570.000 C 131.491 570.000,135.701 568.650,139.340 567.000 C 142.979 565.350,146.844 564.000,147.929 564.000 C 149.014 564.000,152.512 563.251,155.701 562.336 C 158.891 561.422,163.503 560.634,165.950 560.586 C 169.978 560.508,170.616 560.832,172.670 564.000 C 175.889 568.965,178.475 572.733,182.763 578.707 C 184.818 581.570,188.451 587.048,190.835 590.879 C 193.219 594.709,196.032 598.624,197.085 599.577 C 198.138 600.530,199.000 602.124,199.000 603.120 C 199.000 605.154,201.823 607.000,204.934 607.000 C 206.070 607.000,207.056 607.450,207.125 608.000 C 207.194 608.550,207.404 610.237,207.591 611.750 C 207.779 613.263,208.095 617.200,208.293 620.500 C 208.685 627.019,209.749 631.273,210.822 630.610 C 211.565 630.151,211.494 626.621,210.499 614.527 C 209.742 605.334,209.495 604.708,206.954 605.515 C 203.866 606.495,200.828 604.239,201.116 601.178 C 201.418 597.975,198.105 591.437,194.481 588.082 C 193.045 586.752,191.038 584.052,190.022 582.082 C 189.006 580.112,187.272 577.546,186.170 576.380 C 185.067 575.215,182.482 571.049,180.426 567.123 C 178.369 563.197,176.076 559.478,175.331 558.860 C 174.307 558.010,174.253 557.400,175.110 556.367 C 176.290 554.946,173.938 554.755,166.500 555.668 M317.582 590.867 C 317.255 591.396,317.553 592.059,318.244 592.341 C 319.722 592.943,315.309 596.942,313.128 596.978 C 311.972 596.996,311.969 596.742,313.108 595.370 C 314.321 593.909,314.152 593.808,311.480 594.396 C 309.841 594.757,305.849 596.391,302.609 598.026 C 299.369 599.662,296.107 601.000,295.359 601.000 C 294.612 601.000,294.000 601.450,294.000 602.000 C 294.000 603.557,298.106 603.185,304.658 601.034 C 308.564 599.752,311.925 599.276,314.323 599.665 C 317.130 600.120,318.000 599.922,318.000 598.825 C 318.000 597.980,320.370 596.542,323.750 595.335 C 331.334 592.627,331.369 590.598,323.838 590.203 C 320.724 590.039,317.909 590.338,317.582 590.867 M399.688 596.793 C 398.189 598.448,398.007 601.588,398.071 624.580 C 398.110 638.836,397.695 652.750,397.148 655.500 C 396.446 659.030,396.493 661.777,397.309 664.843 C 398.407 668.971,398.279 669.543,394.726 676.343 C 388.997 687.310,382.991 705.975,381.331 717.969 C 380.529 723.761,378.743 731.650,377.362 735.500 C 373.759 745.541,373.650 746.000,374.863 746.000 C 376.462 746.000,381.891 736.086,382.529 732.000 C 382.830 730.075,383.542 726.250,384.112 723.500 C 384.681 720.750,385.519 716.025,385.972 713.000 C 387.157 705.096,393.802 686.946,396.610 683.945 C 397.924 682.540,399.000 680.728,399.000 679.918 C 399.000 679.108,399.776 677.337,400.725 675.982 C 401.962 674.215,402.424 671.676,402.355 667.009 C 402.028 644.851,402.327 606.000,402.824 606.000 C 403.498 606.000,407.503 610.470,411.380 615.547 L 414.834 620.070 414.560 631.737 C 414.381 639.380,413.892 643.536,413.143 643.786 C 412.463 644.012,412.000 646.484,412.000 649.883 C 412.000 653.028,411.616 656.028,411.147 656.550 C 410.679 657.072,409.713 659.662,409.002 662.305 C 408.031 665.914,407.994 667.394,408.855 668.255 C 409.485 668.885,410.000 670.155,410.000 671.078 C 410.000 672.000,410.706 673.341,411.570 674.058 C 412.433 674.774,412.934 676.146,412.683 677.105 C 412.374 678.287,412.674 678.678,413.613 678.318 C 415.454 677.612,415.430 681.252,413.554 687.487 C 412.047 692.493,412.490 698.337,414.330 697.723 C 414.916 697.528,416.197 693.220,417.178 688.151 L 418.962 678.933 415.845 671.962 L 412.729 664.992 414.377 659.746 C 417.039 651.276,417.988 643.340,417.994 629.493 L 418.000 616.486 412.639 608.920 C 409.691 604.758,406.650 600.042,405.882 598.439 C 404.182 594.893,401.945 594.298,399.688 596.793 M428.015 601.317 C 428.007 601.766,429.053 603.566,430.340 605.317 C 435.135 611.841,438.870 620.862,441.891 633.212 C 443.601 640.204,445.003 647.179,445.006 648.712 C 445.013 652.609,446.903 659.000,448.047 659.000 C 449.334 659.000,449.251 657.044,447.583 648.100 C 446.804 643.920,445.632 637.125,444.980 633.000 C 443.866 625.953,439.634 615.551,436.405 611.921 C 435.632 611.053,434.983 609.928,434.962 609.421 C 434.915 608.247,428.035 600.221,428.015 601.317 M516.000 633.961 C 516.000 635.547,520.245 639.000,522.195 639.000 C 523.195 639.000,524.991 640.125,526.187 641.500 C 527.382 642.875,529.389 644.000,530.645 644.000 C 531.906 644.000,533.409 644.896,534.000 646.000 C 534.589 647.100,535.895 648.000,536.903 648.000 C 539.179 648.000,552.599 655.690,555.654 658.745 C 556.894 659.985,558.450 661.000,559.110 661.000 C 559.771 661.000,561.928 662.237,563.905 663.750 C 565.881 665.263,568.986 667.018,570.806 667.652 C 574.036 668.776,574.081 668.754,572.716 666.699 C 571.948 665.542,570.155 664.284,568.731 663.903 C 567.308 663.523,565.098 662.234,563.822 661.040 C 562.545 659.845,560.038 658.171,558.250 657.320 C 556.462 656.469,554.988 655.261,554.974 654.636 C 554.960 654.011,549.672 650.874,543.224 647.665 C 525.844 639.015,521.236 636.524,519.190 634.672 C 517.108 632.788,516.000 632.541,516.000 633.961 M211.250 635.559 C 210.563 636.305,210.000 639.298,210.000 642.210 C 210.000 648.369,214.154 666.060,216.408 669.500 C 217.258 670.798,218.257 673.756,218.628 676.075 C 219.340 680.527,224.593 691.865,227.807 695.886 C 230.520 699.281,231.271 697.057,228.979 692.416 C 227.916 690.262,225.493 684.225,223.594 679.000 C 221.696 673.775,218.972 666.404,217.541 662.620 C 215.879 658.226,214.555 651.904,213.875 645.120 C 213.291 639.279,212.742 634.433,212.656 634.351 C 212.570 634.269,211.938 634.812,211.250 635.559 M348.688 641.566 C 346.611 642.977,344.144 644.287,343.206 644.477 C 342.268 644.667,340.233 645.312,338.685 645.911 C 337.137 646.510,333.762 647.000,331.185 647.000 C 328.608 647.000,322.900 647.698,318.500 648.550 C 314.100 649.403,308.700 650.017,306.500 649.916 C 300.093 649.620,299.216 650.046,303.500 651.372 C 306.339 652.251,311.462 652.422,321.146 651.961 C 333.789 651.360,335.148 651.101,339.646 648.436 C 342.316 646.854,346.160 644.725,348.189 643.705 C 351.896 641.842,355.016 639.000,353.355 639.000 C 352.865 639.000,350.765 640.155,348.688 641.566 M445.227 672.250 C 445.247 675.080,443.451 692.799,442.010 704.000 C 440.817 713.266,438.333 724.480,436.860 727.250 C 436.201 728.491,436.304 729.004,437.215 729.015 C 438.152 729.026,438.110 729.277,437.060 729.942 C 436.188 730.493,435.539 732.756,435.415 735.676 C 435.302 738.329,434.713 742.072,434.105 743.993 C 432.744 748.295,432.722 748.000,434.406 748.000 C 435.972 748.000,435.554 750.715,433.331 754.973 C 432.606 756.363,432.010 758.545,432.006 759.821 C 432.001 761.885,432.167 761.976,433.500 760.643 C 434.325 759.818,435.000 758.881,435.000 758.561 C 435.000 758.240,435.871 756.071,436.935 753.739 C 438.160 751.054,439.043 746.385,439.344 741.000 C 439.606 736.325,440.355 730.475,441.010 728.000 C 441.664 725.525,442.274 722.121,442.364 720.435 C 442.454 718.749,443.320 716.161,444.288 714.683 C 445.256 713.206,446.004 710.310,445.951 708.248 C 445.897 706.187,446.174 697.718,446.566 689.429 L 447.278 674.357 450.816 676.161 C 455.860 678.733,460.000 683.000,460.000 685.628 C 460.000 688.627,461.630 689.522,462.316 686.899 C 462.727 685.328,463.365 684.981,464.930 685.478 C 467.726 686.365,467.589 684.382,464.750 682.880 C 463.512 682.226,460.250 679.804,457.500 677.499 C 453.518 674.161,446.833 670.000,445.452 670.000 C 445.320 670.000,445.219 671.013,445.227 672.250 M481.750 678.689 C 480.788 678.941,480.000 680.035,480.000 681.121 C 480.000 683.156,475.386 687.912,473.357 687.968 C 472.728 687.986,471.958 687.333,471.645 686.517 C 470.780 684.263,468.000 685.868,468.000 688.621 C 468.000 691.282,466.163 695.074,464.290 696.277 C 463.625 696.705,462.787 698.617,462.429 700.526 C 461.982 702.907,460.961 704.390,459.178 705.249 C 454.817 707.347,452.700 715.962,452.849 731.000 C 452.917 737.875,452.477 745.958,451.872 748.962 C 451.064 752.968,451.067 754.522,451.885 754.795 C 452.498 754.999,453.000 756.929,453.000 759.083 C 453.000 761.237,453.464 763.000,454.031 763.000 C 455.765 763.000,456.009 760.818,455.148 753.000 C 454.456 746.723,454.575 745.314,455.873 744.358 C 457.097 743.457,457.172 742.913,456.229 741.776 C 454.920 740.199,454.846 725.554,456.134 723.000 C 456.550 722.175,457.161 719.813,457.491 717.750 C 458.077 714.083,459.263 712.999,460.500 715.000 C 460.840 715.550,461.611 716.000,462.214 716.000 C 462.817 716.000,462.562 715.173,461.648 714.163 C 460.089 712.441,460.148 712.019,462.594 707.413 C 464.029 704.711,466.462 700.632,468.001 698.349 C 469.966 695.433,470.484 693.884,469.742 693.142 C 468.252 691.652,470.814 688.601,472.429 689.941 C 473.818 691.094,486.704 689.491,488.583 687.931 C 489.267 687.363,490.065 687.297,490.365 687.782 C 490.664 688.266,493.475 689.236,496.611 689.938 C 500.988 690.917,503.390 692.220,506.938 695.539 C 509.481 697.917,514.473 701.368,518.031 703.208 C 522.795 705.671,524.588 707.165,524.833 708.878 C 525.404 712.869,524.093 715.900,519.903 720.275 C 513.770 726.679,510.255 732.172,509.582 736.404 C 509.070 739.628,509.224 740.128,510.569 739.612 C 511.446 739.275,512.625 739.000,513.189 739.000 C 513.753 739.000,513.956 738.329,513.641 737.508 C 513.271 736.543,514.068 735.499,515.894 734.555 C 517.447 733.752,519.273 731.756,519.951 730.119 C 521.151 727.222,525.000 722.914,525.000 724.467 C 525.000 724.895,525.685 724.676,526.523 723.981 C 527.360 723.286,527.806 721.965,527.515 721.046 C 527.193 720.032,527.970 718.517,529.492 717.194 C 530.892 715.976,532.000 713.932,532.000 712.566 C 532.000 711.219,532.462 709.833,533.026 709.484 C 534.347 708.667,541.633 708.721,545.500 709.575 C 547.150 709.940,550.075 710.187,552.000 710.125 C 558.314 709.919,560.000 710.733,560.000 713.984 C 560.000 717.924,556.323 720.162,554.329 717.435 C 553.103 715.759,553.000 715.829,553.000 718.329 C 553.000 719.820,551.977 722.718,550.727 724.770 C 549.477 726.821,547.826 729.737,547.058 731.250 C 546.290 732.763,544.838 734.000,543.831 734.000 C 542.824 734.000,542.000 734.605,542.000 735.345 C 542.000 736.085,541.100 737.505,540.000 738.500 C 538.900 739.495,538.000 741.219,538.000 742.329 C 538.000 744.267,538.101 744.254,540.500 742.000 C 541.875 740.708,543.000 739.055,543.000 738.326 C 543.000 737.597,543.620 737.000,544.378 737.000 C 545.135 737.000,546.315 736.325,547.000 735.500 C 548.771 733.366,551.000 733.644,551.000 736.000 C 551.000 737.100,551.450 738.000,552.000 738.000 C 553.495 738.000,553.207 739.936,551.451 741.692 C 550.599 742.544,549.643 744.537,549.326 746.121 C 549.009 747.704,548.149 749.000,547.415 749.000 C 546.681 749.000,545.536 750.913,544.872 753.250 C 544.207 755.587,543.289 757.928,542.831 758.450 C 541.595 759.863,541.824 761.000,543.345 761.000 C 545.336 761.000,548.000 757.659,548.000 755.161 C 548.000 753.962,548.900 752.210,550.000 751.268 C 551.100 750.326,552.000 749.193,552.000 748.750 C 552.000 748.307,553.591 744.724,555.537 740.789 C 557.482 736.853,558.851 733.055,558.580 732.348 C 558.309 731.642,558.518 730.798,559.044 730.473 C 559.570 730.148,560.000 729.009,560.000 727.941 C 560.000 726.873,560.951 725.049,562.114 723.886 C 563.930 722.070,564.133 721.060,563.556 716.713 C 562.650 709.882,561.554 708.169,557.738 707.620 C 555.957 707.364,551.523 706.670,547.885 706.077 C 544.246 705.485,539.166 705.000,536.595 705.000 C 533.894 705.000,530.265 704.156,528.000 703.000 C 525.844 701.900,523.364 701.000,522.490 701.000 C 519.929 701.000,514.881 698.066,509.288 693.327 C 505.728 690.310,502.305 688.449,498.489 687.455 C 492.205 685.818,486.390 685.560,485.574 686.881 C 484.698 688.297,480.000 688.871,480.000 687.561 C 480.000 685.716,482.209 684.000,484.583 684.000 C 485.984 684.000,486.971 683.221,487.335 681.826 C 488.280 678.212,486.787 677.373,481.750 678.689 M493.000 695.671 C 493.000 696.040,493.622 697.053,494.382 697.921 C 495.142 698.790,496.038 700.625,496.372 702.000 C 496.707 703.375,496.723 703.938,496.407 703.250 C 495.550 701.382,492.039 701.742,491.218 703.783 C 490.244 706.201,487.421 710.058,481.704 716.779 C 478.234 720.858,476.989 723.120,477.204 724.959 C 477.602 728.377,479.175 728.177,480.136 724.585 C 480.564 722.982,481.273 721.407,481.710 721.085 C 482.148 720.763,483.848 718.522,485.489 716.105 C 487.130 713.688,489.716 710.791,491.236 709.667 C 492.756 708.543,494.000 707.034,494.000 706.312 C 494.000 705.590,494.408 705.000,494.906 705.000 C 495.405 705.000,495.577 705.903,495.288 707.007 C 494.999 708.111,495.355 710.444,496.079 712.191 C 497.085 714.620,497.113 715.462,496.198 715.767 C 494.576 716.308,494.696 723.452,496.421 729.000 C 498.805 736.670,502.027 743.000,503.547 743.000 C 505.447 743.000,505.398 741.575,503.442 739.952 C 498.894 736.178,497.327 721.677,500.201 709.966 C 502.204 701.805,501.626 698.375,497.926 696.462 C 494.892 694.893,493.000 694.589,493.000 695.671 M567.579 711.772 C 571.307 714.872,577.187 722.889,576.521 723.966 C 575.673 725.338,576.847 729.000,578.135 729.000 C 578.716 729.000,578.837 728.060,578.423 726.758 C 577.846 724.939,577.975 724.719,579.106 725.590 C 579.873 726.181,582.383 728.142,584.686 729.948 C 587.636 732.262,590.292 733.387,593.686 733.760 C 596.333 734.051,598.831 734.786,599.235 735.395 C 599.639 736.003,599.974 735.150,599.980 733.500 C 599.990 730.770,599.676 730.484,596.490 730.321 C 591.453 730.063,582.438 725.333,579.243 721.272 C 574.681 715.474,568.763 709.999,567.084 710.022 C 565.824 710.040,565.925 710.398,567.579 711.772 M226.814 718.250 C 226.621 722.237,226.849 727.300,227.320 729.500 C 227.791 731.700,228.330 734.850,228.517 736.500 C 229.848 748.235,230.762 753.162,231.802 754.202 C 232.461 754.861,233.000 757.590,233.000 760.266 C 233.000 762.942,233.474 766.017,234.053 767.099 C 234.632 768.181,235.290 771.639,235.515 774.783 C 236.143 783.558,237.057 788.287,238.596 790.715 C 239.368 791.933,240.000 794.520,240.000 796.465 C 240.000 799.821,240.173 800.000,243.413 800.000 C 246.679 800.000,246.789 799.881,245.965 797.250 C 245.491 795.737,244.140 789.100,242.963 782.500 C 241.786 775.900,240.192 768.475,239.421 766.000 C 238.650 763.525,237.618 759.475,237.128 757.000 C 234.615 744.314,232.932 736.054,232.034 732.000 C 230.819 726.509,230.373 723.835,229.469 716.602 C 229.085 713.521,228.408 711.000,227.967 711.000 C 227.525 711.000,227.006 714.263,226.814 718.250 M214.505 748.992 C 213.441 750.713,214.925 762.515,216.470 764.628 C 217.256 765.703,217.587 767.773,217.277 769.680 C 216.695 773.266,218.808 781.596,220.697 783.164 C 222.682 784.811,224.378 783.081,222.671 781.151 C 221.868 780.243,221.225 777.925,221.243 776.000 C 221.260 774.075,220.762 771.233,220.137 769.685 C 218.667 766.045,218.686 765.942,220.699 766.715 C 222.122 767.261,222.056 766.887,220.291 764.409 C 218.560 761.978,218.322 760.710,218.950 757.274 C 219.455 754.512,219.359 753.164,218.666 753.298 C 218.090 753.409,217.436 752.600,217.212 751.500 C 216.657 748.769,215.376 747.582,214.505 748.992 " stroke="none" fill="#000000" fill-rule="evenodd"/></svg>