<?xml version="1.0" encoding="iso-8859-1"?>
<!-- Generator: Adobe Illustrator 22.0.0, SVG Export Plug-In . SVG Version: 6.00 Build 0)  -->
<svg version="1.1" xmlns="http://www.w3.org/2000/svg" xmlns:xlink="http://www.w3.org/1999/xlink" x="0px" y="0px"
	 viewBox="0 0 366.766 432" style="enable-background:new 0 0 366.766 432;" xml:space="preserve">
<g id="scorpion-pattern-2">
	<g>
		<path style="fill:none;stroke:#000000;stroke-width:2;stroke-linecap:round;stroke-linejoin:round;stroke-miterlimit:10;" d="
			M148.9,111.417c-0.052,4.623-2.058,9.192-5.427,12.358c-1.377,1.294-3.13,2.742-2.868,4.614c0.295,2.102,2.849,2.918,4.94,3.283
			c5.019,0.877,10.144,1.755,15.182,0.994c2.625-0.397,5.237-1.333,7.461-2.775c0.074,0.481,0.193,0.955,0.374,1.412
			c1.348,3.4,5.234,4.907,8.71,6.044c2.147,0.703,4.774,1.315,6.447-0.203c0.18-0.164,0.333-0.343,0.469-0.53
			c0.136,0.188,0.288,0.366,0.469,0.53c1.673,1.518,4.3,0.906,6.447,0.203c3.476-1.137,7.362-2.644,8.71-6.044
			c0.181-0.457,0.3-0.931,0.374-1.412c2.224,1.442,4.836,2.378,7.461,2.775c5.038,0.761,10.163-0.117,15.182-0.994
			c2.091-0.365,4.645-1.181,4.94-3.283c0.263-1.872-1.49-3.319-2.868-4.614c-3.369-3.166-5.375-7.735-5.427-12.358
			c-0.019-1.732,0.068-3.808-1.358-4.79c-1.476-1.017-3.466-0.092-5.001,0.833c-3.662,2.209-7.356,4.441-10.459,7.385
			c-2.072,1.965-3.862,4.298-5.039,6.884c-0.475-0.69-0.97-1.368-1.471-2.037c-0.903-1.206-2.06-2.538-3.564-2.457
			c-0.865,0.047-1.622,0.567-2.328,1.07c-2.023,1.439-4.046,2.878-6.068,4.317c-2.023-1.439-4.046-2.878-6.068-4.317
			c-0.706-0.502-1.463-1.023-2.328-1.07c-1.504-0.081-2.661,1.251-3.564,2.457c-0.501,0.669-0.996,1.347-1.471,2.037
			c-1.177-2.586-2.967-4.918-5.039-6.884c-3.102-2.943-6.796-5.176-10.459-7.385c-1.535-0.926-3.525-1.85-5.001-0.833
			C148.832,107.61,148.919,109.685,148.9,111.417z"/>
		<path style="fill:none;stroke:#000000;stroke-width:2;stroke-linecap:round;stroke-linejoin:round;stroke-miterlimit:10;" d="
			M144.853,109.01l-1.782-1.316c-7.557-4.6-16.123-7.531-24.914-8.525c-1.182-0.134-2.557-0.164-3.352,0.722
			c-1.138,1.268-0.221,3.218,0.23,4.862c1.081,3.939-1.637,8.329-5.409,9.633c-0.881,0.305-1.129,1.419-0.4,2
			c3.715,2.964,7.71,5.61,12.185,7.159c5.276,1.826,11.341,1.975,16.263-0.66C142.597,120.251,145.978,114.479,144.853,109.01z"/>
		<path style="fill:none;stroke:#000000;stroke-width:2;stroke-linecap:round;stroke-linejoin:round;stroke-miterlimit:10;" d="
			M108.544,110.315c2.506-3.06,1.87-7.53,1.067-11.403c-1.4-6.747-2.903-13.473-4.509-20.175c-0.822-3.428-2.375-7.52-5.869-7.987
			c-1.949-0.261-3.834,0.789-5.371,2.015c-6.977,5.567-9.74,15.842-6.496,24.158c3.244,8.315,12.236,14.005,21.14,13.375
			L108.544,110.315z"/>
		<path style="fill:none;stroke:#000000;stroke-width:2;stroke-linecap:round;stroke-linejoin:round;stroke-miterlimit:10;" d="
			M86.011,69.126c5.869,0.939,16.678-5.661,20.776-11.557c4.098-5.896,6.478-12.82,10.293-18.904
			c5.672-9.046,24.029-19,33.03-26.792c-5.214,2.356-19.612,10.775-24.826,13.131c-1.996,0.902-4.091,1.823-6.277,1.696
			c-2.186-0.127-4.458-1.677-4.601-3.862c-5.541,4.49-12.033,7.625-18.026,11.493c-5.992,3.868-11.704,8.753-14.431,15.343
			C79.224,56.263,78.969,67.999,86.011,69.126z"/>
		<path style="fill:none;stroke:#000000;stroke-width:2;stroke-linecap:round;stroke-linejoin:round;stroke-miterlimit:10;" d="
			M148.869,1c-17.701,2.811-32.345,19.926-32.345,19.926c3.038,0.158,7.886-1.753,10.328-3.568
			C134.192,11.905,141.531,6.453,148.869,1z"/>
		<path style="fill:none;stroke:#000000;stroke-width:2;stroke-linecap:round;stroke-linejoin:round;stroke-miterlimit:10;" d="
			M193.446,306.397c-2.581-0.145-5.132,0.52-7.632,1.18l-1.332,0.139c-5.122,2.049-11.266-2-16.303,0.249
			c-3.264,1.457-4.945,5.159-5.463,8.695c-1.265,8.636,3.383,17.969,11.282,21.683c7.899,3.714,18.404,1.073,23.186-6.228
			c2.832-4.325,3.592-9.656,4.006-14.809c0.206-2.565,0.295-5.333-1.098-7.497C198.692,307.635,196.027,306.542,193.446,306.397z"/>
		<path style="fill:none;stroke:#000000;stroke-width:2;stroke-linecap:round;stroke-linejoin:round;stroke-miterlimit:10;" d="
			M169.408,376.53c5.245,3.377,12.269,3.479,17.899,0.792c5.63-2.687,9.848-7.92,11.897-13.812c2.049-5.892,2.04-12.381,0.62-18.455
			c-0.283-1.211-0.664-2.482-1.6-3.302c-2.043-1.789-5.155-0.455-7.699,0.495c-4.984,1.86-14.412-1.124-18.554-2.624
			c-1.506-0.545-3.19-0.305-4.461,0.67c-3.874,2.975-5.948,8.145-6.659,13.109c-0.616,4.3-0.454,8.759,0.912,12.882
			C163.13,370.409,165.756,374.178,169.408,376.53z"/>
		<path style="fill:none;stroke:#000000;stroke-width:2;stroke-linecap:round;stroke-linejoin:round;stroke-miterlimit:10;" d="
			M191.491,410.074c3.714-1.552,6.98-4.322,8.758-7.933c1.818-3.692,1.995-7.96,1.903-12.074c-0.078-3.473-0.541-7.378-3.277-9.519
			c-3.094-2.42-7.584-1.435-11.237,0.007c-3.653,1.442-7.577,3.263-11.344,2.149c0,0-8.757-2.032-10.579-0.368
			s-2.492,4.252-2.652,6.715c-0.457,7.028,2.766,14.225,8.401,18.451C177.099,411.726,184.992,412.789,191.491,410.074z"/>
		<path style="fill:none;stroke:#000000;stroke-width:2;stroke-linecap:round;stroke-linejoin:round;stroke-miterlimit:10;" d="
			M225.962,401.272c-7.156-0.179-16.219,0.549-22.652,3.69c-5.642,6.606-11.458,6.111-17.964,9.097
			c-1.36,0.636-2.135,2.167-1.706,3.606c2.489,8.345,16.672,11.74,25.204,12.897c9.378,1.272,18.975-0.334,27.929-3.398
			c4.56-1.56,9.488-3.937,9.637-9.755c0.05-1.968-0.537-3.9-1.461-5.638C241.355,405.006,233.539,401.461,225.962,401.272z"/>
		<path style="fill:none;stroke:#000000;stroke-width:2;stroke-linecap:round;stroke-linejoin:round;stroke-miterlimit:10;" d="
			M271.325,401.622c-1.297-0.899-2.695-1.762-4.262-1.947c-1.923-0.227-3.797,0.593-5.56,1.394c-3.063,1.393-6.278,2.908-8.19,5.677
			c-2.396,3.469-3.795,10.945-4.514,16.151c-0.423,3.065,2.056,5.78,5.144,5.574c4.727-0.316,9.403-1.418,13.767-3.263
			c2.944-1.244,5.801-2.864,7.932-5.247c2.13-2.383,3.461-5.624,3.001-8.787C278.049,407.087,274.72,403.973,271.325,401.622z"/>
		<path style="fill:none;stroke:#000000;stroke-width:2;stroke-linecap:round;stroke-linejoin:round;stroke-miterlimit:10;" d="
			M286.089,378.872c-2.787-3.518-5.017-7.973-4.099-12.365c0.761-3.644,3.545-6.553,4.663-10.104
			c1.776-5.638-1.549-12.38-7.102-14.404c3.006,2.03,4.022,6.18,3.227,9.719s-3.066,6.561-5.53,9.223
			c-2.464,2.662-5.196,5.109-7.247,8.101c-3.57,5.211-4.806,11.96-3.313,18.097c1.493,6.138,5.69,11.565,11.255,14.554
			c0,0,11.338,7.27,16.336,0.33c2.623-3.641,2.346-8.71,0.187-12.644S288.876,382.39,286.089,378.872z"/>
		<path style="fill:none;stroke:#000000;stroke-width:2;stroke-linecap:round;stroke-linejoin:round;stroke-miterlimit:10;" d="
			M159.002,145.512c-1.833,0.62-3.666,1.239-5.499,1.859c-1.134,0.383-2.326,0.805-3.102,1.716
			c-1.008,1.183-1.065,2.879-1.073,4.434c-0.007,1.466,0.054,3.106,1.106,4.128c0.997,0.968,2.536,1.036,3.927,1.046
			c1.684,0.012,3.531-0.033,4.802-1.137c1.405-1.22,1.612-3.295,1.648-5.156c0.021-1.077,0.163-3.468,0.28-5.292
			C161.162,145.985,160.07,145.151,159.002,145.512z"/>
		<path style="fill:none;stroke:#000000;stroke-width:2;stroke-linecap:round;stroke-linejoin:round;stroke-miterlimit:10;" d="
			M137.481,159.618c2.242,0.473,4.581,0.306,6.819-0.181c0.79-0.172,1.672-0.465,1.997-1.205c0.243-0.555,0.094-1.194-0.059-1.78
			c-0.295-1.129-0.435-3.167-0.502-4.815c-0.06-1.483-1.279-2.639-2.763-2.66c-2.953-0.042-5.909,0.125-8.839,0.5
			c-0.821,0.105-1.672,0.239-2.356,0.705c-0.928,0.632-1.394,1.811-1.342,2.933c0.052,1.122,0.564,2.184,1.254,3.07
			C133.097,157.992,135.239,159.145,137.481,159.618z"/>
		<path style="fill:none;stroke:#000000;stroke-width:2;stroke-linecap:round;stroke-linejoin:round;stroke-miterlimit:10;" d="
			M121.97,157.779c2.49-0.801,4.666-3.111,4.516-5.723c-0.307-1.537-1.24-2.848-2.514-3.762c-2.257-1.618-6.338-2.201-8.443-4.041
			c-2.701-2.362-6.086-4.409-9.651-4.003c-3.306,0.377-4.059,1.295-7.385,1.19c-1.645-0.052-3.55-0.659-4.764,0.453
			c-1.103,1.011-0.85,2.83-0.192,4.174c1.601,3.268,4.883,5.371,8.115,7.005c4.15,2.099,8.552,3.685,13.1,4.656
			C117.146,158.24,119.652,158.525,121.97,157.779z"/>
		<path style="fill:none;stroke:#000000;stroke-width:2;stroke-linecap:round;stroke-linejoin:round;stroke-miterlimit:10;" d="
			M86.594,138.926c1.432,1.459,3.475,2.161,5.508,1.943c1.655-0.178,3.452-0.438,3.967-0.767c1.024-0.653,1.392-2.153,0.787-3.206
			c-0.504-0.878-1.489-1.338-2.394-1.792c-5.509-2.768-10.04-7.207-13.709-12.161c-3.669-4.955-6.54-10.444-9.394-15.908
			c1.799,6.244,3.609,12.515,6.307,18.426C79.914,130.382,82.816,135.077,86.594,138.926z"/>
		<path style="fill:none;stroke:#000000;stroke-width:2;stroke-linecap:round;stroke-linejoin:round;stroke-miterlimit:10;" d="
			M153.664,175.689c-0.338-1.77-2.342-2.658-3.893-1.742c-4.578,2.702-12.38,8.628-16.958,11.33c-1.542,0.91-3.153,1.88-2.999,4.479
			c0.089,1.499,0.813,2.934,1.973,3.887c2.208,1.814,5.242,2.007,8.053,1.791c3.713-0.285,7.64-1.329,10.043-4.174
			C151.907,188.865,154.41,179.6,153.664,175.689z"/>
		<path style="fill:none;stroke:#000000;stroke-width:2;stroke-linecap:round;stroke-linejoin:round;stroke-miterlimit:10;" d="
			M118.52,205.776c3.691-0.528,7.282-1.745,10.533-3.57c1.074-0.603,2.259-1.595,1.996-2.798c-0.16-0.73-0.81-1.227-1.38-1.709
			c-1.457-1.234-2.642-4.087-3.38-6.264c-0.558-1.646-2.378-2.447-3.999-1.821c-3.233,1.248-6.197,3.193-8.613,5.679
			c-1.138,1.171-2.176,2.494-2.679,4.048c-0.503,1.553-0.396,3.374,0.597,4.67C113.115,205.997,116.043,206.131,118.52,205.776z"/>
		<path style="fill:none;stroke:#000000;stroke-width:2;stroke-linecap:round;stroke-linejoin:round;stroke-miterlimit:10;" d="
			M107.116,213.713c1.696-1.402,2.179-3.877,1.761-6.038c-0.291-1.503-1.677-4.474-2.495-6.145
			c-0.369-0.755-1.109-1.265-1.947-1.326c-5.213-0.377-10.472-0.109-15.619,0.799c-2.928,0.516-6.252,1.602-7.282,4.391
			c-0.728,1.974,0.017,4.276,1.447,5.819c1.43,1.544,3.435,2.433,5.46,3.003c4.218,1.187,8.674,1.148,13.053,0.983
			C103.468,215.125,105.593,214.971,107.116,213.713z"/>
		<path style="fill:none;stroke:#000000;stroke-width:2;stroke-linecap:round;stroke-linejoin:round;stroke-miterlimit:10;" d="
			M64.332,191.946c1.414,3.168,2.277,6.657,4.341,9.446c8.086,10.921,9.731,3.76,9.731,3.76
			c-5.053-16.404-18.307-30.055-34.556-35.588C52.838,174.571,60.139,182.549,64.332,191.946z"/>
		<path style="fill:none;stroke:#000000;stroke-width:2;stroke-linecap:round;stroke-linejoin:round;stroke-miterlimit:10;" d="
			M147.236,208.312c-0.003-1.878-1.832-3.209-3.631-2.669c-1.283,0.385-2.525,0.872-3.67,1.564
			c-2.229,1.346-4.064,3.629-4.166,6.231c-0.102,2.607,1.484,4.944,3.011,7.06c1.363,1.889,3.063,3.973,5.671,3.399
			c1.418-0.312,2.536-1.425,3.099-2.764c1.258-2.988,0.265-6.027-0.136-9.046C147.28,211.079,147.239,209.646,147.236,208.312z"/>
		<path style="fill:none;stroke:#000000;stroke-width:2;stroke-linecap:round;stroke-linejoin:round;stroke-miterlimit:10;" d="
			M131.533,217.183c-0.056-0.006-16.769,12.576-26.201,17.237c-2.314,1.143-5.012,2.712-5.098,5.291
			c-0.052,1.546,0.962,2.989,2.285,3.79c1.324,0.8,2.911,1.047,4.458,1.084c8.668,0.205,16.218-5.509,22.977-10.941
			c2.103-1.69,4.326-3.557,5.027-6.163C135.954,223.862,134.09,217.452,131.533,217.183z"/>
		<path style="fill:none;stroke:#000000;stroke-width:2;stroke-linecap:round;stroke-linejoin:round;stroke-miterlimit:10;" d="
			M77.244,237.163c-7.261,0.131-14.347,2.099-21.341,4.053c-0.939,0.262-2.076,0.77-2.074,1.745
			c0.002,0.637,0.522,1.139,1.018,1.538c4.443,3.577,10.068,5.437,15.72,6.202c5.652,0.764,11.387,0.499,17.084,0.232
			c2.298-0.107,6.123-0.911,8.934-2.308c1.825-0.907,2.259-3.31,0.833-4.765C92.08,238.939,84.505,237.032,77.244,237.163z"/>
		<path style="fill:none;stroke:#000000;stroke-width:2;stroke-linecap:round;stroke-linejoin:round;stroke-miterlimit:10;" d="
			M48.732,239.796c0.877,0.449,3.085,0.082,5.005-0.374c1.272-0.302,1.567-1.952,0.496-2.703
			c-12.244-8.591-19.243-24.365-33.096-30.251c7.829,9.818,15.658,19.636,23.487,29.454
			C45.808,237.404,47.043,238.931,48.732,239.796z"/>
		<path style="fill:none;stroke:#000000;stroke-width:2;stroke-linecap:round;stroke-linejoin:round;stroke-miterlimit:10;" d="
			M144.141,242.132l-0.87-2.665c-2.526,1.18-5.042,2.516-6.981,4.52c-1.939,2.003-3.245,4.788-2.88,7.553
			c0.215,1.629,0.979,3.126,1.731,4.587c1.041,2.021,2.384,4.275,4.626,4.657c2.252,0.384,4.402-1.46,5.17-3.611
			c0.769-2.151,0.499-4.517,0.22-6.784C144.818,247.635,144.48,244.883,144.141,242.132z"/>
		<path style="fill:none;stroke:#000000;stroke-width:2;stroke-linecap:round;stroke-linejoin:round;stroke-miterlimit:10;" d="
			M124.902,255.507c-4.072,3.35-10.32,8.311-14.429,10.72c-1.933,1.134-4.152,2.576-4.269,4.814
			c-0.083,1.577,1.003,3.032,2.358,3.842c1.356,0.81,2.951,1.1,4.509,1.363c2.383,0.403,4.799,0.782,7.208,0.59
			c2.41-0.192,4.846-1.009,6.57-2.704c1.707-1.678,2.55-4.022,3.342-6.28c0.739-2.111,1.485-4.25,1.664-6.479
			c0.073-0.905-0.158-2.318-0.552-3.792C130.549,254.764,127.153,253.654,124.902,255.507z"/>
		<path style="fill:none;stroke:#000000;stroke-width:2;stroke-linecap:round;stroke-linejoin:round;stroke-miterlimit:10;" d="
			M112.425,279.281c-1.983-0.345-7.273-1.305-7.273-1.305c-2.096-0.328-4.235,0.559-5.874,1.905
			c-1.639,1.346-2.863,3.119-4.064,4.867c-3.899,5.674-7.799,11.347-11.698,17.021c-0.578,0.84-1.178,1.751-1.176,2.771
			c0.004,1.576,1.439,2.776,2.885,3.403c4.218,1.828,9.253,0.669,13.11-1.833c3.856-2.502,6.773-6.181,9.617-9.793
			c2.393-3.039,4.785-6.077,7.178-9.116c1.043-1.325,2.148-2.881,1.84-4.538C116.601,280.683,114.408,279.625,112.425,279.281z"/>
		<path style="fill:none;stroke:#000000;stroke-width:2;stroke-linecap:round;stroke-linejoin:round;stroke-miterlimit:10;" d="
			M80.233,306.376c0,0-20.71,4.567-29.265,7.964c-1.898,0.754-6.432,0.313-7.93,1.701c-7.457,6.908,20.58,8.773,25.985,8.132
			c15.931-1.889,16.983-8.934,17.396-11.76C86.834,309.589,80.604,309.208,80.233,306.376z"/>
		<path style="fill:none;stroke:#000000;stroke-width:2;stroke-linecap:round;stroke-linejoin:round;stroke-miterlimit:10;" d="
			M1,287.503c8.914,10.147,18.115,20.522,30.088,26.772c2.105,1.099,4.706,1.992,6.952,1.716c1.676-0.206,2.575-2.095,1.733-3.559
			C28.429,301.953,15.242,293.475,1,287.503z"/>
		<path style="fill:none;stroke:#000000;stroke-width:2;stroke-linecap:round;stroke-linejoin:round;stroke-miterlimit:10;" d="
			M253.573,99.891c-0.795-0.885-2.169-0.856-3.352-0.722c-8.791,0.994-17.357,3.925-24.914,8.525l-1.782,1.316
			c-1.125,5.469,2.257,11.241,7.179,13.876c4.922,2.635,10.987,2.486,16.263,0.66c4.475-1.549,8.471-4.196,12.185-7.159
			c0.728-0.581,0.48-1.696-0.4-2c-3.772-1.305-6.491-5.695-5.409-9.633C253.794,103.109,254.711,101.159,253.573,99.891z"/>
		<path style="fill:none;stroke:#000000;stroke-width:2;stroke-linecap:round;stroke-linejoin:round;stroke-miterlimit:10;" d="
			M281.012,96.924c3.244-8.315,0.481-18.591-6.496-24.158c-1.537-1.226-3.422-2.276-5.371-2.015
			c-3.494,0.467-5.047,4.559-5.869,7.987c-1.606,6.701-3.109,13.427-4.509,20.175c-0.803,3.873-1.439,8.343,1.067,11.403
			l0.038-0.017C268.776,110.928,277.767,105.239,281.012,96.924z"/>
		<path style="fill:none;stroke:#000000;stroke-width:2;stroke-linecap:round;stroke-linejoin:round;stroke-miterlimit:10;" d="
			M243.094,25.003c-5.214-2.356-19.612-10.775-24.826-13.131c9.001,7.792,27.358,17.746,33.03,26.792
			c3.815,6.084,6.195,13.008,10.293,18.904c4.098,5.896,14.907,12.496,20.776,11.557c7.042-1.127,6.787-12.863,4.061-19.453
			c-2.726-6.59-8.438-11.476-14.431-15.343c-5.992-3.867-12.484-7.003-18.026-11.493c-0.144,2.185-2.415,3.735-4.601,3.862
			C247.184,26.825,245.089,25.904,243.094,25.003z"/>
		<path style="fill:none;stroke:#000000;stroke-width:2;stroke-linecap:round;stroke-linejoin:round;stroke-miterlimit:10;" d="
			M250.241,20.926c0,0-14.643-17.114-32.345-19.926c7.339,5.453,14.677,10.905,22.016,16.358
			C242.355,19.172,247.203,21.083,250.241,20.926z"/>
		<path style="fill:none;stroke:#000000;stroke-width:2;stroke-linecap:round;stroke-linejoin:round;stroke-miterlimit:10;" d="
			M170.426,141.676c-1.605,0.972-2.454,2.798-3.165,4.534c-3.495,8.537-5.87,17.486-8.345,26.366
			c-0.37,1.328-0.624,2.698-0.59,4.076c0.205,8.236,7.595,9.353,13.625,9.124c3.226-0.122,6.705-0.318,9.706,0.603
			c0,0,1.121,1.001,1.725,0.692c0.604,0.31,1.725-0.692,1.725-0.692c3.001-0.921,6.48-0.725,9.706-0.603
			c6.03,0.229,13.42-0.887,13.625-9.124c0.034-1.378-0.22-2.748-0.59-4.076c-2.475-8.88-4.85-17.83-8.345-26.366
			c-0.711-1.737-1.559-3.562-3.165-4.534c-2.63-1.592-5.845-0.236-8.971,0.543c-1.227,0.306-2.494,0.416-3.759,0.416h-0.455
			c-1.265,0-2.532-0.11-3.759-0.416C176.271,141.44,173.056,140.084,170.426,141.676z"/>
		<path style="fill:none;stroke:#000000;stroke-width:2;stroke-linecap:round;stroke-linejoin:round;stroke-miterlimit:10;" d="
			M158.411,201.292c5.364,3.409,12.69,0.305,18.729,1.954c1.409,0.385,2.848,0.647,4.308,0.647h3.871
			c1.46,0,2.899-0.262,4.308-0.647c6.038-1.649,13.365,1.455,18.729-1.954c2.525-1.605,4.124-4.571,4.076-7.562
			c-0.022-1.403-0.409-2.842-1.325-3.905c-0.915-1.063-2.417-1.675-3.77-1.303c-0.991,0.272-1.778,1.005-2.669,1.517
			c-2.996,1.721-6.743,0.806-10.09-0.049c-2.152-0.549-5.025-0.919-7.535-0.558c-2.435,0.349-4.886,0.349-7.32,0
			c-2.51-0.36-5.383,0.009-7.535,0.558c-3.347,0.855-7.094,1.769-10.09,0.049c-0.891-0.512-1.678-1.245-2.669-1.517
			c-1.353-0.371-2.854,0.24-3.77,1.303c-0.915,1.063-1.303,2.503-1.325,3.905C154.287,196.722,155.886,199.688,158.411,201.292z"/>
		<path style="fill:none;stroke:#000000;stroke-width:2;stroke-linecap:round;stroke-linejoin:round;stroke-miterlimit:10;" d="
			M152.033,209.863c-0.544,1.862-0.889,3.774-1.074,5.706c-0.25,2.616-0.341,6.034,1.686,8.038c2.022,2,5.282,1.812,8.094,1.384
			c4.418-0.673,12.274-1.826,18.183-2.91c2.951-0.542,5.972-0.542,8.923,0c5.908,1.085,13.765,2.238,18.183,2.91
			c2.812,0.428,6.071,0.615,8.094-1.384c2.029-2.007,1.935-5.431,1.685-8.048c-0.185-1.928-0.529-3.838-1.073-5.697
			c-0.311-1.063-0.764-2.19-1.738-2.707c-1.293-0.687-2.842-0.005-4.251,0.393c-3.495,0.986-7.204,0.115-10.785-0.485
			c-2.972-0.498-6.2-0.755-8.947,0.312c-1.594,0.62-3.318,0.834-5.028,0.834h-1.203c-1.71,0-3.434-0.214-5.028-0.834
			c-2.746-1.067-5.975-0.81-8.947-0.312c-3.582,0.6-7.29,1.471-10.786,0.485c-1.409-0.397-2.958-1.079-4.25-0.393
			C152.796,207.671,152.343,208.8,152.033,209.863z"/>
		<path style="fill:none;stroke:#000000;stroke-width:2;stroke-linecap:round;stroke-linejoin:round;stroke-miterlimit:10;" d="
			M154.296,244.878c1.696,0.964,3.798,0.672,5.723,0.351c5.13-0.856,10.26-1.711,15.391-2.567c1.51-0.252,3.039-0.378,4.57-0.378
			h6.807c1.531,0,3.06,0.127,4.57,0.378c5.13,0.856,10.26,1.711,15.391,2.567c1.925,0.321,4.026,0.613,5.723-0.351
			c1.806-1.026,2.61-3.162,3.277-5.128c0.801-2.358,1.563-5.103,0.232-7.208c-1.301-2.06-4.017-2.579-6.417-2.999
			c-4.892-0.857-14.475-2.084-21.667-3.665c-4.342-0.955-8.835-0.823-13.151,0.245c-5.918,1.463-12.905,2.608-17.542,3.42
			c-2.4,0.42-5.115,0.94-6.417,2.999c-1.33,2.105-0.569,4.85,0.232,7.208C151.687,241.716,152.49,243.852,154.296,244.878z"/>
		<path style="fill:none;stroke:#000000;stroke-width:2;stroke-linecap:round;stroke-linejoin:round;stroke-miterlimit:10;" d="
			M161.465,268.139c5.539-0.646,12.387-1.336,18.371-1.996c2.363-0.261,4.73-0.261,7.093,0c5.984,0.661,12.832,1.35,18.371,1.996
			c4.086,0.477,8.866,0.775,10.459-5.155c0.357-1.329,0.377-2.724,0.246-4.093c-0.242-2.531-0.109-6.009-2.248-7.853
			c-1.184-1.021-2.816-1.304-4.36-1.549c-4.226-0.669-8.452-1.338-12.678-2.007c-2.976-0.471-5.984-0.708-8.996-0.708h-8.681
			c-3.013,0-6.021,0.237-8.996,0.708c-4.226,0.669-8.452,1.338-12.678,2.007c-1.544,0.245-3.175,0.528-4.36,1.549
			c-2.14,1.844-2.006,5.323-2.248,7.854c-0.131,1.369-0.111,2.764,0.246,4.093C152.599,268.914,157.379,268.616,161.465,268.139z"/>
		<path style="fill:none;stroke:#000000;stroke-width:2;stroke-linecap:round;stroke-linejoin:round;stroke-miterlimit:10;" d="
			M163.101,297.985c4.015,3.512,15.174,5.98,20.282,4.446c5.109,1.534,16.268-0.934,20.283-4.446
			c4.621-4.042,7.321-9.897,9.343-15.618c0.5-1.414,0.736-2.929,0.536-4.416c-0.781-5.791-6.438-6.531-11.081-6.266
			c-2.47,0.141-5.123,0.369-7.482-0.172c-3.63-0.833-7.297-1.496-11.022-1.496h-1.151c-3.725,0-7.392,0.664-11.022,1.496
			c-2.36,0.541-5.012,0.313-7.482,0.172c-4.644-0.265-10.301,0.476-11.081,6.266c-0.2,1.486,0.036,3.002,0.536,4.416
			C155.78,288.088,158.48,293.944,163.101,297.985z"/>
		<path style="fill:none;stroke:#000000;stroke-width:2;stroke-linecap:round;stroke-linejoin:round;stroke-miterlimit:10;" d="
			M212.406,158.695c1.39-0.01,2.929-0.078,3.927-1.046c1.052-1.021,1.114-2.662,1.106-4.128c-0.008-1.554-0.066-3.25-1.073-4.434
			c-0.776-0.911-1.968-1.333-3.102-1.716c-1.833-0.62-3.666-1.239-5.499-1.859c-1.068-0.361-2.16,0.473-2.088,1.598
			c0.117,1.824,0.259,4.215,0.28,5.292c0.036,1.861,0.242,3.936,1.648,5.156C208.875,158.662,210.722,158.707,212.406,158.695z"/>
		<path style="fill:none;stroke:#000000;stroke-width:2;stroke-linecap:round;stroke-linejoin:round;stroke-miterlimit:10;" d="
			M221.03,151.637c-0.067,1.648-0.207,3.686-0.502,4.815c-0.153,0.586-0.302,1.225-0.059,1.78c0.325,0.74,1.207,1.033,1.997,1.205
			c2.239,0.487,4.578,0.654,6.819,0.181c2.242-0.473,4.384-1.626,5.791-3.434c0.69-0.886,1.202-1.948,1.254-3.07
			c0.052-1.122-0.413-2.301-1.342-2.933c-0.684-0.466-1.535-0.599-2.356-0.705c-2.929-0.375-5.885-0.542-8.839-0.5
			C222.309,148.998,221.09,150.154,221.03,151.637z"/>
		<path style="fill:none;stroke:#000000;stroke-width:2;stroke-linecap:round;stroke-linejoin:round;stroke-miterlimit:10;" d="
			M268.273,141.441c-3.326,0.105-4.079-0.814-7.385-1.19c-3.565-0.406-6.95,1.641-9.651,4.003c-2.105,1.84-6.186,2.424-8.443,4.041
			c-1.274,0.913-2.206,2.225-2.514,3.762c-0.151,2.612,2.026,4.921,4.516,5.723c2.317,0.746,4.824,0.461,7.216-0.05
			c4.548-0.971,8.95-2.557,13.1-4.656c3.232-1.635,6.515-3.737,8.115-7.005c0.658-1.344,0.911-3.163-0.192-4.174
			C271.822,140.782,269.918,141.389,268.273,141.441z"/>
		<path style="fill:none;stroke:#000000;stroke-width:2;stroke-linecap:round;stroke-linejoin:round;stroke-miterlimit:10;" d="
			M272.303,135.103c-0.905,0.455-1.89,0.914-2.394,1.792c-0.605,1.053-0.237,2.552,0.787,3.206c0.516,0.329,2.312,0.59,3.967,0.767
			c2.033,0.218,4.076-0.484,5.508-1.943c3.779-3.849,6.681-8.544,8.928-13.466c2.699-5.911,4.508-12.182,6.307-18.426
			c-2.855,5.464-5.726,10.954-9.394,15.908C282.343,127.897,277.812,132.335,272.303,135.103z"/>
		<path style="fill:none;stroke:#000000;stroke-width:2;stroke-linecap:round;stroke-linejoin:round;stroke-miterlimit:10;" d="
			M226.926,195.434c2.811,0.216,5.846,0.023,8.053-1.791c1.16-0.953,1.884-2.388,1.973-3.887c0.154-2.6-1.458-3.569-2.999-4.479
			c-4.578-2.702-12.38-8.628-16.958-11.33c-1.552-0.916-3.556-0.028-3.893,1.742c-0.746,3.911,1.757,13.176,3.781,15.572
			C219.286,194.106,223.212,195.15,226.926,195.434z"/>
		<path style="fill:none;stroke:#000000;stroke-width:2;stroke-linecap:round;stroke-linejoin:round;stroke-miterlimit:10;" d="
			M244.476,189.613c-1.621-0.626-3.442,0.176-3.999,1.821c-0.738,2.177-1.923,5.03-3.38,6.264c-0.57,0.483-1.22,0.98-1.38,1.709
			c-0.263,1.203,0.922,2.195,1.996,2.798c3.251,1.825,6.842,3.043,10.533,3.57c2.477,0.354,5.405,0.22,6.926-1.767
			c0.992-1.296,1.1-3.117,0.597-4.67c-0.503-1.553-1.541-2.877-2.679-4.048C250.673,192.807,247.709,190.861,244.476,189.613z"/>
		<path style="fill:none;stroke:#000000;stroke-width:2;stroke-linecap:round;stroke-linejoin:round;stroke-miterlimit:10;" d="
			M262.332,200.204c-0.838,0.061-1.578,0.571-1.947,1.326c-0.818,1.671-2.204,4.642-2.495,6.145
			c-0.418,2.161,0.064,4.636,1.76,6.038c1.523,1.259,3.648,1.413,5.623,1.487c4.379,0.165,8.835,0.203,13.053-0.983
			c2.025-0.57,4.03-1.459,5.46-3.003c1.43-1.544,2.175-3.846,1.447-5.819c-1.029-2.79-4.353-3.875-7.282-4.391
			C272.804,200.095,267.544,199.827,262.332,200.204z"/>
		<path style="fill:none;stroke:#000000;stroke-width:2;stroke-linecap:round;stroke-linejoin:round;stroke-miterlimit:10;" d="
			M298.093,201.391c2.064-2.788,2.928-6.277,4.341-9.446c4.193-9.397,11.494-17.375,20.483-22.383
			c-16.248,5.533-29.503,19.184-34.556,35.588C288.362,205.151,290.007,212.313,298.093,201.391z"/>
		<path style="fill:none;stroke:#000000;stroke-width:2;stroke-linecap:round;stroke-linejoin:round;stroke-miterlimit:10;" d="
			M222.315,223.897c2.608,0.574,4.308-1.51,5.671-3.399c1.527-2.116,3.113-4.453,3.011-7.06c-0.102-2.602-1.937-4.886-4.166-6.231
			c-1.145-0.691-2.388-1.178-3.67-1.564c-1.799-0.54-3.627,0.791-3.631,2.669c-0.002,1.334-0.044,2.768-0.178,3.775
			c-0.401,3.019-1.395,6.058-0.136,9.046C219.779,222.471,220.897,223.585,222.315,223.897z"/>
		<path style="fill:none;stroke:#000000;stroke-width:2;stroke-linecap:round;stroke-linejoin:round;stroke-miterlimit:10;" d="
			M236.812,233.643c6.758,5.432,14.309,11.147,22.977,10.941c1.546-0.037,3.134-0.283,4.458-1.084c1.324-0.8,2.337-2.244,2.285-3.79
			c-0.086-2.58-2.784-4.148-5.098-5.291c-9.432-4.661-26.144-17.243-26.201-17.237c-2.557,0.269-4.421,6.68-3.448,10.297
			C232.486,230.086,234.708,231.952,236.812,233.643z"/>
		<path style="fill:none;stroke:#000000;stroke-width:2;stroke-linecap:round;stroke-linejoin:round;stroke-miterlimit:10;" d="
			M296.198,250.701c5.652-0.764,11.278-2.625,15.72-6.202c0.496-0.399,1.016-0.902,1.018-1.538c0.002-0.975-1.135-1.483-2.073-1.745
			c-6.994-1.953-14.081-3.921-21.341-4.053c-7.261-0.131-14.835,1.775-20.175,6.697c-1.426,1.455-0.992,3.858,0.833,4.765
			c2.811,1.397,6.637,2.201,8.935,2.308C284.812,251.2,290.546,251.465,296.198,250.701z"/>
		<path style="fill:none;stroke:#000000;stroke-width:2;stroke-linecap:round;stroke-linejoin:round;stroke-miterlimit:10;" d="
			M312.532,236.718c-1.07,0.751-0.776,2.401,0.496,2.703c1.92,0.456,4.128,0.823,5.005,0.374c1.689-0.864,2.924-2.391,4.107-3.874
			c7.829-9.818,15.658-19.636,23.487-29.454C331.776,212.353,324.777,228.127,312.532,236.718z"/>
		<path style="fill:none;stroke:#000000;stroke-width:2;stroke-linecap:round;stroke-linejoin:round;stroke-miterlimit:10;" d="
			M227,260.783c2.241-0.382,3.585-2.636,4.626-4.657c0.752-1.461,1.516-2.958,1.731-4.587c0.365-2.764-0.941-5.55-2.88-7.553
			c-1.939-2.003-4.455-3.339-6.981-4.52l-0.87,2.665c-0.338,2.752-0.677,5.504-1.016,8.256c-0.279,2.267-0.548,4.633,0.22,6.784
			C222.598,259.323,224.748,261.166,227,260.783z"/>
		<path style="fill:none;stroke:#000000;stroke-width:2;stroke-linecap:round;stroke-linejoin:round;stroke-miterlimit:10;" d="
			M258.204,274.883c1.356-0.81,2.441-2.265,2.358-3.842c-0.117-2.238-2.336-3.68-4.269-4.814
			c-4.108-2.409-10.356-7.369-14.429-10.72c-2.252-1.853-5.648-0.743-6.401,2.074c-0.394,1.474-0.625,2.887-0.552,3.792
			c0.179,2.229,0.925,4.368,1.664,6.479c0.792,2.259,1.635,4.602,3.342,6.28c1.724,1.695,4.16,2.512,6.57,2.704
			c2.41,0.192,4.825-0.186,7.208-0.59C255.253,275.982,256.848,275.693,258.204,274.883z"/>
		<path style="fill:none;stroke:#000000;stroke-width:2;stroke-linecap:round;stroke-linejoin:round;stroke-miterlimit:10;" d="
			M249.797,282.662c-0.308,1.658,0.797,3.214,1.84,4.538c2.393,3.039,4.785,6.077,7.178,9.116c2.844,3.612,5.76,7.291,9.617,9.793
			c3.856,2.502,8.892,3.661,13.11,1.833c1.446-0.627,2.881-1.827,2.885-3.403c0.003-1.02-0.598-1.931-1.176-2.771
			c-3.899-5.674-7.799-11.347-11.698-17.021c-1.201-1.748-2.425-3.521-4.064-4.867c-1.639-1.346-3.778-2.233-5.874-1.905
			c0,0-5.289,0.96-7.273,1.305C252.358,279.625,250.165,280.683,249.797,282.662z"/>
		<path style="fill:none;stroke:#000000;stroke-width:2;stroke-linecap:round;stroke-linejoin:round;stroke-miterlimit:10;" d="
			M315.797,314.34c-8.555-3.397-29.265-7.964-29.265-7.964c-0.37,2.831-6.6,3.212-6.186,6.038c0.414,2.825,1.466,9.871,17.396,11.76
			c5.404,0.641,33.442-1.224,25.985-8.132C322.229,314.653,317.696,315.094,315.797,314.34z"/>
		<path style="fill:none;stroke:#000000;stroke-width:2;stroke-linecap:round;stroke-linejoin:round;stroke-miterlimit:10;" d="
			M326.993,312.432c-0.842,1.464,0.057,3.353,1.733,3.559c2.246,0.276,4.847-0.618,6.952-1.716
			c11.974-6.249,21.174-16.625,30.088-26.772C351.524,293.475,338.337,301.953,326.993,312.432z"/>
	</g>
</g>
<g id="Layer_1">
</g>
</svg>
