<?xml version="1.0" encoding="iso-8859-1"?>
<!-- Generator: Adobe Illustrator 22.0.0, SVG Export Plug-In . SVG Version: 6.00 Build 0)  -->
<svg version="1.1" xmlns="http://www.w3.org/2000/svg" xmlns:xlink="http://www.w3.org/1999/xlink" x="0px" y="0px"
	 viewBox="0 0 343.677 432" style="enable-background:new 0 0 343.677 432;" xml:space="preserve">
<g id="scorpion-pattern-1">
	<path style="fill:none;stroke:#000000;stroke-width:2;stroke-linecap:round;stroke-linejoin:round;stroke-miterlimit:10;" d="
		M341.966,359.028c-0.402-1.782-1.011-3.519-1.781-5.185c-0.356-1.748-1.436-3.33-2.564-4.758
		c-12.839-16.254-30.943-28.219-50.837-33.931c-0.814-2.622-2.216-4.873-4.662-6.136c-3.5-1.808-7.523-0.732-11.089,1.273
		c-4.867-6.038-9.489-12.49-15.446-17.199c-0.123-0.347-0.215-0.608-0.339-0.955c0.334-1.726,0.123-3.417-1.056-4.714
		c-0.373-0.41-0.809-0.701-1.268-0.943c-3.324-8.097-6.649-16.194-9.973-24.292c0.222-0.224,0.414-0.482,0.528-0.822
		c0.471-1.4-0.564-2.824-1.555-3.92c-5.217-5.77-11.14-10.889-17.565-15.275c-9.995-14.687-21.062-28.633-33.093-41.705
		c-0.11-2.849-0.838-5.902-3.234-7.348c-2.118-1.277-4.948-0.808-7.005,0.564c-2.057,1.373-3.482,3.495-4.725,5.633
		c-4.468,7.684-7.245,16.331-8.173,25.169c-1.709-2.176-3.428-4.344-5.268-6.415c-6.723-7.57-14.439-14.315-22.908-19.864
		c2.844-4.318,4.249-9.768,4.421-15.009c0.33-10.05-3.124-20.154-9.466-27.954c0.429-0.477,0.863-0.949,1.229-1.494
		c3.701-5.515,2.915-12.792,1.804-19.34c-1.117-6.578-2.542-13.331-5.826-19.057c0.343-0.581,0.666-1.174,0.953-1.783
		c4.06-8.635,2.827-19.14-1.696-27.542c-1.424-2.646-3.167-5.083-5.104-7.363c1.801-1.336,3.336-3.081,4.511-4.997
		c2.135-3.484,3.269-7.475,4.338-11.418c0.302-1.113,0.595-2.235,0.88-3.361c3.196,1.73,6.551,3.163,10.042,4.181
		c12.578,3.668,26.535,2.359,38.213-3.581c-11.816-0.066-23.224-7.853-27.589-18.833c-2.768-6.962-2.825-14.673-4.507-21.974
		c-1.682-7.3-5.79-14.899-12.958-17.078c-4.366-1.327-9.211-0.353-13.181,1.897c-7.168,4.062-11.2,12.491-10.941,20.655
		c-5.169,2.427-9.257,7.208-11.409,12.588c-2.748,6.87-2.785,14.534-1.909,21.881c0.348,2.924,0.867,5.878,1.746,8.687
		c-6.008,3.102-10.538,8.89-12.682,15.348c-2.434,7.331-2.021,15.403,0.13,22.823c0.538,1.855,1.262,3.688,2.086,5.478
		c-7.549,7.055-10.247,19.274-6.426,29.13c1.208,3.116,2.959,5.948,5.101,8.461c-3.392,6.043-6.345,12.302-7.781,19.049
		c-2.103,9.88-0.404,21.166,6.837,28.208c1.513,1.471,3.214,2.682,5.02,3.732c-2.293,6.783-3.389,13.96-3.49,21.229
		c-9.652-0.081-19.291-1.922-28.278-5.448c-1.76-0.69-3.791-1.436-5.456-0.54c-1.203,0.647-1.856,2.006-2.139,3.342
		c-0.265,1.253-0.237,2.518-0.012,3.755c-3.876,12.344-8.936,24.31-15.088,35.692C29.43,268.442,15.762,277.372,1,283.839
		c15.642-0.1,31.16-6.421,42.42-17.279c1.758-1.695,3.447-3.679,4.641-5.829c7.106-4.484,14.165-10.254,17.091-18.134
		c1.92-5.169,1.011-10.274,1.53-13.549c5.554,3.215,19.598,5.993,25.296,5.243c0.406-0.053,0.811-0.129,1.218-0.192
		c0.678,4.655,1.714,9.271,3.079,13.771c-4.882,0.037-9.764,0.073-14.646,0.11c-2.001,0.015-4.076,0.046-5.88,0.91
		s-3.255,2.814-2.872,4.778c0.027,0.138,0.09,0.253,0.131,0.382c-6.706,17.507-20.938,32.03-38.378,38.947
		c7.457-0.352,14.618-3.304,20.849-7.416s11.624-9.36,16.808-14.733c2.76-2.861,5.505-5.81,7.392-9.309
		c0.583-1.08,1.063-2.227,1.439-3.404c6.864,1.2,13.727,2.4,20.591,3.6c2.165,4.637,4.587,9.135,7.248,13.501
		c-4.428-0.389-8.856-0.778-13.284-1.166c-2.658-0.233-5.41-0.456-7.93,0.42c-2.521,0.876-4.756,3.167-4.677,5.834
		c0.035,1.2,0.562,2.301,1.311,3.249c-8.18,15.063-21.505,27.306-37.31,33.967c11.382,1.904,23.077-3.319,31.403-11.31
		c5.577-5.352,9.853-11.828,13.497-18.68c5.123,1.47,10.245,2.94,15.367,4.41c-0.614,1.406-0.457,3.195-0.096,4.756
		c0.261,1.128,0.596,2.231,0.98,3.315c-7.605,16.236-18.051,31.139-30.786,43.76c0.355-0.047-14.317,9.997-21.999,15.102
		c-1.933,1.284-3.922,2.625-5.17,4.581c-2.09,3.276-1.51,7.758,0.797,10.9c-2.131,12.422,1.399,25.766,9.644,35.327
		c9.952,11.542,25.29,16.928,40.278,19.691c7.672,1.414,15.569,2.268,23.26,0.961c7.691-1.306,15.217-4.983,19.886-11.232
		c-6.55-0.104-13.162-0.214-19.536-1.73c-6.374-1.515-12.578-4.571-16.721-9.646c-4.333-5.308-6.02-12.247-9.275-18.276
		c-2.011-3.724,2.536-8.673,6.986-2.058c0.889,1.321,1.701,2.762,3.011,3.668c1.677,1.159,3.844,1.228,5.827,1.699
		c5.563,1.321,10.029,6.381,10.651,12.064c0.486-10.94-5.978-21.414-14.912-27.747c-7.169-5.082-15.724-7.77-24.467-9.036
		c4.609-4.242,8.494-9.269,11.478-14.782c1.647,0.36,3.375,0.568,5.005,0.836c8.604,1.416,16.335,5.902,24.334,9.376
		c7.998,3.474,17.081,5.983,25.362,3.249c1.663-0.549,3.281-1.461,4.687-2.59c3.264,0.196,6.518,0.014,9.424-1.391
		c3.545-1.713,5.959-5.126,6.986-8.948c1.777,1.54,3.738,2.79,6.003,3.403c3.654,0.99,7.546,0.159,11.311,0.554
		c3.765,0.395,7.935,2.858,7.934,6.644c5.801-9.865,21.218-12.151,29.632-4.394c2.764-4.56,4.187-9.725,4.599-15.036
		c2.13,0.247,4.323,0.078,6.132-0.751c0.903-0.414,1.611-0.946,2.216-1.535c19.144,6.343,41.502-1.661,43.597-4.167
		c0.356-0.426,0.664-0.878,0.949-1.341c5.929,5.88,9.943,13.746,15.414,19.972c-10.515,12.878-27.161,20.57-43.793,20.072
		c14.15,8.563,25.908,0.378,29.156,2.197c4.612-4.417,4.73-0.025,8.571-3.87c1.721,0.521,3.522-1.369,3.858-1.408
		c2.887-0.332,1.394,5.036-0.565,7.183c-2.695,2.954-5.438,5.885-6.763,8.175c-5.669,9.798-13.638,19.016-24.417,22.472
		c14.242,1.323,28.789-0.747,42.097-5.99c9.713-3.826,18.938-9.48,25.424-17.659C340.804,380.153,344.264,369.211,341.966,359.028z
		 M245.958,286.511c-0.321,0.097-0.64,0.195-0.947,0.301c-9.835,3.4-19.17,8.222-27.665,14.233c-0.527-0.85-1.054-1.699-1.581-2.546
		c-4.325-6.937-8.649-13.873-12.974-20.81c4.661-5.486,9.165-11.205,11.66-17.924c1.209-3.256,1.813-6.814,1.744-10.307
		c1.094,0.944,2.215,1.853,3.363,2.732c-1.64,12.542-0.68,25.419,2.828,37.571c0.911-11.222,1.821-22.444,2.732-33.666
		c3.146,1.98,6.453,3.694,9.862,5.176c2.118,8.939,5.81,17.505,10.912,25.145C245.913,286.447,245.936,286.479,245.958,286.511z
		 M201.389,249.787c0.464-0.422,0.91-0.875,1.349-1.335c-1.132,2.25-2.263,4.501-3.395,6.751c-1.6,3.181-3.202,6.436-4.479,9.773
		c-1.459-2.34-2.918-4.681-4.377-7.021C194.107,255.215,198.029,252.843,201.389,249.787z M183.87,229.482
		c1.333-3.278,2.669-6.595,3.837-9.955c2.502,4.296,5.448,8.325,8.825,11.974c-0.26,0.262-0.512,0.527-0.754,0.792
		c-4.403,4.803-8.22,10.123-11.483,15.763c-1.832-2.923-3.7-5.822-5.591-8.708C181.005,236.425,182.466,232.933,183.87,229.482z
		 M108.059,328.907c-1.556-0.647-3.203-1.262-4.858-1.549c0.216-0.281,0.454-0.547,0.664-0.831c3.883-5.255,6.863-11.07,9.48-17.072
		c2.304,3.105,5.027,5.93,7.998,8.394c6.637,5.503,14.383,9.477,22.082,13.357c2.795,1.408,5.672,2.78,8.717,3.407
		c-3.771,4.114-6.743,8.948-8.709,14.172C132.475,340.801,120.578,334.11,108.059,328.907z M252.971,325.174
		c-2.945,2.292-6.176,4.334-9.62,5.739c-0.268-1.019-0.781-1.969-1.762-2.73c-1.79-1.39-4.725-1.763-7.32-1.418
		c-1.319,0.175-2.572,0.509-3.788,0.917c-1.149-3.896-2.673-7.648-4.44-11.299c2.392-0.621,4.726-1.706,6.913-2.871
		c5.617-2.991,11.034-6.573,15.507-11.058c3.449,5.179,7.26,10.076,11.949,14.139c0.411,0.356,0.86,0.673,1.286,1.014
		C258.834,320.185,256.01,322.808,252.971,325.174z"/>
</g>
<g id="Layer_1">
</g>
</svg>
