<svg xmlns="http://www.w3.org/2000/svg" data-name="Layer 2" viewBox="15 10 70 90" x="0px" y="0px" fill="#FFFFFF"><path d="M70.6882975,53.5530242v22.2109867c0,1.1213814-.9092014,2.0305828-2.0305828,2.0305828H24.2359891c-1.1213814,0-2.0305828-.9092014-2.0305828-2.0305828V31.3420375c0-1.1213814,.9092014-2.0305828,2.0305828-2.0305828h22.2109867c1.1213814,0,2.0305828,.9092014,2.0305828,2.0305828s-.9092014,2.0305828-2.0305828,2.0305828H26.2665719v40.3608078h40.3605599v-20.1804039c0-1.1213814,.9092014-2.0305828,2.0305828-2.0305828s2.0305828,.9092014,2.0305828,2.0305828Zm7.0661406-29.7150895c-.0114022-.0574448-.0330912-.1105517-.049203-.1661685-.0206975-.0714496-.037429-.1436429-.0660584-.2128927-.0272661-.0655936-.0646951-.1249594-.0984059-.1868659-.029435-.0542534-.0534168-.1105208-.0881811-.1624503-.0736805-.1101799-.157214-.2130786-.2504766-.306589-.0008056-.0008366-.0013013-.0018281-.0021689-.0026646q0-.000031-.000062-.000062c-.094254-.094254-.1982371-.1784692-.3094086-.2528314-.0515578-.0344545-.1073294-.0582194-.1610561-.0874375-.0624022-.0340207-.1222638-.0717285-.1884461-.0991496-.0689089-.0285055-.1406684-.0450821-.2116843-.0656866-.0560195-.0163287-.1094363-.0381106-.1673149-.0496058-.1302577-.0258718-.2622506-.0395669-.3945532-.0397838-.0011774,0-.0022309-.0003408-.0034083-.0003408h-23.0892038c-1.1213814,0-2.0305828,.9092014-2.0305828,2.0305828s.9092014,2.0305828,2.0305828,2.0305828h18.1870022l-30.5920983,30.5920983c-.7929485,.7927007-.7929485,2.0786703,0,2.871371,.3965982,.3965982,.9163897,.5948973,1.4359334,.5948973,.5197915,0,1.0393352-.1982991,1.4359334-.5948973l30.5918504-30.5918504v18.1867543c0,1.1213814,.9092014,2.0305828,2.0305828,2.0305828s2.0305828-.9092014,2.0305828-2.0305828V24.2366398c0-.133666-.0140049-.2671461-.0401556-.3987051Z"/></svg>